<?xml version="1.0" encoding="UTF-8" standalone="no"?>
<!-- Generator: Adobe Illustrator 19.1.0, SVG Export Plug-In . SVG Version: 6.00 Build 0)  -->

<svg
   xmlns:dc="http://purl.org/dc/elements/1.1/"
   xmlns:cc="http://creativecommons.org/ns#"
   xmlns:rdf="http://www.w3.org/1999/02/22-rdf-syntax-ns#"
   xmlns:svg="http://www.w3.org/2000/svg"
   xmlns="http://www.w3.org/2000/svg"
   xmlns:sodipodi="http://sodipodi.sourceforge.net/DTD/sodipodi-0.dtd"
   xmlns:inkscape="http://www.inkscape.org/namespaces/inkscape"
   version="1.1"
   id="Layer_1"
   x="0px"
   y="0px"
   viewBox="0 0 163.30001 27.799998"
   enable-background="new 0 0 595.3 841.9"
   xml:space="preserve"
   inkscape:version="0.91 r13725"
   sodipodi:docname="blueray_logo.svg"
   width="163.3"
   height="27.799999"><metadata
     id="metadata22"><rdf:RDF><cc:Work
         rdf:about=""><dc:format>image/svg+xml</dc:format><dc:type
           rdf:resource="http://purl.org/dc/dcmitype/StillImage" /><dc:title></dc:title></cc:Work></rdf:RDF></metadata><defs
     id="defs20" /><sodipodi:namedview
     pagecolor="#ffffff"
     bordercolor="#666666"
     borderopacity="1"
     objecttolerance="10"
     gridtolerance="10"
     guidetolerance="10"
     inkscape:pageopacity="0"
     inkscape:pageshadow="2"
     inkscape:window-width="1920"
     inkscape:window-height="1056"
     id="namedview18"
     showgrid="false"
     fit-margin-top="0"
     fit-margin-left="0"
     fit-margin-right="0"
     fit-margin-bottom="0"
     inkscape:zoom="4.4862359"
     inkscape:cx="82.305684"
     inkscape:cy="25.026971"
     inkscape:window-x="0"
     inkscape:window-y="24"
     inkscape:window-maximized="1"
     inkscape:current-layer="Layer_1" /><text
     id="XMLID_1_"
     display="none"
     font-size="30px"
     letter-spacing="4"
     style="font-size:30px;font-family:BryantLG-LightAlternate;letter-spacing:4;display:none;fill:#ed174c"
     x="42.4809"
     y="-7.5932999">blueray</text>
<g
     id="Logo"
     transform="translate(-121.4,-416.1)"><polygon
       id="XMLID_11_"
       points="132,423.4 141.9,423.4 149.2,416.1 141.9,416.1 141.9,416.1 132,416.1 "
       style="fill:#90d7f0" /><polygon
       id="XMLID_8_"
       points="141.9,436.6 148.2,436.6 141.9,443.9 121.4,443.9 121.4,436.6 128.7,436.6 128.7,436.6 141.9,436.6 "
       style="fill:#53c8e9" /><polygon
       id="XMLID_7_"
       points="141.9,436.6 141.9,443.9 149.2,436.6 149.2,416.1 141.9,416.1 141.9,423.4 141.9,423.4 141.9,436.6 "
       style="fill:#90d7f0" /><polygon
       id="XMLID_6_"
       points="128.7,423.3 128.7,416.1 121.4,423.4 121.4,423.4 121.4,423.4 121.4,436.6 121.4,436.6 121.4,443.9 128.7,436.6 128.7,436.6 128.7,436.6 128.7,423.3 "
       style="fill:#90d7f0" /><g
       id="XMLID_3_"><path
         id="XMLID_16_"
         d="m 237.9,423.1 c 0.2,0 0.4,0.2 0.4,0.4 l 0,3 c 0.8,-2 3.1,-3.4 5.4,-3.4 0.2,0 0.3,0.2 0.3,0.3 0,0.1 -0.1,0.3 -0.3,0.3 -2.9,0 -5.4,2.3 -5.4,5.2 l 0,7.2 c 0,0.2 -0.2,0.4 -0.4,0.4 -0.2,0 -0.4,-0.2 -0.4,-0.4 l 0,-12.7 c 0,-0.1 0.2,-0.3 0.4,-0.3 z"
         inkscape:connector-curvature="0"
         style="fill:#43c4dc" /><path
         id="XMLID_18_"
         d="m 257.5,423 c 4,0 6.9,3.1 6.9,6.9 l 0,6.4 c 0,0.2 -0.2,0.4 -0.4,0.4 -0.2,0 -0.4,-0.2 -0.4,-0.4 l 0,-3.3 c -1.1,2.2 -3.4,3.7 -6.1,3.7 -4,0 -6.9,-3.1 -6.9,-6.9 0,-3.8 2.9,-6.8 6.9,-6.8 z m 0,13 c 3.5,0 6.1,-2.7 6.1,-6.1 0,-3.5 -2.6,-6.2 -6.1,-6.2 -3.5,0 -6.1,2.7 -6.1,6.2 0,3.4 2.6,6.1 6.1,6.1 z"
         inkscape:connector-curvature="0"
         style="fill:#43c4dc" /><path
         id="XMLID_21_"
         d="m 283.9,423.4 c 0.1,-0.2 0.1,-0.3 0.4,-0.3 0.2,0 0.4,0.2 0.4,0.3 0,0.1 0,0.2 -0.1,0.2 l -5.6,12.7 c -1.2,2.8 -2.9,4.9 -5.7,5.8 -0.1,0 -0.2,0.1 -0.3,0.1 -0.2,0 -0.4,-0.2 -0.4,-0.4 0,-0.2 0.2,-0.3 0.4,-0.4 2.5,-0.7 3.9,-2.5 5.2,-5.2 l -5.5,-12.6 c 0,-0.1 -0.1,-0.2 -0.1,-0.2 0,-0.2 0.1,-0.3 0.4,-0.3 0.2,0 0.3,0.1 0.4,0.3 l 5.3,12 5.2,-12 z"
         inkscape:connector-curvature="0"
         style="fill:#43c4dc" /></g><g
       id="XMLID_5_"><path
         id="XMLID_23_"
         d="m 161,436.2 c 0,0.2 -0.2,0.4 -0.4,0.4 -0.2,0 -0.4,-0.2 -0.4,-0.4 l 0,-19.7 c 0,-0.2 0.2,-0.4 0.4,-0.4 0.2,0 0.4,0.2 0.4,0.4 l 0,10.2 c 1.2,-2.4 3.4,-3.8 6.1,-3.8 3.8,0 6.9,2.9 6.9,6.9 0,4 -3,6.9 -6.9,6.9 -2.7,0 -4.9,-1.4 -6.1,-3.8 l 0,3.3 z m 6.1,-12.5 c -3.4,0 -6.1,2.6 -6.1,6.2 0,3.6 2.7,6.1 6.1,6.1 3.4,0 6.1,-2.6 6.1,-6.1 0,-3.6 -2.7,-6.2 -6.1,-6.2 z"
         inkscape:connector-curvature="0"
         style="fill:#90d7f0" /><path
         id="XMLID_26_"
         d="m 183.6,416.1 c 0.2,0 0.4,0.2 0.4,0.4 l 0,19.7 c 0,0.2 -0.2,0.4 -0.4,0.4 -0.2,0 -0.4,-0.2 -0.4,-0.4 l 0,-19.7 c 0,-0.2 0.2,-0.4 0.4,-0.4 z"
         inkscape:connector-curvature="0"
         style="fill:#90d7f0" /><path
         id="XMLID_28_"
         d="m 206.1,423.5 0,7.3 c 0,3.3 -2.6,6 -6,6 -3.4,0 -6,-2.6 -6,-6 l 0,-7.3 c 0,-0.2 0.2,-0.4 0.4,-0.4 0.2,0 0.4,0.2 0.4,0.4 l 0,7.3 c 0,2.9 2.2,5.2 5.2,5.2 3.1,0 5.3,-2.3 5.3,-5.2 l 0,-7.3 c 0,-0.2 0.2,-0.4 0.4,-0.4 0.2,0 0.3,0.2 0.3,0.4 z"
         inkscape:connector-curvature="0"
         style="fill:#90d7f0" /><path
         id="XMLID_30_"
         d="m 228,430 -12,0 c 0,3.3 2.6,6.1 6.1,6.1 2.1,0 4,-1 5.2,-2.9 0.1,-0.2 0.2,-0.2 0.3,-0.2 0.2,0 0.4,0.1 0.4,0.4 0,0.1 0,0.2 -0.1,0.3 -1.2,1.9 -3.2,3.1 -5.8,3.1 -4,0 -6.9,-3.1 -6.9,-6.9 0,-3.9 2.8,-6.9 6.6,-6.9 3.7,0 6.5,3 6.5,6.6 0.1,0.2 -0.1,0.4 -0.3,0.4 z m -6.1,-6.4 c -3.2,0 -5.6,2.5 -5.8,5.6 l 11.5,0 c -0.1,-2.9 -2.6,-5.6 -5.7,-5.6 z"
         inkscape:connector-curvature="0"
         style="fill:#90d7f0" /></g></g></svg>