<?xml version="1.0" encoding="UTF-8" standalone="no"?>
<svg width="229px" height="230px" viewBox="0 0 229 230" version="1.1" xmlns="http://www.w3.org/2000/svg" xmlns:xlink="http://www.w3.org/1999/xlink" xmlns:sketch="http://www.bohemiancoding.com/sketch/ns">
    <!-- Generator: Sketch 3.4.4 (17249) - http://www.bohemiancoding.com/sketch -->
    <title>Page 1</title>
    <desc>Created with Sketch.</desc>
    <defs></defs>
    <g id="Page-1" stroke="none" stroke-width="1" fill="none" fill-rule="evenodd" sketch:type="MSPage">
        <g sketch:type="MSLayerGroup" transform="translate(0.000000, -1.000000)">
            <path d="M168.764143,1.60507143 L168.764143,1.61328571 L86.9580714,1.61328571 L86.9580714,61.3722143 L168.493071,61.3722143 L228.252,1.61328571 L168.764143,1.60507143 Z" id="Fill-1" fill="#90D7EF" sketch:type="MSShapeGroup"></path>
            <path d="M0,170.22875 L0,230.004107 L168.343571,230.004107 L219.888214,170.245179 L168.614643,170.236964 L168.614643,170.245179 L59.7589286,170.245179 L59.7589286,170.22875 L0,170.22875 Z" id="Fill-2" fill="#53C8E8" sketch:type="MSShapeGroup"></path>
            <path d="M168.475821,1.74553571 L168.484036,61.5126786 L168.49225,61.5126786 L168.49225,170.360179 L168.49225,229.848036 L228.251179,170.089107 L228.251179,1.74553571 L168.475821,1.74553571 Z" id="Fill-3" fill="#90D7EF" sketch:type="MSShapeGroup"></path>
            <path d="M0,61.502 L0,61.5102143 L0.00821428571,61.5102143 L0.00821428571,170.365929 L0.00821428571,229.845571 L59.7671429,170.094857 L59.7671429,170.086643 L59.7589286,170.086643 L59.7589286,61.2391429 L59.7589286,1.74307143 L0,61.502 Z" id="Fill-4" fill="#90D7EF" sketch:type="MSShapeGroup"></path>
        </g>
    </g>
</svg>