<?xml version="1.0" standalone="no"?>
<!DOCTYPE svg PUBLIC "-//W3C//DTD SVG 1.1//EN" "http://www.w3.org/Graphics/SVG/1.1/DTD/svg11.dtd" >
<svg xmlns="http://www.w3.org/2000/svg" xmlns:xlink="http://www.w3.org/1999/xlink" version="1.1">
<metadata>
Created by FontForge 20141024 at Sat Jan  2 21:22:01 2016
 By Jimmy Warting
Copyright (c) 2008 by Process Type Foundry. All rights reserved. BryantLG is licensed only for use by LG and related agencies preparing materials for LG. Use of BryantLG for materials not related to LG is strictly prohibited.
</metadata>
<defs>
<font id="BryantLG-LightAlternate" horiz-adv-x="206" >
  <font-face 
    font-family="BryantLG Light Alternate"
    font-weight="300"
    font-stretch="normal"
    units-per-em="1000"
    panose-1="2 11 5 3 3 0 0 2 0 3"
    ascent="750"
    descent="-250"
    x-height="434"
    cap-height="674"
    bbox="-43 -269 1178 909"
    underline-thickness="20"
    underline-position="-113"
    stemh="24"
    stemv="26"
    unicode-range="U+0020-FB02"
  />
<missing-glyph horiz-adv-x="706" 
d="M120 0v666h466v-666h-466zM537 616h-340l340 -527v527zM169 576v-527h339z" />
    <glyph glyph-name="fi" unicode="fi" horiz-adv-x="507" 
d="M391 429c0 7 6 13 13 13s13 -6 13 -13v-424c0 -7 -6 -13 -13 -13s-13 6 -13 13v424zM391 607c0 7 6 13 13 13s13 -6 13 -13v-69c0 -7 -6 -13 -13 -13s-13 6 -13 13v69zM110 514c0 112 44 156 154 156h21c6 0 11 -5 11 -11s-5 -11 -11 -11h-23c-88 0 -126 -28 -126 -135
v-79h143c6 0 11 -5 11 -11s-5 -11 -11 -11h-143v-407c0 -7 -6 -13 -13 -13s-13 6 -13 13v407h-69c-6 0 -11 5 -11 11s5 11 11 11h69v80z" />
    <glyph glyph-name="fl" unicode="fl" horiz-adv-x="507" 
d="M391 661c0 7 6 13 13 13s13 -6 13 -13v-656c0 -7 -6 -13 -13 -13s-13 6 -13 13v656zM110 514c0 112 44 156 154 156h21c6 0 11 -5 11 -11s-5 -11 -11 -11h-23c-88 0 -126 -28 -126 -135v-79h143c6 0 11 -5 11 -11s-5 -11 -11 -11h-143v-407c0 -7 -6 -13 -13 -13
s-13 6 -13 13v407h-69c-6 0 -11 5 -11 11s5 11 11 11h69v80z" />
    <glyph glyph-name=".notdef" horiz-adv-x="706" 
d="M120 0v666h466v-666h-466zM537 616h-340l340 -527v527zM169 576v-527h339z" />
    <glyph glyph-name="space" unicode=" " horiz-adv-x="300" 
 />
    <glyph glyph-name="exclam" unicode="!" horiz-adv-x="256" 
d="M105 19c0 13 10 23 23 23s23 -10 23 -23s-10 -23 -23 -23s-23 10 -23 23zM114 661c0 7 6 13 13 13s13 -6 13 -13v-278l-4 -218c0 -7 -4 -11 -9 -11s-9 4 -9 11l-4 218v278z" />
    <glyph glyph-name="quotedbl" unicode="&#x22;" horiz-adv-x="371" 
d="M90 461v201c0 7 5 12 12 12s12 -5 12 -12v-201c0 -7 -5 -12 -12 -12s-12 5 -12 12zM257 461v201c0 7 5 12 12 12s12 -5 12 -12v-201c0 -7 -5 -12 -12 -12s-12 5 -12 12z" />
    <glyph glyph-name="numbersign" unicode="#" horiz-adv-x="683" 
d="M533 662l-22 -193h103c7 0 11 -5 11 -11s-5 -11 -12 -11h-104l-24 -218h103c6 0 11 -4 11 -11c0 -6 -5 -11 -12 -11h-105l-22 -203c-1 -7 -5 -12 -13 -12s-11 6 -11 12l22 203h-256l-22 -203c-1 -7 -5 -12 -13 -12c-7 0 -11 5 -11 12l22 203h-103c-6 0 -10 5 -10 11
s5 11 12 11h104l24 218h-103c-6 0 -11 5 -11 11s5 11 13 11h103l22 193c1 7 5 12 13 12c7 0 11 -5 11 -12l-22 -193h256l22 193c1 7 5 12 13 12s11 -5 11 -12zM229 447l-24 -218h256l24 218h-256z" />
    <glyph glyph-name="dollar" unicode="$" horiz-adv-x="600" 
d="M293 -95v105c-81 4 -159 37 -213 74c-6 4 -6 10 -2 15c4 6 11 5 17 1c63 -40 142 -68 216 -68c116 0 193 48 193 138c0 88 -78 118 -202 157c-145 45 -216 95 -216 181c0 93 80 146 205 148v105c0 7 5 12 12 12s12 -5 12 -12v-106c67 -3 137 -22 185 -55c4 -3 5 -9 1 -14
c-5 -6 -12 -4 -19 0c-56 32 -123 48 -185 48c-121 0 -185 -46 -185 -124c0 -86 68 -120 192 -160c168 -54 226 -94 226 -180c0 -85 -68 -158 -213 -160v-105c0 -7 -5 -12 -12 -12s-12 5 -12 12z" />
    <glyph glyph-name="percent" unicode="%" horiz-adv-x="838" 
d="M380 523c0 -86 -63 -155 -155 -155s-155 69 -155 155s63 155 155 155s155 -69 155 -155zM358 523c0 78 -54 135 -133 135s-133 -57 -133 -135s54 -135 133 -135s133 57 133 135zM773 143c0 -86 -63 -155 -155 -155s-155 69 -155 155s63 155 155 155s155 -69 155 -155z
M751 143c0 78 -54 135 -133 135s-133 -57 -133 -135s54 -135 133 -135s133 57 133 135zM607 675c8 0 13 -7 9 -16l-367 -662c-2 -3 -5 -5 -10 -5c-9 0 -12 10 -9 16l367 662c2 3 5 5 10 5z" />
    <glyph glyph-name="ampersand" unicode="&#x26;" horiz-adv-x="717" 
d="M682 15c0 -4 -2 -7 -7 -10c-19 -11 -44 -17 -66 -17c-56 0 -84 32 -125 89c-45 -52 -117 -89 -196 -89c-116 0 -198 75 -198 178s79 165 190 224c-38 55 -77 112 -77 172c0 71 45 116 127 116c78 0 126 -47 126 -116c0 -55 -38 -120 -144 -180
c148 -227 175 -267 175 -267c37 51 58 97 77 147c2 5 5 7 10 7c7 0 11 -5 11 -10c0 -1 0 -3 -1 -6c-19 -49 -43 -102 -84 -156c38 -55 65 -88 109 -88c23 0 36 4 55 12c2 1 6 3 10 3s8 -4 8 -9zM431 562c0 60 -43 94 -102 94c-61 0 -101 -32 -101 -96c0 -54 37 -103 73 -158
c81 43 130 101 130 160zM471 98c1 -1 -137 205 -181 273c-102 -60 -174 -110 -174 -204c0 -100 83 -157 172 -157c71 0 138 35 183 88z" />
    <glyph glyph-name="quotesingle" unicode="'" horiz-adv-x="204" 
d="M90 461v201c0 7 5 12 12 12s12 -5 12 -12v-201c0 -7 -5 -12 -12 -12s-12 5 -12 12z" />
    <glyph glyph-name="parenleft" unicode="(" horiz-adv-x="325" 
d="M242 -165c-100 160 -142 281 -142 435s42 275 142 435c2 3 5 5 10 5c8 0 13 -6 13 -12c0 -4 -1 -6 -3 -9c-85 -138 -136 -261 -136 -419s51 -281 136 -419c2 -3 3 -5 3 -9c0 -6 -5 -12 -13 -12c-5 0 -8 2 -10 5z" />
    <glyph glyph-name="parenright" unicode=")" horiz-adv-x="325" 
d="M83 -165c-2 -3 -5 -5 -10 -5c-8 0 -13 6 -13 12c0 4 1 6 3 9c85 138 136 261 136 419s-51 281 -136 419c-2 3 -3 5 -3 9c0 6 5 12 13 12c5 0 8 -2 10 -5c100 -160 142 -281 142 -435s-42 -275 -142 -435z" />
    <glyph glyph-name="asterisk" unicode="*" horiz-adv-x="406" 
d="M203 555l65 114c2 3 5 5 9 5c6 0 10 -4 10 -9c0 -4 -1 -5 -2 -7l-65 -112h131c6 0 10 -4 10 -10s-4 -10 -10 -10h-131l65 -111c1 -2 2 -4 2 -7c0 -5 -4 -10 -10 -10c-4 0 -7 2 -9 5l-65 114l-65 -114c-2 -4 -5 -5 -9 -5c-6 0 -10 5 -10 10c0 3 1 5 2 7l65 111h-131
c-6 0 -10 4 -10 10s4 10 10 10h131l-65 112c-1 2 -2 4 -2 7c0 5 4 9 10 9c4 0 7 -2 9 -5z" />
    <glyph glyph-name="plus" unicode="+" horiz-adv-x="600" 
d="M87 311c-7 0 -12 5 -12 12s5 12 12 12h200v200c0 7 6 13 13 13s13 -6 13 -13v-200h200c7 0 12 -5 12 -12s-5 -12 -12 -12h-200v-200c0 -7 -6 -13 -13 -13s-13 6 -13 13v200h-200z" />
    <glyph glyph-name="comma" unicode="," 
d="M94 65c0 7 4 12 11 12s11 -5 11 -12v-46c0 -62 -7 -113 -33 -169c-2 -4 -5 -8 -11 -8c-8 0 -12 5 -12 10s2 8 3 10c25 51 31 104 31 156v47z" />
    <glyph glyph-name="hyphen" unicode="-" horiz-adv-x="429" 
d="M349 248c0 -6 -5 -11 -11 -11h-247c-6 0 -11 5 -11 11s5 11 11 11h247c6 0 11 -5 11 -11z" />
    <glyph glyph-name="period" unicode="." horiz-adv-x="226" 
d="M100 64c0 7 6 13 13 13s13 -6 13 -13v-55c0 -7 -6 -13 -13 -13s-13 6 -13 13v55z" />
    <glyph glyph-name="slash" unicode="/" horiz-adv-x="477" 
d="M390 705l-276 -803c-2 -6 -5 -9 -11 -9c-9 0 -13 6 -13 12c0 2 1 4 2 7l276 804c2 6 6 9 12 9c7 0 12 -5 12 -12c0 -3 -2 -8 -2 -8z" />
    <glyph glyph-name="zero" unicode="0" horiz-adv-x="676" 
d="M606 333c0 -173 -95 -345 -268 -345s-268 172 -268 345s95 345 268 345s268 -172 268 -345zM580 333c0 168 -91 322 -242 322s-242 -154 -242 -322s91 -322 242 -322s242 154 242 322z" />
    <glyph glyph-name="one" unicode="1" horiz-adv-x="350" 
d="M227 -8c-7 0 -13 6 -13 13v640l-164 -51c-3 -1 -7 -2 -10 -2c-6 0 -12 4 -12 11c0 6 3 10 9 12l177 56c3 1 9 3 13 3c9 0 13 -6 13 -14v-655c0 -7 -6 -13 -13 -13z" />
    <glyph glyph-name="two" unicode="2" horiz-adv-x="628" 
d="M558 11c0 -6 -5 -11 -11 -11h-455c-6 0 -12 6 -12 12c0 152 63 217 216 294s230 119 230 212c0 83 -69 138 -195 138c-82 0 -159 -27 -215 -74c-2 -2 -5 -4 -10 -4c-6 0 -11 6 -11 12c0 3 1 6 6 10c55 46 140 78 232 78c132 0 219 -60 219 -159
c0 -101 -76 -149 -231 -227c-162 -81 -215 -137 -215 -270h441c6 0 11 -5 11 -11z" />
    <glyph glyph-name="three" unicode="3" horiz-adv-x="622" 
d="M303 355h-67c-6 0 -11 5 -11 11s5 11 11 11h66c102 0 172 62 172 141c0 84 -64 137 -173 137c-58 0 -111 -16 -160 -46c-3 -2 -7 -3 -10 -3c-7 0 -12 4 -12 10c0 5 3 8 7 11c55 35 115 51 175 51c120 0 199 -61 199 -159c0 -65 -43 -125 -128 -152
c91 -14 170 -82 170 -184c0 -119 -104 -195 -245 -195c-105 0 -176 38 -235 83c-4 3 -6 7 -6 11c0 8 6 12 13 12c4 0 7 -2 11 -5c53 -43 124 -78 217 -78c122 0 219 62 219 172c0 105 -90 172 -213 172z" />
    <glyph glyph-name="four" unicode="4" horiz-adv-x="642" 
d="M607 210c0 -6 -5 -11 -11 -11h-125v-194c0 -7 -6 -13 -13 -13s-13 6 -13 13v194h-394c-6 0 -11 5 -11 11c0 3 1 6 4 9l402 448c4 4 7 7 12 7c8 0 13 -6 13 -13v-440h125c6 0 11 -5 11 -11zM76 221h369v410z" />
    <glyph glyph-name="five" unicode="5" horiz-adv-x="639" 
d="M162 655c1 7 6 11 14 11h325c6 0 11 -5 11 -11s-5 -11 -11 -11h-316l-52 -315c50 51 118 79 202 79c142 0 232 -88 232 -207c0 -110 -87 -214 -246 -214c-104 0 -189 37 -244 92c-2 2 -4 5 -4 9c0 7 4 12 13 12c4 0 8 -3 11 -6c61 -58 141 -85 224 -85
c130 0 220 81 220 192c0 112 -88 185 -203 185c-81 0 -143 -28 -203 -82c-4 -4 -9 -8 -18 -8s-12 8 -11 15z" />
    <glyph glyph-name="six" unicode="6" horiz-adv-x="647" 
d="M445 658c-188 -58 -304 -202 -338 -399c27 91 133 147 237 147c146 0 238 -84 238 -205c0 -120 -104 -213 -243 -213c-162 0 -254 96 -254 235c0 199 141 394 347 453c4 1 8 2 12 2c7 0 11 -4 11 -9c0 -6 -3 -9 -10 -11zM556 200c0 117 -89 184 -212 184
c-106 0 -229 -67 -229 -185c0 -107 80 -189 224 -189c122 0 217 84 217 190z" />
    <glyph glyph-name="seven" unicode="7" horiz-adv-x="530" 
d="M30 655c0 6 5 11 11 11h446c9 0 13 -6 13 -10c0 -2 0 -5 -2 -8c-143 -186 -251 -370 -251 -643c0 -7 -5 -13 -13 -13s-13 5 -13 13c0 269 107 461 247 639h-427c-6 0 -11 5 -11 11z" />
    <glyph glyph-name="eight" unicode="8" horiz-adv-x="660" 
d="M584 181c0 -113 -114 -193 -254 -193s-254 80 -254 193c0 96 81 165 178 187c-72 21 -134 78 -134 150c0 98 97 160 210 160s210 -62 210 -160c0 -72 -62 -129 -134 -150c97 -22 178 -91 178 -187zM515 518c0 79 -75 138 -185 138s-185 -59 -185 -138s85 -140 185 -140
s185 61 185 140zM558 181c0 109 -116 175 -228 175s-228 -66 -228 -175c0 -106 110 -171 228 -171s228 65 228 171z" />
    <glyph glyph-name="nine" unicode="9" horiz-adv-x="644" 
d="M202 8c188 58 304 202 338 399c-27 -91 -133 -147 -237 -147c-146 0 -238 84 -238 205c0 120 104 213 243 213c162 0 254 -96 254 -235c0 -199 -141 -394 -347 -453c-4 -1 -8 -2 -12 -2c-7 0 -11 4 -11 9c0 6 3 9 10 11zM91 466c0 -117 89 -184 212 -184
c106 0 229 67 229 185c0 107 -80 189 -224 189c-122 0 -217 -84 -217 -190z" />
    <glyph glyph-name="colon" unicode=":" 
d="M90 64c0 7 6 13 13 13s13 -6 13 -13v-55c0 -7 -6 -13 -13 -13s-13 6 -13 13v55zM90 361c0 7 6 13 13 13s13 -6 13 -13v-55c0 -7 -6 -13 -13 -13s-13 6 -13 13v55z" />
    <glyph glyph-name="semicolon" unicode=";" 
d="M90 361c0 7 6 13 13 13s13 -6 13 -13v-55c0 -7 -6 -13 -13 -13s-13 6 -13 13v55zM91 65c0 7 5 12 12 12s12 -5 12 -12v-46c0 -62 -8 -113 -34 -169c-2 -4 -5 -8 -11 -8c-8 0 -12 5 -12 10s2 8 3 10c23 50 30 104 30 156v47z" />
    <glyph glyph-name="less" unicode="&#x3c;" horiz-adv-x="541" 
d="M445 95c-2 0 -5 1 -7 2l-374 216c-5 3 -9 6 -9 10c0 5 4 8 9 11l374 216c2 1 5 2 7 2c8 0 11 -7 11 -11s-2 -8 -7 -11l-361 -207l361 -206c5 -3 7 -7 7 -11s-3 -11 -11 -11z" />
    <glyph glyph-name="equal" unicode="=" horiz-adv-x="535" 
d="M438 392h-341c-7 0 -12 5 -12 12s5 12 12 12h341c7 0 12 -5 12 -12s-5 -12 -12 -12zM438 230h-341c-7 0 -12 5 -12 12s5 12 12 12h341c7 0 12 -5 12 -12s-5 -12 -12 -12z" />
    <glyph glyph-name="greater" unicode="&#x3e;" horiz-adv-x="541" 
d="M96 95c-8 0 -11 7 -11 11s2 8 7 11l361 206l-361 207c-5 3 -7 7 -7 11s3 11 11 11c2 0 5 -1 7 -2l374 -216c5 -3 9 -6 9 -11c0 -4 -4 -7 -9 -10l-374 -216c-2 -1 -5 -2 -7 -2z" />
    <glyph glyph-name="question" unicode="?" horiz-adv-x="488" 
d="M337 365c-87 -75 -98 -88 -98 -177v-55c0 -7 -6 -13 -13 -13s-13 6 -13 13v52c0 106 28 128 107 197c63 55 97 91 97 151c0 83 -64 121 -161 121c-62 0 -120 -17 -176 -55c-3 -2 -6 -3 -9 -3c-5 0 -11 5 -11 11c0 4 1 6 6 10c52 38 120 61 192 61c112 0 185 -51 185 -144
c0 -62 -33 -106 -106 -169zM203 19c0 13 10 23 23 23s23 -10 23 -23s-10 -23 -23 -23s-23 10 -23 23z" />
    <glyph glyph-name="at" unicode="@" horiz-adv-x="761" 
d="M600 347c0 81 -64 149 -147 149c-86 0 -147 -67 -147 -149s61 -150 147 -150c85 0 147 69 147 150zM722 42c-75 -34 -165 -54 -265 -54c-244 0 -387 163 -387 350c0 191 132 340 339 340c145 0 215 -80 215 -206v-280c0 -7 -5 -12 -12 -12s-12 5 -12 12v73
c-31 -55 -83 -89 -147 -89c-97 0 -171 77 -171 171s74 170 171 170c63 0 123 -37 147 -88v42c0 125 -67 185 -191 185c-193 0 -313 -142 -313 -318c0 -173 128 -329 361 -329c84 0 175 19 257 51c3 1 5 2 8 2c6 0 9 -5 9 -10s-3 -7 -9 -10z" />
    <glyph glyph-name="A" unicode="A" horiz-adv-x="714" 
d="M369 666l293 -654c1 -2 2 -4 2 -6c0 -8 -6 -14 -13 -14c-6 0 -10 3 -12 7l-98 220h-369l-97 -220c-2 -4 -6 -7 -12 -7c-7 0 -13 6 -13 14c0 2 1 4 2 6l293 654c3 6 7 8 12 8s9 -2 12 -8zM357 637l-174 -394h348z" />
    <glyph glyph-name="B" unicode="B" horiz-adv-x="655" 
d="M105 653c0 7 6 13 13 13h238c104 0 190 -59 190 -164c0 -62 -36 -122 -112 -149c77 -9 161 -68 161 -174c0 -92 -69 -179 -218 -179h-259c-7 0 -13 6 -13 13v640zM371 338h-240v-315h244c132 0 194 72 194 157c0 98 -77 158 -198 158zM355 643h-224v-282h232
c99 0 157 66 157 142c0 93 -77 140 -165 140z" />
    <glyph glyph-name="C" unicode="C" horiz-adv-x="730" 
d="M658 511c-4 0 -8 1 -11 6c-55 83 -139 137 -252 137c-186 0 -303 -158 -303 -321s117 -321 303 -321c113 0 197 54 252 137c3 5 7 6 11 6c7 0 12 -6 12 -12c0 -4 -1 -6 -2 -8c-54 -86 -150 -147 -273 -147c-198 0 -329 166 -329 345s131 345 329 345
c123 0 219 -61 273 -147c1 -2 2 -4 2 -8c0 -6 -5 -12 -12 -12z" />
    <glyph glyph-name="D" unicode="D" horiz-adv-x="710" 
d="M105 653c0 7 6 13 13 13h203c198 0 329 -154 329 -333s-131 -333 -329 -333h-203c-7 0 -13 6 -13 13v640zM316 642h-185v-618h185c193 0 308 146 308 309s-115 309 -308 309z" />
    <glyph glyph-name="E" unicode="E" horiz-adv-x="588" 
d="M105 653c0 7 6 13 13 13h396c7 0 12 -5 12 -12s-5 -12 -12 -12h-383v-276h227c7 0 12 -5 12 -12s-5 -12 -12 -12h-227v-318h397c7 0 12 -5 12 -12s-5 -12 -12 -12h-410c-7 0 -13 6 -13 13v640z" />
    <glyph glyph-name="F" unicode="F" horiz-adv-x="542" 
d="M131 342v-337c0 -7 -6 -13 -13 -13s-13 6 -13 13v648c0 7 6 13 13 13h392c7 0 12 -5 12 -12s-5 -12 -12 -12h-379v-276h223c7 0 12 -5 12 -12s-5 -12 -12 -12h-223z" />
    <glyph glyph-name="G" unicode="G" horiz-adv-x="749" 
d="M667 293v-178c0 -6 -2 -10 -4 -13c-66 -71 -157 -114 -268 -114c-200 0 -329 166 -329 345c0 183 134 345 329 345c98 0 179 -38 234 -98c2 -2 3 -5 3 -9c0 -7 -6 -11 -12 -11c-4 0 -7 1 -10 4c-57 60 -131 90 -215 90c-183 0 -303 -156 -303 -321
c0 -159 111 -322 303 -322c95 0 183 32 247 103v168h-218c-6 0 -11 5 -11 11s5 11 11 11h232c6 0 11 -5 11 -11z" />
    <glyph glyph-name="H" unicode="H" horiz-adv-x="735" 
d="M604 661c0 7 6 13 13 13s13 -6 13 -13v-656c0 -7 -6 -13 -13 -13s-13 6 -13 13v321h-473v-321c0 -7 -6 -13 -13 -13s-13 6 -13 13v656c0 7 6 13 13 13s13 -6 13 -13v-311h473v311z" />
    <glyph glyph-name="I" unicode="I" horiz-adv-x="246" 
d="M110 661c0 7 6 13 13 13s13 -6 13 -13v-656c0 -7 -6 -13 -13 -13s-13 6 -13 13v656z" />
    <glyph glyph-name="J" unicode="J" horiz-adv-x="591" 
d="M491 243c0 -143 -68 -255 -224 -255c-119 0 -197 73 -215 184v3c0 8 5 12 12 12c6 0 10 -3 11 -9c15 -100 82 -166 192 -166c129 0 198 85 198 232v417c0 7 6 13 13 13s13 -6 13 -13v-418z" />
    <glyph glyph-name="K" unicode="K" horiz-adv-x="665" 
d="M582 652l-245 -240l257 -400c2 -3 3 -5 3 -8c0 -7 -6 -12 -13 -12c-5 0 -8 2 -10 5l-255 398l-188 -185v-205c0 -7 -6 -13 -13 -13s-13 6 -13 13v656c0 7 6 13 13 13s13 -6 13 -13v-417l434 426c3 3 6 4 9 4c7 0 13 -5 13 -12c0 -4 -2 -7 -5 -10z" />
    <glyph glyph-name="L" unicode="L" horiz-adv-x="585" 
d="M131 24h392c7 0 12 -5 12 -12s-5 -12 -12 -12h-405c-7 0 -13 6 -13 13v648c0 7 6 13 13 13s13 -6 13 -13v-637z" />
    <glyph glyph-name="M" unicode="M" horiz-adv-x="840" 
d="M709 5v604l-273 -606c-3 -7 -8 -11 -16 -11s-13 4 -16 11l-273 606v-604c0 -7 -6 -13 -13 -13s-13 6 -13 13v655c0 9 6 14 13 14s11 -4 14 -10l288 -639l288 639c3 6 7 10 14 10s13 -5 13 -14v-655c0 -7 -6 -13 -13 -13s-13 6 -13 13z" />
    <glyph glyph-name="N" unicode="N" horiz-adv-x="728" 
d="M597 661c0 7 6 13 13 13s13 -6 13 -13v-656c0 -7 -5 -13 -14 -13c-5 0 -9 4 -12 8l-466 625v-620c0 -7 -6 -13 -13 -13s-13 6 -13 13v656c0 8 6 13 13 13c6 0 10 -4 13 -8l466 -626v621z" />
    <glyph glyph-name="O" unicode="O" horiz-adv-x="792" 
d="M726 333c0 -177 -127 -345 -330 -345s-330 168 -330 345s127 345 330 345s330 -168 330 -345zM700 333c0 164 -116 321 -304 321s-304 -157 -304 -321s116 -321 304 -321s304 157 304 321z" />
    <glyph glyph-name="P" unicode="P" horiz-adv-x="621" 
d="M105 653c0 7 6 13 13 13h280c114 0 183 -79 183 -178s-69 -178 -183 -178h-267v-305c0 -7 -6 -13 -13 -13s-13 6 -13 13v648zM402 643h-271v-310h271c92 0 153 67 153 155s-61 155 -153 155z" />
    <glyph glyph-name="Q" unicode="Q" horiz-adv-x="792" 
d="M628 -94l-74 122c-45 -25 -98 -40 -158 -40c-203 0 -330 168 -330 345s127 345 330 345s330 -168 330 -345c0 -117 -56 -229 -151 -293l73 -121c1 -2 2 -4 2 -7c0 -6 -5 -12 -12 -12c-6 0 -8 3 -10 6zM700 333c0 164 -116 321 -304 321s-304 -157 -304 -321
s116 -321 304 -321c55 0 104 13 146 37l-65 108c-1 2 -2 4 -2 6c0 7 6 12 13 12c5 0 7 -2 10 -6l64 -108c88 59 138 164 138 272z" />
    <glyph glyph-name="R" unicode="R" horiz-adv-x="688" 
d="M105 653c0 7 6 13 13 13h307c114 0 183 -77 183 -176c0 -93 -61 -166 -162 -175l148 -304c1 -2 2 -5 2 -7c0 -6 -5 -12 -11 -12c-7 0 -11 3 -14 9l-152 313h-288v-307c0 -7 -6 -13 -13 -13s-13 6 -13 13v646zM429 643h-298v-306h298c92 0 153 65 153 153
s-61 153 -153 153z" />
    <glyph glyph-name="S" unicode="S" horiz-adv-x="630" 
d="M541 603c6 -6 2 -18 -8 -18c-3 0 -6 1 -10 4c-59 44 -136 67 -210 67c-121 0 -210 -50 -210 -139c0 -94 83 -131 209 -169c185 -55 258 -98 258 -195c0 -101 -98 -165 -249 -165c-101 0 -197 44 -254 90c-6 4 -7 11 -3 16s12 6 18 1c63 -50 159 -85 239 -85
c130 0 223 55 223 144c0 88 -77 124 -230 169c-175 51 -237 103 -237 195c0 104 108 160 236 160c93 0 172 -27 228 -75z" />
    <glyph glyph-name="T" unicode="T" horiz-adv-x="584" 
d="M540 642h-235v-637c0 -7 -6 -13 -13 -13s-13 6 -13 13v637h-235c-7 0 -12 5 -12 12s5 12 12 12h496c7 0 12 -5 12 -12s-5 -12 -12 -12z" />
    <glyph glyph-name="U" unicode="U" horiz-adv-x="744" 
d="M126 255c0 -144 97 -244 246 -244s246 100 246 244v406c0 7 6 13 13 13s13 -6 13 -13v-400c0 -167 -111 -273 -272 -273s-272 106 -272 273v400c0 7 6 13 13 13s13 -6 13 -13v-406z" />
    <glyph glyph-name="V" unicode="V" horiz-adv-x="656" 
d="M328 32l283 635c3 5 6 7 12 7s11 -5 11 -12c0 -1 0 -4 -1 -6l-292 -655c-2 -4 -5 -9 -13 -9s-11 5 -13 9l-292 655c-1 2 -1 5 -1 6c0 7 5 12 11 12s9 -2 12 -7z" />
    <glyph glyph-name="W" unicode="W" horiz-adv-x="980" 
d="M503 663l211 -621l200 623c2 6 6 9 12 9c7 0 12 -5 12 -12c0 -1 -1 -4 -1 -4l-211 -657c-2 -5 -5 -9 -11 -9c-7 0 -10 4 -12 9l-213 626l-213 -626c-2 -5 -5 -9 -12 -9c-6 0 -9 4 -11 9l-211 657s-1 3 -1 4c0 7 5 12 12 12c6 0 10 -3 12 -9l200 -623l211 621
c2 7 7 11 13 11s11 -4 13 -11z" />
    <glyph glyph-name="X" unicode="X" horiz-adv-x="702" 
d="M351 315l-242 -318c-2 -3 -6 -5 -12 -5s-11 5 -11 12c0 2 1 5 3 8l248 323l-244 318c-2 3 -3 6 -3 9c0 6 6 11 12 11c5 0 8 -2 11 -6l238 -312l238 312c3 4 6 6 11 6c6 0 12 -5 12 -11c0 -3 -1 -6 -3 -9l-244 -318l248 -323c2 -3 3 -6 3 -8c0 -7 -5 -12 -11 -12
s-10 2 -12 5z" />
    <glyph glyph-name="Y" unicode="Y" horiz-adv-x="590" 
d="M56 667l239 -352l239 352c4 5 7 7 13 7s11 -5 11 -12c0 -2 -1 -5 -3 -8l-247 -362v-287c0 -7 -6 -13 -13 -13s-13 6 -13 13v287l-247 362c-2 3 -3 6 -3 8c0 7 5 12 11 12s9 -2 13 -7z" />
    <glyph glyph-name="Z" unicode="Z" horiz-adv-x="624" 
d="M99 0c-8 0 -14 4 -14 11c0 4 2 7 4 10l432 623h-409c-6 0 -11 5 -11 11s5 11 11 11h428c7 0 12 -5 12 -12c0 -4 -2 -8 -5 -12l-429 -620h433c6 0 11 -5 11 -11s-5 -11 -11 -11h-452z" />
    <glyph glyph-name="bracketleft" unicode="[" horiz-adv-x="298" 
d="M118 -149c-7 0 -13 6 -13 13v809c0 7 6 13 13 13h123c7 0 12 -5 12 -12s-5 -12 -12 -12h-110v-787h110c7 0 12 -5 12 -12s-5 -12 -12 -12h-123z" />
    <glyph glyph-name="backslash" unicode="\" horiz-adv-x="477" 
d="M363 -98l-276 803s-2 5 -2 8c0 7 5 12 12 12c6 0 10 -3 12 -9l276 -804c1 -3 2 -5 2 -7c0 -6 -4 -12 -13 -12c-6 0 -9 3 -11 9z" />
    <glyph glyph-name="bracketright" unicode="]" horiz-adv-x="298" 
d="M180 -149h-123c-7 0 -12 5 -12 12s5 12 12 12h110v787h-110c-7 0 -12 5 -12 12s5 12 12 12h123c7 0 13 -6 13 -13v-809c0 -7 -6 -13 -13 -13z" />
    <glyph glyph-name="asciicircum" unicode="^" horiz-adv-x="496" 
d="M260 665l159 -282c1 -2 2 -4 2 -6c0 -7 -5 -12 -12 -12c-6 0 -8 3 -10 6l-151 271l-151 -271c-2 -3 -4 -6 -10 -6c-7 0 -12 5 -12 12c0 2 1 4 2 6l159 282c3 5 6 9 12 9s9 -4 12 -9z" />
    <glyph glyph-name="underscore" unicode="_" horiz-adv-x="414" 
d="M415 -31h-416v18h416v-18z" />
    <glyph glyph-name="grave" unicode="`" horiz-adv-x="348" 
d="M208 522l-75 109c-1 2 -3 4 -3 9s5 10 11 10c5 0 8 -3 10 -6l74 -109c2 -3 3 -6 3 -8c0 -5 -4 -10 -11 -10c-4 0 -6 1 -9 5z" />
    <glyph glyph-name="a" unicode="a" horiz-adv-x="601" 
d="M58 217c0 127 97 229 229 229s229 -102 229 -229v-212c0 -7 -6 -13 -13 -13s-13 6 -13 13v106c-37 -74 -112 -123 -203 -123c-132 0 -229 102 -229 229zM84 217c0 -116 87 -205 203 -205s203 89 203 205s-87 205 -203 205s-203 -89 -203 -205z" />
    <glyph glyph-name="b" unicode="b" horiz-adv-x="606" 
d="M116 114v-109c0 -7 -6 -13 -13 -13s-13 6 -13 13v656c0 7 6 13 13 13s13 -6 13 -13v-341c40 79 112 126 203 126c128 0 229 -98 229 -229s-101 -229 -229 -229c-91 0 -163 47 -203 126zM522 217c0 119 -89 205 -203 205c-112 0 -203 -87 -203 -205s91 -205 203 -205
c114 0 203 86 203 205z" />
    <glyph glyph-name="c" unicode="c" horiz-adv-x="543" 
d="M485 331c0 -6 -5 -11 -12 -11c-6 0 -9 3 -12 7c-39 60 -99 95 -172 95c-119 0 -203 -93 -203 -205s84 -205 203 -205c73 0 133 35 172 95c3 4 6 7 12 7c7 0 12 -5 12 -11c0 -4 -2 -8 -4 -11c-40 -62 -110 -104 -192 -104c-134 0 -229 102 -229 229s95 229 229 229
c82 0 152 -42 192 -104c2 -3 4 -7 4 -11z" />
    <glyph glyph-name="d" unicode="d" horiz-adv-x="606" 
d="M490 5v109c-40 -79 -112 -126 -203 -126c-128 0 -229 98 -229 229s101 229 229 229c91 0 163 -47 203 -126v341c0 7 6 13 13 13s13 -6 13 -13v-656c0 -7 -6 -13 -13 -13s-13 6 -13 13zM84 217c0 -119 89 -205 203 -205c112 0 203 87 203 205s-91 205 -203 205
c-114 0 -203 -86 -203 -205z" />
    <glyph glyph-name="e" unicode="e" horiz-adv-x="553" 
d="M498 225c0 -8 -5 -12 -13 -12h-398c0 -111 87 -202 202 -202c71 0 133 35 172 96c3 5 6 6 10 6c7 0 13 -5 13 -12c0 -3 -1 -6 -3 -9c-40 -62 -108 -104 -192 -104c-135 0 -229 104 -229 229c0 129 94 229 221 229c124 0 217 -101 217 -221zM473 236
c-4 100 -86 188 -192 188s-187 -83 -193 -188h385z" />
    <glyph glyph-name="f" unicode="f" horiz-adv-x="301" 
d="M110 514c0 112 44 156 154 156h21c6 0 11 -5 11 -11s-5 -11 -11 -11h-23c-88 0 -126 -28 -126 -135v-79h143c6 0 11 -5 11 -11s-5 -11 -11 -11h-143v-407c0 -7 -6 -13 -13 -13s-13 6 -13 13v407h-69c-6 0 -11 5 -11 11s5 11 11 11h69v80z" />
    <glyph glyph-name="g" unicode="g" horiz-adv-x="606" 
d="M84 223c0 -119 91 -199 203 -199s203 81 203 199s-91 199 -203 199s-203 -80 -203 -199zM108 -155c-4 2 -11 6 -11 12s4 10 9 10c4 0 8 -1 12 -3c53 -26 105 -36 171 -36c145 0 201 92 201 206v88c-37 -74 -112 -122 -203 -122c-128 0 -229 92 -229 223s101 223 229 223
c91 0 168 -49 203 -122v105c0 7 6 13 13 13s13 -6 13 -13v-392c0 -131 -68 -232 -227 -232c-78 0 -136 16 -181 40z" />
    <glyph glyph-name="h" unicode="h" horiz-adv-x="577" 
d="M466 252c0 101 -62 169 -168 169c-96 0 -182 -74 -182 -174v-242c0 -7 -6 -13 -13 -13s-13 6 -13 13v656c0 7 6 13 13 13s13 -6 13 -13v-327c35 74 108 112 182 112c123 0 194 -82 194 -195v-246c0 -7 -6 -13 -13 -13s-13 6 -13 13v247z" />
    <glyph glyph-name="i" unicode="i" 
d="M90 429c0 7 6 13 13 13s13 -6 13 -13v-424c0 -7 -6 -13 -13 -13s-13 6 -13 13v424zM90 607c0 7 6 13 13 13s13 -6 13 -13v-69c0 -7 -6 -13 -13 -13s-13 6 -13 13v69z" />
    <glyph glyph-name="j" unicode="j" 
d="M90 429c0 7 6 13 13 13s13 -6 13 -13v-471c0 -100 -30 -153 -125 -153h-23c-6 0 -11 5 -11 11s5 11 11 11h22c82 0 100 42 100 130v472zM90 607c0 7 6 13 13 13s13 -6 13 -13v-69c0 -7 -6 -13 -13 -13s-13 6 -13 13v69z" />
    <glyph glyph-name="k" unicode="k" horiz-adv-x="477" 
d="M90 661c0 7 6 13 13 13s13 -6 13 -13v-448l280 225c4 3 7 4 10 4c7 0 12 -5 12 -12c0 -4 -2 -7 -7 -11l-200 -159l209 -246c4 -5 5 -8 5 -11c0 -5 -4 -11 -13 -11c-4 0 -7 2 -10 6l-210 247l-76 -62v-178c0 -7 -6 -13 -13 -13s-13 6 -13 13v656z" />
    <glyph glyph-name="l" unicode="l" 
d="M90 661c0 7 6 13 13 13s13 -6 13 -13v-656c0 -7 -6 -13 -13 -13s-13 6 -13 13v656z" />
    <glyph glyph-name="m" unicode="m" horiz-adv-x="937" 
d="M826 252c0 96 -52 169 -158 169c-94 0 -184 -75 -184 -172v-244c0 -7 -6 -13 -13 -13s-13 6 -13 13v247c0 96 -52 169 -158 169c-98 0 -184 -72 -184 -172v-244c0 -7 -6 -13 -13 -13s-13 6 -13 13v424c0 7 6 13 13 13s13 -6 13 -13v-95c32 71 110 112 184 112
c93 0 152 -53 174 -126c35 80 117 126 194 126c121 0 184 -84 184 -195v-246c0 -7 -6 -13 -13 -13s-13 6 -13 13v247z" />
    <glyph glyph-name="n" unicode="n" horiz-adv-x="572" 
d="M474 -8c-7 0 -13 6 -13 13v243c0 97 -73 173 -175 173s-175 -76 -175 -173v-243c0 -7 -6 -13 -13 -13s-13 6 -13 13v242c0 111 86 199 201 199s201 -88 201 -199v-242c0 -7 -6 -13 -13 -13z" />
    <glyph glyph-name="o" unicode="o" horiz-adv-x="578" 
d="M518 217c0 -127 -97 -229 -229 -229s-229 102 -229 229s97 229 229 229s229 -102 229 -229zM492 217c0 116 -87 205 -203 205s-203 -89 -203 -205s87 -205 203 -205s203 89 203 205z" />
    <glyph glyph-name="p" unicode="p" horiz-adv-x="606" 
d="M116 429v-109c40 79 112 126 203 126c128 0 229 -98 229 -229s-101 -229 -229 -229c-91 0 -163 47 -203 126v-296c0 -7 -6 -13 -13 -13s-13 6 -13 13v611c0 7 6 13 13 13s13 -6 13 -13zM522 217c0 119 -89 205 -203 205c-112 0 -203 -87 -203 -205s91 -205 203 -205
c114 0 203 86 203 205z" />
    <glyph glyph-name="q" unicode="q" horiz-adv-x="606" 
d="M490 320v109c0 7 6 13 13 13s13 -6 13 -13v-611c0 -7 -6 -13 -13 -13s-13 6 -13 13v296c-40 -79 -112 -126 -203 -126c-128 0 -229 98 -229 229s101 229 229 229c91 0 163 -47 203 -126zM84 217c0 -119 89 -205 203 -205c112 0 203 87 203 205s-91 205 -203 205
c-114 0 -203 -86 -203 -205z" />
    <glyph glyph-name="r" unicode="r" horiz-adv-x="323" 
d="M90 429c0 7 6 13 13 13s13 -6 13 -13v-99c26 65 103 112 181 112c6 0 10 -5 10 -11s-3 -11 -10 -11c-95 0 -181 -76 -181 -174v-241c0 -7 -6 -13 -13 -13s-13 6 -13 13v424z" />
    <glyph glyph-name="s" unicode="s" horiz-adv-x="457" 
d="M407 101c0 -66 -61 -113 -166 -113c-60 0 -133 26 -177 68c-2 2 -4 5 -4 8c0 7 5 12 12 12c4 0 7 -2 9 -4c43 -40 111 -62 160 -62c89 0 140 38 140 90c0 56 -44 84 -138 108c-113 29 -173 63 -173 129c0 73 70 109 168 109c48 0 100 -12 146 -40c5 -3 7 -6 7 -10
c0 -6 -4 -12 -12 -12c-2 0 -5 1 -8 3c-34 21 -89 37 -133 37c-81 0 -142 -24 -142 -86c0 -58 53 -80 145 -106c121 -34 166 -65 166 -131z" />
    <glyph glyph-name="t" unicode="t" horiz-adv-x="308" 
d="M302 423c0 -6 -5 -11 -11 -11h-124v-407c0 -7 -6 -13 -13 -13s-13 6 -13 13v407h-104c-6 0 -11 5 -11 11s5 11 11 11h104v149c0 7 6 13 13 13s13 -6 13 -13v-149h124c6 0 11 -5 11 -11z" />
    <glyph glyph-name="u" unicode="u" horiz-adv-x="572" 
d="M474 442c7 0 13 -6 13 -13v-242c0 -111 -86 -199 -201 -199s-201 88 -201 199v242c0 7 6 13 13 13s13 -6 13 -13v-243c0 -97 73 -173 175 -173s175 76 175 173v243c0 7 6 13 13 13z" />
    <glyph glyph-name="v" unicode="v" horiz-adv-x="456" 
d="M228 35l176 398c2 5 5 9 12 9c8 0 12 -5 12 -11c0 -3 -1 -5 -2 -8l-186 -423c-2 -5 -6 -8 -12 -8s-10 3 -12 8l-186 423c-1 3 -2 5 -2 8c0 6 4 11 12 11c7 0 10 -4 12 -9z" />
    <glyph glyph-name="w" unicode="w" horiz-adv-x="672" 
d="M348 433l136 -391l132 392c2 5 5 8 11 8c7 0 13 -4 13 -11c0 -3 -1 -6 -2 -9l-143 -421c-2 -6 -6 -9 -11 -9c-6 0 -10 3 -12 9l-136 388l-136 -388c-2 -6 -6 -9 -12 -9c-5 0 -9 3 -11 9l-143 421c-1 3 -2 6 -2 9c0 7 6 11 13 11c6 0 9 -3 11 -8l132 -392l136 391
c2 5 5 9 12 9s10 -4 12 -9z" />
    <glyph glyph-name="x" unicode="x" horiz-adv-x="468" 
d="M234 238l158 199c3 3 5 5 11 5c7 0 12 -5 12 -11c0 -4 -2 -6 -4 -9l-162 -204l164 -206c2 -3 3 -5 3 -9c0 -6 -5 -11 -12 -11c-6 0 -8 2 -11 6l-159 200l-159 -200c-3 -4 -5 -6 -11 -6c-7 0 -12 5 -12 11c0 4 1 6 3 9l164 206l-162 204c-2 3 -4 5 -4 9c0 6 5 11 12 11
c6 0 8 -2 11 -5z" />
    <glyph glyph-name="y" unicode="y" horiz-adv-x="456" 
d="M232 32l176 401c2 5 5 9 12 9c8 0 12 -5 12 -11c0 -3 -1 -5 -2 -8l-186 -423c-41 -93 -97 -164 -189 -193c-3 -1 -6 -2 -10 -2c-8 0 -12 6 -12 12c0 8 5 11 12 13c83 24 131 84 173 173l-184 420c-1 3 -2 5 -2 8c0 6 4 11 12 11c7 0 10 -4 12 -9z" />
    <glyph glyph-name="z" unicode="z" horiz-adv-x="470" 
d="M415 11c0 -6 -5 -11 -11 -11h-325c-6 0 -11 5 -11 11c0 4 2 6 4 9l305 392h-296c-6 0 -11 5 -11 11s5 11 11 11h321c7 0 11 -5 11 -10c0 -3 -1 -6 -3 -9l-307 -393h301c6 0 11 -5 11 -11z" />
    <glyph glyph-name="braceleft" unicode="{" horiz-adv-x="316" 
d="M179 167v-254c0 -30 10 -45 41 -45h44c7 0 12 -5 12 -12s-5 -12 -12 -12h-43c-52 0 -68 28 -68 74v251c0 58 -23 84 -85 84h-11c-7 0 -12 5 -12 12s5 12 12 12h11c62 0 85 26 85 84v251c0 46 16 74 68 74h43c7 0 12 -5 12 -12s-5 -12 -12 -12h-44c-31 0 -41 -15 -41 -45
v-254c0 -60 -24 -92 -78 -98c54 -6 78 -38 78 -98z" />
    <glyph glyph-name="bar" unicode="|" horiz-adv-x="284" 
d="M154 723v-909c0 -7 -5 -12 -12 -12s-12 5 -12 12v909c0 7 5 12 12 12s12 -5 12 -12z" />
    <glyph glyph-name="braceright" unicode="}" horiz-adv-x="316" 
d="M137 -87v254c0 60 24 92 78 98c-54 6 -78 38 -78 98v254c0 30 -10 45 -41 45h-44c-7 0 -12 5 -12 12s5 12 12 12h43c52 0 68 -28 68 -74v-251c0 -58 23 -84 85 -84h11c7 0 12 -5 12 -12s-5 -12 -12 -12h-11c-62 0 -85 -26 -85 -84v-251c0 -46 -16 -74 -68 -74h-43
c-7 0 -12 5 -12 12s5 12 12 12h44c31 0 41 15 41 45z" />
    <glyph glyph-name="asciitilde" unicode="~" horiz-adv-x="534" 
d="M484 293c0 -4 -2 -7 -5 -11c-27 -36 -66 -68 -117 -68c-67 0 -123 70 -185 70c-42 0 -64 -17 -99 -49c-1 -1 -4 -3 -8 -3c-5 0 -10 4 -10 9c0 4 2 7 4 9c37 37 70 56 114 56c68 0 123 -71 185 -71c49 0 74 25 105 63c2 2 4 3 7 3c5 0 9 -4 9 -8z" />
    <glyph glyph-name="nbspace" unicode="&#xa0;" horiz-adv-x="300" 
 />
    <glyph glyph-name="exclamdown" unicode="&#xa1;" horiz-adv-x="256" 
d="M105 423c0 13 10 23 23 23s23 -10 23 -23s-10 -23 -23 -23s-23 10 -23 23zM114 -182v255l4 218c0 7 4 11 9 11s9 -4 9 -11l4 -218v-255c0 -7 -6 -13 -13 -13s-13 6 -13 13z" />
    <glyph glyph-name="cent" unicode="&#xa2;" horiz-adv-x="600" 
d="M307 0v104c-128 6 -217 106 -217 229s89 223 217 229v104c0 7 5 12 12 12s12 -5 12 -12v-104c76 -4 142 -45 180 -104c2 -3 4 -7 4 -11c0 -6 -5 -11 -12 -11c-6 0 -9 3 -12 7c-39 60 -99 95 -172 95c-119 0 -203 -93 -203 -205s84 -205 203 -205c73 0 133 35 172 95
c3 4 6 7 12 7c7 0 12 -5 12 -11c0 -4 -2 -8 -4 -11c-38 -59 -104 -100 -180 -104v-104c0 -7 -5 -12 -12 -12s-12 5 -12 12z" />
    <glyph glyph-name="sterling" unicode="&#xa3;" horiz-adv-x="636" 
d="M544 0h-462c-7 0 -12 5 -12 12s5 12 12 12h174v304h-154c-7 0 -12 5 -12 12s5 12 12 12h154v118c0 131 62 208 191 208c42 0 80 -5 115 -19c5 -2 9 -5 9 -11c0 -7 -4 -11 -11 -11c-1 0 -6 1 -8 2c-36 12 -69 15 -103 15c-119 0 -168 -63 -168 -187v-115h243
c7 0 12 -5 12 -12s-5 -12 -12 -12h-242v-304h262c7 0 12 -5 12 -12s-5 -12 -12 -12z" />
    <glyph glyph-name="currency" unicode="&#xa4;" horiz-adv-x="697" 
d="M570 333c0 -60 -23 -114 -60 -154l84 -83c2 -2 3 -5 3 -8s-1 -6 -3 -8s-5 -3 -8 -3s-6 1 -9 4l-83 83c-38 -33 -89 -53 -146 -53c-58 0 -108 20 -146 53l-82 -83c-3 -3 -6 -4 -9 -4s-6 1 -8 3s-3 5 -3 8s1 6 3 8l83 82c-38 40 -60 95 -60 155c0 59 22 113 59 153l-82 82
c-2 2 -3 5 -3 8s1 6 3 8s5 3 8 3s6 -1 9 -4l81 -82c38 33 89 54 147 54s109 -21 147 -55l82 83c3 3 6 4 9 4s6 -1 8 -3s3 -5 3 -8s-1 -6 -3 -8l-83 -82c37 -40 59 -94 59 -153zM546 333c0 112 -86 200 -198 200s-198 -88 -198 -200s86 -200 198 -200s198 88 198 200z" />
    <glyph glyph-name="yen" unicode="&#xa5;" horiz-adv-x="606" 
d="M504 203h-188v-198c0 -7 -6 -13 -13 -13s-13 6 -13 13v198h-187c-7 0 -12 5 -12 12s5 12 12 12h187v65l-42 66h-145c-7 0 -12 5 -12 12s5 12 12 12h130l-170 272c-2 3 -3 6 -3 8c0 7 5 12 11 12c5 0 9 -1 13 -7l219 -352l219 352c5 7 9 7 13 7c6 0 11 -5 11 -12
c0 -2 -1 -5 -3 -8l-171 -272h132c7 0 12 -5 12 -12s-5 -12 -12 -12h-147l-41 -66v-65h188c7 0 12 -5 12 -12s-5 -12 -12 -12z" />
    <glyph glyph-name="brokenbar" unicode="&#xa6;" horiz-adv-x="284" 
d="M154 723v-379c0 -7 -5 -12 -12 -12s-12 5 -12 12v379c0 7 5 12 12 12s12 -5 12 -12zM154 193v-379c0 -7 -5 -12 -12 -12s-12 5 -12 12v379c0 7 5 12 12 12s12 -5 12 -12z" />
    <glyph glyph-name="section" unicode="&#xa7;" horiz-adv-x="600" 
d="M515 254c0 -57 -30 -98 -85 -131c46 -27 69 -56 69 -104c0 -73 -69 -129 -184 -129c-82 0 -163 33 -215 79c-3 3 -5 5 -5 9c0 8 5 12 12 12c4 0 8 -2 11 -5c53 -47 122 -73 198 -73c95 0 157 43 157 107c0 67 -62 94 -169 140c-128 55 -193 91 -193 166
c0 69 50 106 103 130c-45 29 -64 59 -64 103c0 79 74 120 189 120c54 0 106 -11 153 -37c6 -3 8 -7 8 -11c0 -7 -5 -12 -12 -12c-2 0 -6 1 -9 3c-39 22 -91 35 -140 35c-95 0 -163 -30 -163 -97c0 -73 62 -98 154 -138c133 -58 185 -91 185 -167zM326 399
c-36 15 -66 29 -90 43c-50 -22 -100 -52 -100 -116c0 -66 60 -97 161 -140c45 -20 82 -35 112 -51c50 27 81 67 81 117c0 67 -45 97 -164 147z" />
    <glyph glyph-name="dieresis" unicode="&#xa8;" horiz-adv-x="359" 
d="M80 562c0 14 11 25 25 25s25 -11 25 -25s-11 -25 -25 -25s-25 11 -25 25zM229 562c0 14 11 25 25 25s25 -11 25 -25s-11 -25 -25 -25s-25 11 -25 25z" />
    <glyph glyph-name="copyright" unicode="&#xa9;" horiz-adv-x="833" 
d="M763 333c0 -193 -143 -345 -346 -345s-347 152 -347 345s144 345 347 345s346 -152 346 -345zM739 333c0 181 -134 323 -322 323s-323 -142 -323 -323s135 -323 323 -323s322 142 322 323zM426 496c52 0 99 -24 127 -69c2 -3 3 -6 3 -9c0 -6 -5 -11 -12 -11
c-5 0 -9 2 -14 10c-16 25 -48 55 -104 55c-81 0 -134 -64 -134 -139s53 -139 134 -139c56 0 88 30 104 55c5 8 9 10 14 10c7 0 12 -5 12 -11c0 -3 -1 -6 -3 -9c-28 -45 -75 -69 -127 -69c-92 0 -159 72 -159 163s67 163 159 163z" />
    <glyph glyph-name="ordfeminine" unicode="&#xaa;" horiz-adv-x="429" 
d="M344 385c0 -6 -4 -10 -10 -10c-5 0 -10 4 -10 10v30c-20 -26 -62 -43 -112 -43c-69 0 -127 33 -127 87c0 57 54 88 127 88c44 0 88 -15 112 -43v50c0 72 -39 105 -109 105c-35 0 -65 -6 -94 -21c-2 -1 -6 -3 -10 -3c-6 0 -9 4 -9 9c0 3 2 6 6 8c27 16 66 26 108 26
c81 0 128 -46 128 -124v-169zM324 458c0 43 -51 72 -111 72c-66 0 -107 -27 -107 -71c0 -45 52 -70 105 -70c63 0 113 28 113 69z" />
    <glyph glyph-name="guillemotleft" unicode="&#xab;" horiz-adv-x="578" 
d="M263 380c0 -4 -2 -7 -4 -9l-161 -158l161 -158c2 -2 4 -5 4 -9c0 -7 -5 -11 -12 -11c-3 0 -7 2 -9 4l-169 166c-2 2 -3 5 -3 8s1 6 3 8l169 166c2 2 6 4 9 4c7 0 12 -4 12 -11zM493 380c0 -4 -2 -7 -4 -9l-161 -158l161 -158c2 -2 4 -5 4 -9c0 -7 -5 -11 -12 -11
c-3 0 -7 2 -9 4l-169 166c-2 2 -3 5 -3 8s1 6 3 8l169 166c2 2 6 4 9 4c7 0 12 -4 12 -11z" />
    <glyph glyph-name="logicalnot" unicode="&#xac;" horiz-adv-x="635" 
d="M513 309c7 0 12 -5 12 -12v-212c0 -7 -6 -13 -13 -13s-13 6 -13 13v200h-412c-7 0 -12 5 -12 12s5 12 12 12h426z" />
    <glyph glyph-name="registered" unicode="&#xae;" horiz-adv-x="432" 
d="M167 593c0 5 4 9 9 9h49c31 0 53 -18 53 -51c0 -23 -8 -40 -35 -50l37 -63c2 -5 1 -10 -4 -12s-10 0 -12 4l-39 69h-40v-65c0 -5 -4 -9 -9 -9s-9 4 -9 9v159zM225 586h-40v-71h40c26 0 35 17 35 36c0 20 -12 35 -35 35zM50 512c0 92 69 166 166 166s166 -74 166 -166
s-69 -166 -166 -166s-166 74 -166 166zM69 512c0 -81 58 -149 147 -149s147 68 147 149s-58 149 -147 149s-147 -68 -147 -149z" />
    <glyph glyph-name="macron" unicode="&#xaf;" horiz-adv-x="389" 
d="M319 561c0 -6 -5 -11 -11 -11h-227c-6 0 -11 5 -11 11s5 11 11 11h227c6 0 11 -5 11 -11z" />
    <glyph glyph-name="degree" unicode="&#xb0;" horiz-adv-x="312" 
d="M156 472c-63 0 -101 46 -101 103s38 103 101 103s101 -46 101 -103s-38 -103 -101 -103zM156 661c-49 0 -81 -37 -81 -86s32 -86 81 -86s81 37 81 86s-32 86 -81 86z" />
    <glyph glyph-name="plusminus" unicode="&#xb1;" horiz-adv-x="640" 
d="M107 24h426c7 0 12 -5 12 -12s-5 -12 -12 -12h-426c-7 0 -12 5 -12 12s5 12 12 12zM107 311c-7 0 -12 5 -12 12s5 12 12 12h200v200c0 7 6 13 13 13s13 -6 13 -13v-200h200c7 0 12 -5 12 -12s-5 -12 -12 -12h-200v-200c0 -7 -6 -13 -13 -13s-13 6 -13 13v200h-200z" />
    <glyph glyph-name="twosuperior" unicode="&#xb2;" horiz-adv-x="477" 
d="M392 276c0 -6 -5 -10 -11 -10h-270c-6 0 -11 4 -11 11c0 102 46 136 131 179c88 45 135 70 135 124c0 49 -40 79 -113 79c-51 0 -94 -19 -126 -43c-3 -2 -5 -3 -8 -3c-5 0 -9 4 -9 9c0 3 1 6 5 9c34 27 85 47 140 47c80 0 133 -36 133 -98s-47 -90 -140 -138
c-92 -47 -126 -78 -126 -157h259c6 0 11 -3 11 -9z" />
    <glyph glyph-name="threesuperior" unicode="&#xb3;" horiz-adv-x="456" 
d="M175 490c0 7 6 10 12 10h37c60 0 100 35 100 80c0 51 -37 78 -100 78c-34 0 -59 -6 -87 -24c-10 -6 -18 0 -18 7c0 3 2 6 6 9c29 20 68 28 99 28c73 0 122 -35 122 -98c0 -37 -25 -71 -72 -88c52 -7 97 -47 97 -109c0 -69 -55 -123 -149 -123c-58 0 -108 20 -142 49
c-4 3 -5 6 -5 9c0 8 11 15 20 6c31 -29 76 -44 127 -44c77 0 127 40 127 103c0 65 -51 97 -123 97h-39c-6 0 -12 3 -12 10z" />
    <glyph glyph-name="acute" unicode="&#xb4;" horiz-adv-x="348" 
d="M215 631l-75 -109c-3 -4 -5 -5 -9 -5c-7 0 -11 5 -11 10c0 2 1 5 3 8l74 109c2 3 5 6 10 6c6 0 11 -5 11 -10s-2 -7 -3 -9z" />
    <glyph glyph-name="mu" unicode="&#xb5;" horiz-adv-x="577" 
d="M111 429v-255c0 -97 64 -161 168 -161c96 0 182 74 182 174v242c0 7 6 13 13 13s13 -6 13 -13v-424c0 -7 -6 -13 -13 -13s-13 6 -13 13v95c-35 -74 -108 -112 -182 -112c-80 0 -137 34 -168 89v-259c0 -7 -6 -13 -13 -13s-13 6 -13 13v611c0 7 6 13 13 13s13 -6 13 -13z
" />
    <glyph glyph-name="paragraph" unicode="&#xb6;" horiz-adv-x="545" 
d="M267 -183v495h-14c-104 0 -183 71 -183 177s79 177 183 177h170c8 0 12 -5 12 -12v-650c0 -7 -5 -12 -12 -12s-12 5 -12 12v642h-120v-829c0 -7 -5 -12 -12 -12s-12 5 -12 12zM94 489c0 -95 68 -157 160 -157h13v314h-14c-91 0 -159 -62 -159 -157z" />
    <glyph glyph-name="periodcentered" unicode="&#xb7;" horiz-adv-x="226" 
d="M100 318c0 7 6 13 13 13s13 -6 13 -13v-55c0 -7 -6 -13 -13 -13s-13 6 -13 13v55z" />
    <glyph glyph-name="cedilla" unicode="&#xb8;" horiz-adv-x="317" 
d="M97 -159c20 -8 44 -14 67 -14c43 0 64 17 64 44c0 32 -28 45 -64 45c-16 0 -32 -2 -42 -4c0 0 -5 -1 -8 -1c-7 0 -11 4 -11 9c0 3 1 5 2 7l38 74h24l-35 -68c12 3 26 4 38 4c44 0 83 -19 83 -65c0 -39 -31 -67 -89 -67c-28 0 -54 6 -76 15c-5 2 -8 6 -8 11
c0 7 7 14 17 10z" />
    <glyph glyph-name="onesuperior" unicode="&#xb9;" horiz-adv-x="336" 
d="M194 275v375l-93 -29c-15 -5 -22 15 -7 20l95 29c6 2 13 4 15 4c8 0 12 -5 12 -11v-388c0 -6 -5 -11 -11 -11s-11 5 -11 11z" />
    <glyph glyph-name="ordmasculine" unicode="&#xba;" horiz-adv-x="437" 
d="M372 525c0 -86 -66 -153 -153 -153c-89 0 -154 67 -154 153c0 85 65 153 154 153c87 0 153 -68 153 -153zM351 525c0 76 -57 133 -132 133c-77 0 -133 -57 -133 -133c0 -77 56 -133 133 -133c75 0 132 56 132 133z" />
    <glyph glyph-name="guillemotright" unicode="&#xbb;" horiz-adv-x="578" 
d="M315 380c0 7 5 11 12 11c3 0 7 -2 9 -4l169 -166c2 -2 3 -5 3 -8s-1 -6 -3 -8l-169 -166c-2 -2 -6 -4 -9 -4c-7 0 -12 4 -12 11c0 4 2 7 4 9l161 158l-161 158c-2 2 -4 5 -4 9zM85 380c0 7 5 11 12 11c3 0 7 -2 9 -4l169 -166c2 -2 3 -5 3 -8s-1 -6 -3 -8l-169 -166
c-2 -2 -6 -4 -9 -4c-7 0 -12 4 -12 11c0 4 2 7 4 9l161 158l-161 158c-2 2 -4 5 -4 9z" />
    <glyph glyph-name="onequarter" unicode="&#xbc;" horiz-adv-x="871" 
d="M484 141h209v230zM715 7c0 -6 -5 -11 -11 -11s-11 5 -11 11v114h-232c-6 0 -10 4 -10 10c0 3 2 6 5 9l238 262c4 4 7 6 11 6c6 0 10 -4 10 -11v-256h70c6 0 11 -4 11 -10s-5 -10 -11 -10h-70v-114zM640 661l-441 -667c-3 -4 -6 -6 -10 -6c-6 0 -11 4 -11 10c0 2 1 5 3 8
l440 665c3 5 7 7 11 7c8 0 14 -8 8 -17zM199 275v375l-93 -29c-15 -5 -22 15 -7 20l95 29c6 2 13 4 15 4c8 0 12 -5 12 -11v-388c0 -6 -5 -11 -11 -11s-11 5 -11 11z" />
    <glyph glyph-name="onehalf" unicode="&#xbd;" horiz-adv-x="940" 
d="M855 10c0 -6 -5 -10 -11 -10h-270c-6 0 -11 4 -11 11c0 102 46 136 131 179c88 45 135 70 135 124c0 49 -40 79 -113 79c-51 0 -94 -19 -126 -43c-3 -2 -5 -3 -8 -3c-5 0 -9 4 -9 9c0 3 1 6 5 9c34 27 85 47 140 47c80 0 133 -36 133 -98s-47 -90 -140 -138
c-92 -47 -126 -78 -126 -157h259c6 0 11 -3 11 -9zM640 661l-441 -667c-3 -4 -6 -6 -10 -6c-6 0 -11 4 -11 10c0 2 1 5 3 8l440 665c3 5 7 7 11 7c8 0 14 -8 8 -17zM199 275v375l-93 -29c-15 -5 -22 15 -7 20l95 29c6 2 13 4 15 4c8 0 12 -5 12 -11v-388
c0 -6 -5 -11 -11 -11s-11 5 -11 11z" />
    <glyph glyph-name="threequarters" unicode="&#xbe;" horiz-adv-x="973" 
d="M586 141h209v230zM817 7c0 -6 -5 -11 -11 -11s-11 5 -11 11v114h-232c-6 0 -10 4 -10 10c0 3 2 6 5 9l238 262c4 4 7 6 11 6c6 0 10 -4 10 -11v-256h70c6 0 11 -4 11 -10s-5 -10 -11 -10h-70v-114zM175 490c0 7 6 10 12 10h37c60 0 100 35 100 80c0 51 -37 78 -100 78
c-34 0 -59 -6 -87 -24c-10 -6 -18 0 -18 7c0 3 2 6 6 9c29 20 68 28 99 28c73 0 122 -35 122 -98c0 -37 -25 -71 -72 -88c52 -7 97 -47 97 -109c0 -69 -55 -123 -149 -123c-58 0 -108 20 -142 49c-4 3 -5 6 -5 9c0 8 11 15 20 6c31 -29 76 -44 127 -44c77 0 127 40 127 103
c0 65 -51 97 -123 97h-39c-6 0 -12 3 -12 10zM742 661l-441 -667c-3 -4 -6 -6 -10 -6c-6 0 -11 4 -11 10c0 2 1 5 3 8l440 665c3 5 7 7 11 7c8 0 14 -8 8 -17z" />
    <glyph glyph-name="questiondown" unicode="&#xbf;" horiz-adv-x="488" 
d="M159 98c84 70 98 90 98 167v46c0 7 6 13 13 13s13 -6 13 -13v-43c0 -97 -28 -120 -107 -187c-64 -54 -90 -81 -90 -141c0 -83 64 -111 161 -111c62 0 120 17 176 55c3 2 6 3 9 3c5 0 11 -5 11 -11c0 -4 -1 -6 -6 -10c-52 -38 -120 -61 -192 -61c-112 0 -185 41 -185 134
c0 62 25 97 99 159zM293 423c0 -13 -10 -23 -23 -23s-23 10 -23 23s10 23 23 23s23 -10 23 -23z" />
    <glyph glyph-name="Agrave" unicode="&#xc0;" horiz-adv-x="714" 
d="M369 666l293 -654c1 -2 2 -4 2 -6c0 -8 -6 -14 -13 -14c-6 0 -10 3 -12 7l-98 220h-369l-97 -220c-2 -4 -6 -7 -12 -7c-7 0 -13 6 -13 14c0 2 1 4 2 6l293 654c3 6 7 8 12 8s9 -2 12 -8zM357 637l-174 -394h348zM345 743l-72 83c-2 2 -4 5 -4 9c0 5 5 10 10 10
s8 -1 11 -5l73 -85c2 -3 3 -4 3 -7c0 -5 -4 -10 -10 -10c-5 0 -8 2 -11 5z" />
    <glyph glyph-name="Aacute" unicode="&#xc1;" horiz-adv-x="714" 
d="M369 666l293 -654c1 -2 2 -4 2 -6c0 -8 -6 -14 -13 -14c-6 0 -10 3 -12 7l-98 220h-369l-97 -220c-2 -4 -6 -7 -12 -7c-7 0 -13 6 -13 14c0 2 1 4 2 6l293 654c3 6 7 8 12 8s9 -2 12 -8zM357 637l-174 -394h348zM433 826l-72 -83c-3 -3 -6 -5 -11 -5c-6 0 -10 5 -10 10
c0 3 1 4 3 7l73 85c3 4 6 5 11 5s10 -5 10 -10c0 -4 -2 -7 -4 -9z" />
    <glyph glyph-name="Acircumflex" unicode="&#xc2;" horiz-adv-x="714" 
d="M369 666l293 -654c1 -2 2 -4 2 -6c0 -8 -6 -14 -13 -14c-6 0 -10 3 -12 7l-98 220h-369l-97 -220c-2 -4 -6 -7 -12 -7c-7 0 -13 6 -13 14c0 2 1 4 2 6l293 654c3 6 7 8 12 8s9 -2 12 -8zM357 637l-174 -394h348zM369 838l92 -80c3 -3 5 -5 5 -9c0 -6 -6 -11 -11 -11
c-3 0 -5 1 -6 2l-93 81l-93 -81c-1 -1 -3 -2 -6 -2c-5 0 -11 5 -11 11c0 4 2 6 5 9l92 80c4 4 7 7 13 7s9 -4 13 -7z" />
    <glyph glyph-name="Atilde" unicode="&#xc3;" horiz-adv-x="714" 
d="M369 666l293 -654c1 -2 2 -4 2 -6c0 -8 -6 -14 -13 -14c-6 0 -10 3 -12 7l-98 220h-369l-97 -220c-2 -4 -6 -7 -12 -7c-7 0 -13 6 -13 14c0 2 1 4 2 6l293 654c3 6 7 8 12 8s9 -2 12 -8zM357 637l-174 -394h348zM479 811c5 0 10 -4 10 -9c0 -4 -2 -7 -4 -10
c-18 -22 -37 -45 -69 -45c-27 0 -41 10 -62 22s-30 22 -53 22c-24 0 -39 -17 -52 -35c-3 -4 -6 -6 -11 -6s-11 4 -11 9c0 4 1 6 3 9c18 23 39 45 70 45c28 0 42 -12 64 -25c21 -13 32 -19 51 -19c23 0 35 13 53 36c3 4 7 6 11 6z" />
    <glyph glyph-name="Adieresis" unicode="&#xc4;" horiz-adv-x="714" 
d="M369 666l293 -654c1 -2 2 -4 2 -6c0 -8 -6 -14 -13 -14c-6 0 -10 3 -12 7l-98 220h-369l-97 -220c-2 -4 -6 -7 -12 -7c-7 0 -13 6 -13 14c0 2 1 4 2 6l293 654c3 6 7 8 12 8s9 -2 12 -8zM357 637l-174 -394h348zM248 788c0 14 11 25 25 25s25 -11 25 -25s-11 -25 -25 -25
s-25 11 -25 25zM417 788c0 14 11 25 25 25s25 -11 25 -25s-11 -25 -25 -25s-25 11 -25 25z" />
    <glyph glyph-name="Aring" unicode="&#xc5;" horiz-adv-x="714" 
d="M422 720c0 -31 -20 -56 -49 -63l289 -645c1 -2 2 -4 2 -6c0 -8 -6 -14 -13 -14c-6 0 -10 3 -12 7l-98 220h-369l-97 -220c-2 -4 -6 -7 -12 -7c-7 0 -13 6 -13 14c0 2 1 4 2 6l289 645c-30 7 -49 32 -49 63c0 36 27 65 65 65s65 -29 65 -65zM357 637l-174 -394h348z
M401 720c0 27 -18 46 -44 46s-44 -19 -44 -46s18 -46 44 -46s44 19 44 46z" />
    <glyph glyph-name="AE" unicode="&#xc6;" horiz-adv-x="932" 
d="M357 666h501c7 0 12 -5 12 -12s-5 -12 -12 -12h-482l125 -276h231c7 0 12 -5 12 -12s-5 -12 -12 -12h-220l144 -318h216c7 0 12 -5 12 -12s-5 -12 -12 -12h-225c-6 0 -10 3 -12 7l-94 212h-369l-97 -220c-2 -4 -6 -7 -12 -7c-7 0 -13 6 -13 14c0 2 1 4 2 6l293 646
c3 6 7 8 12 8zM357 629l-174 -386h348z" />
    <glyph glyph-name="Ccedilla" unicode="&#xc7;" horiz-adv-x="730" 
d="M341 -159c20 -8 44 -14 67 -14c43 0 64 17 64 44c0 32 -28 45 -64 45c-16 0 -32 -2 -42 -4c0 0 -5 -1 -8 -1c-7 0 -11 4 -11 9c0 3 1 5 2 7l31 62c-189 8 -314 169 -314 344c0 179 131 345 329 345c123 0 219 -61 273 -147c1 -2 2 -4 2 -8c0 -6 -5 -12 -12 -12
c-4 0 -8 1 -11 6c-55 83 -139 137 -252 137c-186 0 -303 -158 -303 -321s117 -321 303 -321c113 0 197 54 252 137c3 5 7 6 11 6c7 0 12 -6 12 -12c0 -4 -1 -6 -2 -8c-53 -84 -145 -144 -264 -147l-28 -55c12 3 26 4 38 4c44 0 83 -19 83 -65c0 -39 -31 -67 -89 -67
c-28 0 -54 6 -76 15c-5 2 -8 6 -8 11c0 7 7 14 17 10z" />
    <glyph glyph-name="Egrave" unicode="&#xc8;" horiz-adv-x="588" 
d="M105 653c0 7 6 13 13 13h396c7 0 12 -5 12 -12s-5 -12 -12 -12h-383v-276h227c7 0 12 -5 12 -12s-5 -12 -12 -12h-227v-318h397c7 0 12 -5 12 -12s-5 -12 -12 -12h-410c-7 0 -13 6 -13 13v640zM314 743l-72 83c-2 2 -4 5 -4 9c0 5 5 10 10 10s8 -1 11 -5l73 -85
c2 -3 3 -4 3 -7c0 -5 -4 -10 -10 -10c-5 0 -8 2 -11 5z" />
    <glyph glyph-name="Eacute" unicode="&#xc9;" horiz-adv-x="588" 
d="M105 653c0 7 6 13 13 13h396c7 0 12 -5 12 -12s-5 -12 -12 -12h-383v-276h227c7 0 12 -5 12 -12s-5 -12 -12 -12h-227v-318h397c7 0 12 -5 12 -12s-5 -12 -12 -12h-410c-7 0 -13 6 -13 13v640zM378 826l-72 -83c-3 -3 -6 -5 -11 -5c-6 0 -10 5 -10 10c0 3 1 4 3 7l73 85
c3 4 6 5 11 5s10 -5 10 -10c0 -4 -2 -7 -4 -9z" />
    <glyph glyph-name="Ecircumflex" unicode="&#xca;" horiz-adv-x="588" 
d="M105 653c0 7 6 13 13 13h396c7 0 12 -5 12 -12s-5 -12 -12 -12h-383v-276h227c7 0 12 -5 12 -12s-5 -12 -12 -12h-227v-318h397c7 0 12 -5 12 -12s-5 -12 -12 -12h-410c-7 0 -13 6 -13 13v640zM329 838l92 -80c3 -3 5 -5 5 -9c0 -6 -6 -11 -11 -11c-3 0 -5 1 -6 2l-93 81
l-93 -81c-1 -1 -3 -2 -6 -2c-5 0 -11 5 -11 11c0 4 2 6 5 9l92 80c4 4 7 7 13 7s9 -4 13 -7z" />
    <glyph glyph-name="Edieresis" unicode="&#xcb;" horiz-adv-x="588" 
d="M105 653c0 7 6 13 13 13h396c7 0 12 -5 12 -12s-5 -12 -12 -12h-383v-276h227c7 0 12 -5 12 -12s-5 -12 -12 -12h-227v-318h397c7 0 12 -5 12 -12s-5 -12 -12 -12h-410c-7 0 -13 6 -13 13v640zM212 788c0 14 11 25 25 25s25 -11 25 -25s-11 -25 -25 -25s-25 11 -25 25z
M381 788c0 14 11 25 25 25s25 -11 25 -25s-11 -25 -25 -25s-25 11 -25 25z" />
    <glyph glyph-name="Igrave" unicode="&#xcc;" horiz-adv-x="246" 
d="M110 661c0 7 6 13 13 13s13 -6 13 -13v-656c0 -7 -6 -13 -13 -13s-13 6 -13 13v656zM122 743l-72 83c-2 2 -4 5 -4 9c0 5 5 10 10 10s8 -1 11 -5l73 -85c2 -3 3 -4 3 -7c0 -5 -4 -10 -10 -10c-5 0 -8 2 -11 5z" />
    <glyph glyph-name="Iacute" unicode="&#xcd;" horiz-adv-x="246" 
d="M110 661c0 7 6 13 13 13s13 -6 13 -13v-656c0 -7 -6 -13 -13 -13s-13 6 -13 13v656zM193 826l-72 -83c-3 -3 -6 -5 -11 -5c-6 0 -10 5 -10 10c0 3 1 4 3 7l73 85c3 4 6 5 11 5s10 -5 10 -10c0 -4 -2 -7 -4 -9z" />
    <glyph glyph-name="Icircumflex" unicode="&#xce;" horiz-adv-x="246" 
d="M110 661c0 7 6 13 13 13s13 -6 13 -13v-656c0 -7 -6 -13 -13 -13s-13 6 -13 13v656zM136 838l92 -80c3 -3 5 -5 5 -9c0 -6 -6 -11 -11 -11c-3 0 -5 1 -6 2l-93 81l-93 -81c-1 -1 -3 -2 -6 -2c-5 0 -11 5 -11 11c0 4 2 6 5 9l92 80c4 4 7 7 13 7s9 -4 13 -7z" />
    <glyph glyph-name="Idieresis" unicode="&#xcf;" horiz-adv-x="246" 
d="M110 661c0 7 6 13 13 13s13 -6 13 -13v-656c0 -7 -6 -13 -13 -13s-13 6 -13 13v656zM14 788c0 14 11 25 25 25s25 -11 25 -25s-11 -25 -25 -25s-25 11 -25 25zM183 788c0 14 11 25 25 25s25 -11 25 -25s-11 -25 -25 -25s-25 11 -25 25z" />
    <glyph glyph-name="Eth" unicode="&#xd0;" horiz-adv-x="759" 
d="M157 653c0 7 6 13 13 13h212c198 0 317 -154 317 -333s-119 -333 -317 -333h-212c-7 0 -13 6 -13 13v308h-90c-7 0 -12 5 -12 12s5 12 12 12h90v308zM348 321h-165v-297h194c193 0 296 146 296 309s-103 309 -296 309h-194v-297h165c7 0 12 -5 12 -12s-5 -12 -12 -12z
" />
    <glyph glyph-name="Ntilde" unicode="&#xd1;" horiz-adv-x="728" 
d="M597 661c0 7 6 13 13 13s13 -6 13 -13v-656c0 -7 -5 -13 -14 -13c-5 0 -9 4 -12 8l-466 625v-620c0 -7 -6 -13 -13 -13s-13 6 -13 13v656c0 8 6 13 13 13c6 0 10 -4 13 -8l466 -626v621zM491 811c5 0 10 -4 10 -9c0 -4 -2 -7 -4 -10c-18 -22 -37 -45 -69 -45
c-27 0 -41 10 -62 22s-30 22 -53 22c-24 0 -39 -17 -52 -35c-3 -4 -6 -6 -11 -6s-11 4 -11 9c0 4 1 6 3 9c18 23 39 45 70 45c28 0 42 -12 64 -25c21 -13 32 -19 51 -19c23 0 35 13 53 36c3 4 7 6 11 6z" />
    <glyph glyph-name="Ograve" unicode="&#xd2;" horiz-adv-x="792" 
d="M726 333c0 -177 -127 -345 -330 -345s-330 168 -330 345s127 345 330 345s330 -168 330 -345zM700 333c0 164 -116 321 -304 321s-304 -157 -304 -321s116 -321 304 -321s304 157 304 321zM392 743l-72 83c-2 2 -4 5 -4 9c0 5 5 10 10 10s8 -1 11 -5l73 -85
c2 -3 3 -4 3 -7c0 -5 -4 -10 -10 -10c-5 0 -8 2 -11 5z" />
    <glyph glyph-name="Oacute" unicode="&#xd3;" horiz-adv-x="792" 
d="M726 333c0 -177 -127 -345 -330 -345s-330 168 -330 345s127 345 330 345s330 -168 330 -345zM700 333c0 164 -116 321 -304 321s-304 -157 -304 -321s116 -321 304 -321s304 157 304 321zM455 826l-72 -83c-3 -3 -6 -5 -11 -5c-6 0 -10 5 -10 10c0 3 1 4 3 7l73 85
c3 4 6 5 11 5s10 -5 10 -10c0 -4 -2 -7 -4 -9z" />
    <glyph glyph-name="Ocircumflex" unicode="&#xd4;" horiz-adv-x="792" 
d="M726 333c0 -177 -127 -345 -330 -345s-330 168 -330 345s127 345 330 345s330 -168 330 -345zM700 333c0 164 -116 321 -304 321s-304 -157 -304 -321s116 -321 304 -321s304 157 304 321zM409 838l92 -80c3 -3 5 -5 5 -9c0 -6 -6 -11 -11 -11c-3 0 -5 1 -6 2l-93 81
l-93 -81c-1 -1 -3 -2 -6 -2c-5 0 -11 5 -11 11c0 4 2 6 5 9l92 80c4 4 7 7 13 7s9 -4 13 -7z" />
    <glyph glyph-name="Otilde" unicode="&#xd5;" horiz-adv-x="792" 
d="M726 333c0 -177 -127 -345 -330 -345s-330 168 -330 345s127 345 330 345s330 -168 330 -345zM700 333c0 164 -116 321 -304 321s-304 -157 -304 -321s116 -321 304 -321s304 157 304 321zM522 811c5 0 10 -4 10 -9c0 -4 -2 -7 -4 -10c-18 -22 -37 -45 -69 -45
c-27 0 -41 10 -62 22s-30 22 -53 22c-24 0 -39 -17 -52 -35c-3 -4 -6 -6 -11 -6s-11 4 -11 9c0 4 1 6 3 9c18 23 39 45 70 45c28 0 42 -12 64 -25c21 -13 32 -19 51 -19c23 0 35 13 53 36c3 4 7 6 11 6z" />
    <glyph glyph-name="Odieresis" unicode="&#xd6;" horiz-adv-x="792" 
d="M726 333c0 -177 -127 -345 -330 -345s-330 168 -330 345s127 345 330 345s330 -168 330 -345zM700 333c0 164 -116 321 -304 321s-304 -157 -304 -321s116 -321 304 -321s304 157 304 321zM287 788c0 14 11 25 25 25s25 -11 25 -25s-11 -25 -25 -25s-25 11 -25 25z
M456 788c0 14 11 25 25 25s25 -11 25 -25s-11 -25 -25 -25s-25 11 -25 25z" />
    <glyph glyph-name="multiply" unicode="&#xd7;" horiz-adv-x="536" 
d="M427 182c5 -5 5 -13 0 -18s-13 -5 -18 0l-141 141l-141 -141c-5 -5 -13 -5 -18 0s-5 13 0 18l141 141l-141 141c-5 5 -5 13 0 18s13 5 18 0l141 -141l141 141c5 5 13 5 18 0s5 -13 0 -18l-141 -141z" />
    <glyph glyph-name="Oslash" unicode="&#xd8;" horiz-adv-x="792" 
d="M716 728c6 0 10 -5 10 -10c0 -3 -1 -5 -3 -8l-102 -122c67 -66 105 -159 105 -255c0 -177 -127 -345 -330 -345c-85 0 -156 29 -210 75l-100 -120c-3 -4 -6 -5 -10 -5c-5 0 -10 5 -10 10c0 3 1 5 3 8l101 122c-67 65 -104 159 -104 255c0 177 127 345 330 345
c84 0 155 -30 210 -76l101 122c3 3 6 4 9 4zM92 333c0 -89 34 -175 94 -236l404 486c-50 43 -116 71 -194 71c-188 0 -304 -157 -304 -321zM700 333c0 88 -34 175 -95 236l-403 -487c50 -43 116 -70 194 -70c188 0 304 157 304 321z" />
    <glyph glyph-name="Ugrave" unicode="&#xd9;" horiz-adv-x="744" 
d="M126 255c0 -144 97 -244 246 -244s246 100 246 244v406c0 7 6 13 13 13s13 -6 13 -13v-400c0 -167 -111 -273 -272 -273s-272 106 -272 273v400c0 7 6 13 13 13s13 -6 13 -13v-406zM380 743l-72 83c-2 2 -4 5 -4 9c0 5 5 10 10 10s8 -1 11 -5l73 -85c2 -3 3 -4 3 -7
c0 -5 -4 -10 -10 -10c-5 0 -8 2 -11 5z" />
    <glyph glyph-name="Uacute" unicode="&#xda;" horiz-adv-x="744" 
d="M126 255c0 -144 97 -244 246 -244s246 100 246 244v406c0 7 6 13 13 13s13 -6 13 -13v-400c0 -167 -111 -273 -272 -273s-272 106 -272 273v400c0 7 6 13 13 13s13 -6 13 -13v-406zM444 826l-72 -83c-3 -3 -6 -5 -11 -5c-6 0 -10 5 -10 10c0 3 1 4 3 7l73 85
c3 4 6 5 11 5s10 -5 10 -10c0 -4 -2 -7 -4 -9z" />
    <glyph glyph-name="Ucircumflex" unicode="&#xdb;" horiz-adv-x="744" 
d="M126 255c0 -144 97 -244 246 -244s246 100 246 244v406c0 7 6 13 13 13s13 -6 13 -13v-400c0 -167 -111 -273 -272 -273s-272 106 -272 273v400c0 7 6 13 13 13s13 -6 13 -13v-406zM386 838l92 -80c3 -3 5 -5 5 -9c0 -6 -6 -11 -11 -11c-3 0 -5 1 -6 2l-93 81l-93 -81
c-1 -1 -3 -2 -6 -2c-5 0 -11 5 -11 11c0 4 2 6 5 9l92 80c4 4 7 7 13 7s9 -4 13 -7z" />
    <glyph glyph-name="Udieresis" unicode="&#xdc;" horiz-adv-x="744" 
d="M126 255c0 -144 97 -244 246 -244s246 100 246 244v406c0 7 6 13 13 13s13 -6 13 -13v-400c0 -167 -111 -273 -272 -273s-272 106 -272 273v400c0 7 6 13 13 13s13 -6 13 -13v-406zM263 788c0 14 11 25 25 25s25 -11 25 -25s-11 -25 -25 -25s-25 11 -25 25zM432 788
c0 14 11 25 25 25s25 -11 25 -25s-11 -25 -25 -25s-25 11 -25 25z" />
    <glyph glyph-name="Yacute" unicode="&#xdd;" horiz-adv-x="590" 
d="M56 667l239 -352l239 352c4 5 7 7 13 7s11 -5 11 -12c0 -2 -1 -5 -3 -8l-247 -362v-287c0 -7 -6 -13 -13 -13s-13 6 -13 13v287l-247 362c-2 3 -3 6 -3 8c0 7 5 12 11 12s9 -2 13 -7zM369 826l-72 -83c-3 -3 -6 -5 -11 -5c-6 0 -10 5 -10 10c0 3 1 4 3 7l73 85
c3 4 6 5 11 5s10 -5 10 -10c0 -4 -2 -7 -4 -9z" />
    <glyph glyph-name="Thorn" unicode="&#xde;" horiz-adv-x="621" 
d="M105 661c0 7 6 13 13 13s13 -6 13 -13v-137h267c114 0 183 -79 183 -178s-69 -178 -183 -178h-267v-163c0 -7 -6 -13 -13 -13s-13 6 -13 13v656zM402 501h-271v-310h271c92 0 153 67 153 155s-61 155 -153 155z" />
    <glyph glyph-name="germandbls" unicode="&#xdf;" horiz-adv-x="616" 
d="M369 425c36 42 60 70 60 114c0 83 -67 116 -155 116c-113 0 -158 -66 -158 -164v-486c0 -7 -6 -13 -13 -13s-13 6 -13 13v486c0 115 60 187 184 187c109 0 181 -48 181 -139c0 -48 -27 -82 -64 -126c-44 -52 -61 -66 -61 -102c0 -41 28 -61 97 -87
c109 -41 144 -67 144 -132c0 -60 -55 -104 -150 -104c-52 0 -111 19 -152 53c-2 2 -4 4 -4 8c0 8 6 12 11 12c4 0 7 -2 10 -4c35 -27 84 -47 136 -47c79 0 123 34 123 82c0 54 -29 74 -117 108c-80 31 -124 52 -124 112c0 41 22 64 65 113z" />
    <glyph glyph-name="agrave" unicode="&#xe0;" horiz-adv-x="601" 
d="M58 217c0 127 97 229 229 229s229 -102 229 -229v-212c0 -7 -6 -13 -13 -13s-13 6 -13 13v106c-37 -74 -112 -123 -203 -123c-132 0 -229 102 -229 229zM84 217c0 -116 87 -205 203 -205s203 89 203 205s-87 205 -203 205s-203 -89 -203 -205zM298 522l-75 109
c-1 2 -3 4 -3 9s5 10 11 10c5 0 8 -3 10 -6l74 -109c2 -3 3 -6 3 -8c0 -5 -4 -10 -11 -10c-4 0 -6 1 -9 5z" />
    <glyph glyph-name="aacute" unicode="&#xe1;" horiz-adv-x="601" 
d="M58 217c0 127 97 229 229 229s229 -102 229 -229v-212c0 -7 -6 -13 -13 -13s-13 6 -13 13v106c-37 -74 -112 -123 -203 -123c-132 0 -229 102 -229 229zM84 217c0 -116 87 -205 203 -205s203 89 203 205s-87 205 -203 205s-203 -89 -203 -205zM367 631l-75 -109
c-3 -4 -5 -5 -9 -5c-7 0 -11 5 -11 10c0 2 1 5 3 8l74 109c2 3 5 6 10 6c6 0 11 -5 11 -10s-2 -7 -3 -9z" />
    <glyph glyph-name="acircumflex" unicode="&#xe2;" horiz-adv-x="601" 
d="M58 217c0 127 97 229 229 229s229 -102 229 -229v-212c0 -7 -6 -13 -13 -13s-13 6 -13 13v106c-37 -74 -112 -123 -203 -123c-132 0 -229 102 -229 229zM84 217c0 -116 87 -205 203 -205s203 89 203 205s-87 205 -203 205s-203 -89 -203 -205zM310 623l92 -87
c3 -3 5 -5 5 -9c0 -6 -6 -11 -11 -11c-3 0 -5 1 -6 2l-93 88l-93 -88c-1 -1 -3 -2 -6 -2c-5 0 -11 5 -11 11c0 4 2 6 5 9l92 87c5 5 8 7 13 7s8 -2 13 -7z" />
    <glyph glyph-name="atilde" unicode="&#xe3;" horiz-adv-x="601" 
d="M58 217c0 127 97 229 229 229s229 -102 229 -229v-212c0 -7 -6 -13 -13 -13s-13 6 -13 13v106c-37 -74 -112 -123 -203 -123c-132 0 -229 102 -229 229zM84 217c0 -116 87 -205 203 -205s203 89 203 205s-87 205 -203 205s-203 -89 -203 -205zM422 591c5 0 10 -4 10 -9
c0 -4 -2 -7 -4 -10c-18 -22 -37 -45 -69 -45c-27 0 -41 10 -62 22s-30 22 -53 22c-24 0 -39 -17 -52 -35c-3 -4 -6 -6 -11 -6s-11 4 -11 9c0 4 1 6 3 9c18 23 39 45 70 45c28 0 42 -12 64 -25c21 -13 32 -19 51 -19c23 0 35 13 53 36c3 4 7 6 11 6z" />
    <glyph glyph-name="adieresis" unicode="&#xe4;" horiz-adv-x="601" 
d="M58 217c0 127 97 229 229 229s229 -102 229 -229v-212c0 -7 -6 -13 -13 -13s-13 6 -13 13v106c-37 -74 -112 -123 -203 -123c-132 0 -229 102 -229 229zM84 217c0 -116 87 -205 203 -205s203 89 203 205s-87 205 -203 205s-203 -89 -203 -205zM195 562c0 14 11 25 25 25
s25 -11 25 -25s-11 -25 -25 -25s-25 11 -25 25zM344 562c0 14 11 25 25 25s25 -11 25 -25s-11 -25 -25 -25s-25 11 -25 25z" />
    <glyph glyph-name="aring" unicode="&#xe5;" horiz-adv-x="601" 
d="M58 217c0 127 97 229 229 229s229 -102 229 -229v-212c0 -7 -6 -13 -13 -13s-13 6 -13 13v106c-37 -74 -112 -123 -203 -123c-132 0 -229 102 -229 229zM84 217c0 -116 87 -205 203 -205s203 89 203 205s-87 205 -203 205s-203 -89 -203 -205zM359 569
c0 -36 -27 -65 -65 -65s-65 29 -65 65s27 65 65 65s65 -29 65 -65zM338 569c0 27 -18 46 -44 46s-44 -19 -44 -46s18 -46 44 -46s44 19 44 46z" />
    <glyph glyph-name="ae" unicode="&#xe6;" horiz-adv-x="930" 
d="M875 225c0 -8 -5 -12 -13 -12h-398c0 -111 87 -202 202 -202c71 0 133 35 172 96c3 5 6 6 10 6c7 0 13 -5 13 -12c0 -3 -1 -6 -3 -9c-40 -62 -108 -104 -192 -104c-95 0 -171 55 -207 128c-2 -76 -79 -128 -193 -128c-101 0 -191 48 -191 130s81 129 191 129
c72 0 141 -27 171 -69v81c0 110 -59 164 -168 164c-57 0 -101 -10 -145 -32c-4 -2 -8 -4 -12 -4c-8 0 -12 6 -12 12c0 4 3 7 8 10c42 24 102 37 162 37c101 0 169 -48 186 -137c32 81 110 137 202 137c124 0 217 -101 217 -221zM437 117c0 66 -79 109 -170 109
c-102 0 -166 -40 -166 -108c0 -72 81 -109 164 -109c95 0 172 41 172 108zM850 236c-4 100 -86 188 -192 188s-187 -83 -193 -188h385z" />
    <glyph glyph-name="ccedilla" unicode="&#xe7;" horiz-adv-x="543" 
d="M236 -159c20 -8 44 -14 67 -14c43 0 64 17 64 44c0 32 -28 45 -64 45c-16 0 -32 -2 -42 -4c0 0 -5 -1 -8 -1c-7 0 -11 4 -11 9c0 3 1 5 2 7l31 62c-127 6 -215 105 -215 228c0 127 95 229 229 229c82 0 152 -42 192 -104c2 -3 4 -7 4 -11c0 -6 -5 -11 -12 -11
c-6 0 -9 3 -12 7c-39 60 -99 95 -172 95c-119 0 -203 -93 -203 -205s84 -205 203 -205c73 0 133 35 172 95c3 4 6 7 12 7c7 0 12 -5 12 -11c0 -4 -2 -8 -4 -11c-39 -60 -104 -100 -182 -104l-28 -55c12 3 26 4 38 4c44 0 83 -19 83 -65c0 -39 -31 -67 -89 -67
c-28 0 -54 6 -76 15c-5 2 -8 6 -8 11c0 7 7 14 17 10z" />
    <glyph glyph-name="egrave" unicode="&#xe8;" horiz-adv-x="553" 
d="M498 225c0 -8 -5 -12 -13 -12h-398c0 -111 87 -202 202 -202c71 0 133 35 172 96c3 5 6 6 10 6c7 0 13 -5 13 -12c0 -3 -1 -6 -3 -9c-40 -62 -108 -104 -192 -104c-135 0 -229 104 -229 229c0 129 94 229 221 229c124 0 217 -101 217 -221zM473 236
c-4 100 -86 188 -192 188s-187 -83 -193 -188h385zM296 522l-75 109c-1 2 -3 4 -3 9s5 10 11 10c5 0 8 -3 10 -6l74 -109c2 -3 3 -6 3 -8c0 -5 -4 -10 -11 -10c-4 0 -6 1 -9 5z" />
    <glyph glyph-name="eacute" unicode="&#xe9;" horiz-adv-x="553" 
d="M498 225c0 -8 -5 -12 -13 -12h-398c0 -111 87 -202 202 -202c71 0 133 35 172 96c3 5 6 6 10 6c7 0 13 -5 13 -12c0 -3 -1 -6 -3 -9c-40 -62 -108 -104 -192 -104c-135 0 -229 104 -229 229c0 129 94 229 221 229c124 0 217 -101 217 -221zM473 236
c-4 100 -86 188 -192 188s-187 -83 -193 -188h385zM334 631l-75 -109c-3 -4 -5 -5 -9 -5c-7 0 -11 5 -11 10c0 2 1 5 3 8l74 109c2 3 5 6 10 6c6 0 11 -5 11 -10s-2 -7 -3 -9z" />
    <glyph glyph-name="ecircumflex" unicode="&#xea;" horiz-adv-x="553" 
d="M498 225c0 -8 -5 -12 -13 -12h-398c0 -111 87 -202 202 -202c71 0 133 35 172 96c3 5 6 6 10 6c7 0 13 -5 13 -12c0 -3 -1 -6 -3 -9c-40 -62 -108 -104 -192 -104c-135 0 -229 104 -229 229c0 129 94 229 221 229c124 0 217 -101 217 -221zM473 236
c-4 100 -86 188 -192 188s-187 -83 -193 -188h385zM297 623l92 -87c3 -3 5 -5 5 -9c0 -6 -6 -11 -11 -11c-3 0 -5 1 -6 2l-93 88l-93 -88c-1 -1 -3 -2 -6 -2c-5 0 -11 5 -11 11c0 4 2 6 5 9l92 87c5 5 8 7 13 7s8 -2 13 -7z" />
    <glyph glyph-name="edieresis" unicode="&#xeb;" horiz-adv-x="553" 
d="M498 225c0 -8 -5 -12 -13 -12h-398c0 -111 87 -202 202 -202c71 0 133 35 172 96c3 5 6 6 10 6c7 0 13 -5 13 -12c0 -3 -1 -6 -3 -9c-40 -62 -108 -104 -192 -104c-135 0 -229 104 -229 229c0 129 94 229 221 229c124 0 217 -101 217 -221zM473 236
c-4 100 -86 188 -192 188s-187 -83 -193 -188h385zM183 562c0 14 11 25 25 25s25 -11 25 -25s-11 -25 -25 -25s-25 11 -25 25zM332 562c0 14 11 25 25 25s25 -11 25 -25s-11 -25 -25 -25s-25 11 -25 25z" />
    <glyph glyph-name="igrave" unicode="&#xec;" 
d="M90 429c0 7 6 13 13 13s13 -6 13 -13v-424c0 -7 -6 -13 -13 -13s-13 6 -13 13v424zM99 522l-75 109c-1 2 -3 4 -3 9s5 10 11 10c5 0 8 -3 10 -6l74 -109c2 -3 3 -6 3 -8c0 -5 -4 -10 -11 -10c-4 0 -6 1 -9 5z" />
    <glyph glyph-name="iacute" unicode="&#xed;" 
d="M90 429c0 7 6 13 13 13s13 -6 13 -13v-424c0 -7 -6 -13 -13 -13s-13 6 -13 13v424zM177 631l-75 -109c-3 -4 -5 -5 -9 -5c-7 0 -11 5 -11 10c0 2 1 5 3 8l74 109c2 3 5 6 10 6c6 0 11 -5 11 -10s-2 -7 -3 -9z" />
    <glyph glyph-name="icircumflex" unicode="&#xee;" 
d="M90 429c0 7 6 13 13 13s13 -6 13 -13v-424c0 -7 -6 -13 -13 -13s-13 6 -13 13v424zM116 623l92 -87c3 -3 5 -5 5 -9c0 -6 -6 -11 -11 -11c-3 0 -5 1 -6 2l-93 88l-93 -88c-1 -1 -3 -2 -6 -2c-5 0 -11 5 -11 11c0 4 2 6 5 9l92 87c5 5 8 7 13 7s8 -2 13 -7z" />
    <glyph glyph-name="idieresis" unicode="&#xef;" 
d="M90 429c0 7 6 13 13 13s13 -6 13 -13v-424c0 -7 -6 -13 -13 -13s-13 6 -13 13v424zM4 562c0 14 11 25 25 25s25 -11 25 -25s-11 -25 -25 -25s-25 11 -25 25zM153 562c0 14 11 25 25 25s25 -11 25 -25s-11 -25 -25 -25s-25 11 -25 25z" />
    <glyph glyph-name="eth" unicode="&#xf0;" horiz-adv-x="555" 
d="M341 560l-77 -64c-2 -2 -5 -4 -9 -4c-5 0 -10 5 -10 10c0 4 2 6 5 9l77 63c-37 36 -81 64 -129 85c-4 2 -7 5 -7 9c0 5 4 10 9 10c6 0 10 -2 14 -4c47 -20 92 -47 131 -86l58 48c4 3 7 4 10 4s8 -2 9 -8c0 -5 -1 -7 -7 -12l-56 -46c83 -83 134 -198 134 -361
c0 -126 -81 -225 -215 -225c-118 0 -213 91 -213 212c0 124 93 211 211 211c85 0 154 -43 188 -116c-11 112 -65 210 -123 265zM91 200c0 -110 82 -189 187 -189c114 0 188 80 188 189c0 108 -86 188 -190 188c-105 0 -185 -77 -185 -188z" />
    <glyph glyph-name="ntilde" unicode="&#xf1;" horiz-adv-x="572" 
d="M474 -8c-7 0 -13 6 -13 13v243c0 97 -73 173 -175 173s-175 -76 -175 -173v-243c0 -7 -6 -13 -13 -13s-13 6 -13 13v242c0 111 86 199 201 199s201 -88 201 -199v-242c0 -7 -6 -13 -13 -13zM412 591c5 0 10 -4 10 -9c0 -4 -2 -7 -4 -10c-18 -22 -37 -45 -69 -45
c-27 0 -41 10 -62 22s-30 22 -53 22c-24 0 -39 -17 -52 -35c-3 -4 -6 -6 -11 -6s-11 4 -11 9c0 4 1 6 3 9c18 23 39 45 70 45c28 0 42 -12 64 -25c21 -13 32 -19 51 -19c23 0 35 13 53 36c3 4 7 6 11 6z" />
    <glyph glyph-name="ograve" unicode="&#xf2;" horiz-adv-x="578" 
d="M518 217c0 -127 -97 -229 -229 -229s-229 102 -229 229s97 229 229 229s229 -102 229 -229zM492 217c0 116 -87 205 -203 205s-203 -89 -203 -205s87 -205 203 -205s203 89 203 205zM296 522l-75 109c-1 2 -3 4 -3 9s5 10 11 10c5 0 8 -3 10 -6l74 -109c2 -3 3 -6 3 -8
c0 -5 -4 -10 -11 -10c-4 0 -6 1 -9 5z" />
    <glyph glyph-name="oacute" unicode="&#xf3;" horiz-adv-x="578" 
d="M518 217c0 -127 -97 -229 -229 -229s-229 102 -229 229s97 229 229 229s229 -102 229 -229zM492 217c0 116 -87 205 -203 205s-203 -89 -203 -205s87 -205 203 -205s203 89 203 205zM352 631l-75 -109c-3 -4 -5 -5 -9 -5c-7 0 -11 5 -11 10c0 2 1 5 3 8l74 109
c2 3 5 6 10 6c6 0 11 -5 11 -10s-2 -7 -3 -9z" />
    <glyph glyph-name="ocircumflex" unicode="&#xf4;" horiz-adv-x="578" 
d="M518 217c0 -127 -97 -229 -229 -229s-229 102 -229 229s97 229 229 229s229 -102 229 -229zM492 217c0 116 -87 205 -203 205s-203 -89 -203 -205s87 -205 203 -205s203 89 203 205zM302 623l92 -87c3 -3 5 -5 5 -9c0 -6 -6 -11 -11 -11c-3 0 -5 1 -6 2l-93 88l-93 -88
c-1 -1 -3 -2 -6 -2c-5 0 -11 5 -11 11c0 4 2 6 5 9l92 87c5 5 8 7 13 7s8 -2 13 -7z" />
    <glyph glyph-name="otilde" unicode="&#xf5;" horiz-adv-x="578" 
d="M518 217c0 -127 -97 -229 -229 -229s-229 102 -229 229s97 229 229 229s229 -102 229 -229zM492 217c0 116 -87 205 -203 205s-203 -89 -203 -205s87 -205 203 -205s203 89 203 205zM413 591c5 0 10 -4 10 -9c0 -4 -2 -7 -4 -10c-18 -22 -37 -45 -69 -45
c-27 0 -41 10 -62 22s-30 22 -53 22c-24 0 -39 -17 -52 -35c-3 -4 -6 -6 -11 -6s-11 4 -11 9c0 4 1 6 3 9c18 23 39 45 70 45c28 0 42 -12 64 -25c21 -13 32 -19 51 -19c23 0 35 13 53 36c3 4 7 6 11 6z" />
    <glyph glyph-name="odieresis" unicode="&#xf6;" horiz-adv-x="578" 
d="M518 217c0 -127 -97 -229 -229 -229s-229 102 -229 229s97 229 229 229s229 -102 229 -229zM492 217c0 116 -87 205 -203 205s-203 -89 -203 -205s87 -205 203 -205s203 89 203 205zM190 562c0 14 11 25 25 25s25 -11 25 -25s-11 -25 -25 -25s-25 11 -25 25zM339 562
c0 14 11 25 25 25s25 -11 25 -25s-11 -25 -25 -25s-25 11 -25 25z" />
    <glyph glyph-name="divide" unicode="&#xf7;" horiz-adv-x="610" 
d="M518 311h-426c-7 0 -12 5 -12 12s5 12 12 12h426c7 0 12 -5 12 -12s-5 -12 -12 -12zM278 150c0 15 12 27 27 27s27 -12 27 -27s-12 -27 -27 -27s-27 12 -27 27zM278 496c0 15 12 27 27 27s27 -12 27 -27s-12 -27 -27 -27s-27 12 -27 27z" />
    <glyph glyph-name="oslash" unicode="&#xf8;" horiz-adv-x="578" 
d="M508 496c6 0 10 -5 10 -10c0 -3 -1 -5 -3 -8l-73 -89c47 -42 76 -103 76 -172c0 -127 -97 -229 -229 -229c-53 0 -100 16 -137 43l-72 -88c-3 -4 -6 -5 -10 -5c-5 0 -10 5 -10 10c0 3 1 5 3 8l72 89c-47 42 -75 103 -75 172c0 127 97 229 229 229c52 0 99 -16 137 -44
l73 90c3 3 6 4 9 4zM86 217c0 -62 24 -116 65 -153l259 319c-33 24 -75 39 -121 39c-116 0 -203 -89 -203 -205zM492 217c0 61 -25 116 -65 153l-260 -319c34 -25 75 -39 122 -39c116 0 203 89 203 205z" />
    <glyph glyph-name="ugrave" unicode="&#xf9;" horiz-adv-x="572" 
d="M474 442c7 0 13 -6 13 -13v-242c0 -111 -86 -199 -201 -199s-201 88 -201 199v242c0 7 6 13 13 13s13 -6 13 -13v-243c0 -97 73 -173 175 -173s175 76 175 173v243c0 7 6 13 13 13zM293 522l-75 109c-1 2 -3 4 -3 9s5 10 11 10c5 0 8 -3 10 -6l74 -109c2 -3 3 -6 3 -8
c0 -5 -4 -10 -11 -10c-4 0 -6 1 -9 5z" />
    <glyph glyph-name="uacute" unicode="&#xfa;" horiz-adv-x="572" 
d="M474 442c7 0 13 -6 13 -13v-242c0 -111 -86 -199 -201 -199s-201 88 -201 199v242c0 7 6 13 13 13s13 -6 13 -13v-243c0 -97 73 -173 175 -173s175 76 175 173v243c0 7 6 13 13 13zM358 631l-75 -109c-3 -4 -5 -5 -9 -5c-7 0 -11 5 -11 10c0 2 1 5 3 8l74 109
c2 3 5 6 10 6c6 0 11 -5 11 -10s-2 -7 -3 -9z" />
    <glyph glyph-name="ucircumflex" unicode="&#xfb;" horiz-adv-x="572" 
d="M474 442c7 0 13 -6 13 -13v-242c0 -111 -86 -199 -201 -199s-201 88 -201 199v242c0 7 6 13 13 13s13 -6 13 -13v-243c0 -97 73 -173 175 -173s175 76 175 173v243c0 7 6 13 13 13zM299 623l92 -87c3 -3 5 -5 5 -9c0 -6 -6 -11 -11 -11c-3 0 -5 1 -6 2l-93 88l-93 -88
c-1 -1 -3 -2 -6 -2c-5 0 -11 5 -11 11c0 4 2 6 5 9l92 87c5 5 8 7 13 7s8 -2 13 -7z" />
    <glyph glyph-name="udieresis" unicode="&#xfc;" horiz-adv-x="572" 
d="M474 442c7 0 13 -6 13 -13v-242c0 -111 -86 -199 -201 -199s-201 88 -201 199v242c0 7 6 13 13 13s13 -6 13 -13v-243c0 -97 73 -173 175 -173s175 76 175 173v243c0 7 6 13 13 13zM187 562c0 14 11 25 25 25s25 -11 25 -25s-11 -25 -25 -25s-25 11 -25 25zM336 562
c0 14 11 25 25 25s25 -11 25 -25s-11 -25 -25 -25s-25 11 -25 25z" />
    <glyph glyph-name="yacute" unicode="&#xfd;" horiz-adv-x="456" 
d="M232 32l176 401c2 5 5 9 12 9c8 0 12 -5 12 -11c0 -3 -1 -5 -2 -8l-186 -423c-41 -93 -97 -164 -189 -193c-3 -1 -6 -2 -10 -2c-8 0 -12 6 -12 12c0 8 5 11 12 13c83 24 131 84 173 173l-184 420c-1 3 -2 5 -2 8c0 6 4 11 12 11c7 0 10 -4 12 -9zM306 631l-75 -109
c-3 -4 -5 -5 -9 -5c-7 0 -11 5 -11 10c0 2 1 5 3 8l74 109c2 3 5 6 10 6c6 0 11 -5 11 -10s-2 -7 -3 -9z" />
    <glyph glyph-name="thorn" unicode="&#xfe;" horiz-adv-x="606" 
d="M116 661v-341c40 79 112 126 203 126c128 0 229 -98 229 -229s-101 -229 -229 -229c-91 0 -163 47 -203 126v-296c0 -7 -6 -13 -13 -13s-13 6 -13 13v843c0 7 6 13 13 13s13 -6 13 -13zM522 217c0 119 -89 205 -203 205c-112 0 -203 -87 -203 -205s91 -205 203 -205
c114 0 203 86 203 205z" />
    <glyph glyph-name="ydieresis" unicode="&#xff;" horiz-adv-x="456" 
d="M232 32l176 401c2 5 5 9 12 9c8 0 12 -5 12 -11c0 -3 -1 -5 -2 -8l-186 -423c-41 -93 -97 -164 -189 -193c-3 -1 -6 -2 -10 -2c-8 0 -12 6 -12 12c0 8 5 11 12 13c83 24 131 84 173 173l-184 420c-1 3 -2 5 -2 8c0 6 4 11 12 11c7 0 10 -4 12 -9zM133 562
c0 14 11 25 25 25s25 -11 25 -25s-11 -25 -25 -25s-25 11 -25 25zM282 562c0 14 11 25 25 25s25 -11 25 -25s-11 -25 -25 -25s-25 11 -25 25z" />
    <glyph glyph-name="Amacron" unicode="&#x100;" horiz-adv-x="714" 
d="M369 666l293 -654c1 -2 2 -4 2 -6c0 -8 -6 -14 -13 -14c-6 0 -10 3 -12 7l-98 220h-369l-97 -220c-2 -4 -6 -7 -12 -7c-7 0 -13 6 -13 14c0 2 1 4 2 6l293 654c3 6 7 8 12 8s9 -2 12 -8zM357 637l-174 -394h348zM482 784c0 -6 -5 -11 -11 -11h-227c-6 0 -11 5 -11 11
s5 11 11 11h227c6 0 11 -5 11 -11z" />
    <glyph glyph-name="amacron" unicode="&#x101;" horiz-adv-x="601" 
d="M58 217c0 127 97 229 229 229s229 -102 229 -229v-212c0 -7 -6 -13 -13 -13s-13 6 -13 13v106c-37 -74 -112 -123 -203 -123c-132 0 -229 102 -229 229zM84 217c0 -116 87 -205 203 -205s203 89 203 205s-87 205 -203 205s-203 -89 -203 -205zM429 561
c0 -6 -5 -11 -11 -11h-227c-6 0 -11 5 -11 11s5 11 11 11h227c6 0 11 -5 11 -11z" />
    <glyph glyph-name="Abreve" unicode="&#x102;" horiz-adv-x="714" 
d="M369 666l293 -654c1 -2 2 -4 2 -6c0 -8 -6 -14 -13 -14c-6 0 -10 3 -12 7l-98 220h-369l-97 -220c-2 -4 -6 -7 -12 -7c-7 0 -13 6 -13 14c0 2 1 4 2 6l293 654c3 6 7 8 12 8s9 -2 12 -8zM357 637l-174 -394h348zM447 812c0 7 4 13 12 13s12 -6 12 -13
c0 -59 -53 -84 -114 -84s-114 25 -114 84c0 7 4 13 12 13s12 -6 12 -13c0 -49 41 -63 90 -63s90 14 90 63z" />
    <glyph glyph-name="abreve" unicode="&#x103;" horiz-adv-x="601" 
d="M58 217c0 127 97 229 229 229s229 -102 229 -229v-212c0 -7 -6 -13 -13 -13s-13 6 -13 13v106c-37 -74 -112 -123 -203 -123c-132 0 -229 102 -229 229zM84 217c0 -116 87 -205 203 -205s203 89 203 205s-87 205 -203 205s-203 -89 -203 -205zM392 603c0 7 4 13 12 13
s12 -6 12 -13c0 -67 -46 -90 -114 -90s-114 23 -114 90c0 7 4 13 12 13s12 -6 12 -13c0 -49 29 -69 90 -69s90 20 90 69z" />
    <glyph glyph-name="Aogonek" unicode="&#x104;" horiz-adv-x="713" 
d="M369 666l291 -650c2 -5 3 -8 3 -11c0 -6 -3 -10 -10 -13c-49 -22 -96 -55 -96 -105c0 -29 18 -50 60 -50c10 0 18 1 30 4c9 2 15 -2 15 -9c0 -5 -3 -8 -8 -10c-10 -4 -24 -7 -39 -7c-61 0 -84 35 -84 72c0 64 65 100 106 117l-96 215h-369l-97 -220c-2 -4 -6 -7 -12 -7
c-7 0 -13 6 -13 14c0 2 1 4 2 6l293 654c3 6 7 8 12 8s9 -2 12 -8zM357 637l-174 -394h348z" />
    <glyph glyph-name="aogonek" unicode="&#x105;" horiz-adv-x="601" 
d="M383 -113c0 64 66 101 107 118v106c-37 -74 -112 -123 -203 -123c-132 0 -229 102 -229 229s97 229 229 229s229 -102 229 -229v-209c0 -4 0 -11 -6 -14c-50 -23 -101 -56 -101 -107c0 -29 18 -50 60 -50c10 0 18 1 30 4c9 2 15 -2 15 -9c0 -5 -3 -8 -8 -10
c-10 -4 -24 -7 -39 -7c-61 0 -84 35 -84 72zM84 217c0 -116 87 -205 203 -205s203 89 203 205s-87 205 -203 205s-203 -89 -203 -205z" />
    <glyph glyph-name="Cacute" unicode="&#x106;" horiz-adv-x="730" 
d="M658 511c-4 0 -8 1 -11 6c-55 83 -139 137 -252 137c-186 0 -303 -158 -303 -321s117 -321 303 -321c113 0 197 54 252 137c3 5 7 6 11 6c7 0 12 -6 12 -12c0 -4 -1 -6 -2 -8c-54 -86 -150 -147 -273 -147c-198 0 -329 166 -329 345s131 345 329 345
c123 0 219 -61 273 -147c1 -2 2 -4 2 -8c0 -6 -5 -12 -12 -12zM443 826l-72 -83c-3 -3 -6 -5 -11 -5c-6 0 -10 5 -10 10c0 3 1 4 3 7l73 85c3 4 6 5 11 5s10 -5 10 -10c0 -4 -2 -7 -4 -9z" />
    <glyph glyph-name="cacute" unicode="&#x107;" horiz-adv-x="543" 
d="M485 331c0 -6 -5 -11 -12 -11c-6 0 -9 3 -12 7c-39 60 -99 95 -172 95c-119 0 -203 -93 -203 -205s84 -205 203 -205c73 0 133 35 172 95c3 4 6 7 12 7c7 0 12 -5 12 -11c0 -4 -2 -8 -4 -11c-40 -62 -110 -104 -192 -104c-134 0 -229 102 -229 229s95 229 229 229
c82 0 152 -42 192 -104c2 -3 4 -7 4 -11zM342 631l-75 -109c-3 -4 -5 -5 -9 -5c-7 0 -11 5 -11 10c0 2 1 5 3 8l74 109c2 3 5 6 10 6c6 0 11 -5 11 -10s-2 -7 -3 -9z" />
    <glyph glyph-name="Ccircumflex" unicode="&#x108;" horiz-adv-x="730" 
d="M658 511c-4 0 -8 1 -11 6c-55 83 -139 137 -252 137c-186 0 -303 -158 -303 -321s117 -321 303 -321c113 0 197 54 252 137c3 5 7 6 11 6c7 0 12 -6 12 -12c0 -4 -1 -6 -2 -8c-54 -86 -150 -147 -273 -147c-198 0 -329 166 -329 345s131 345 329 345
c123 0 219 -61 273 -147c1 -2 2 -4 2 -8c0 -6 -5 -12 -12 -12zM417 838l92 -80c3 -3 5 -5 5 -9c0 -6 -6 -11 -11 -11c-3 0 -5 1 -6 2l-93 81l-93 -81c-1 -1 -3 -2 -6 -2c-5 0 -11 5 -11 11c0 4 2 6 5 9l92 80c4 4 7 7 13 7s9 -4 13 -7z" />
    <glyph glyph-name="ccircumflex" unicode="&#x109;" horiz-adv-x="543" 
d="M485 331c0 -6 -5 -11 -12 -11c-6 0 -9 3 -12 7c-39 60 -99 95 -172 95c-119 0 -203 -93 -203 -205s84 -205 203 -205c73 0 133 35 172 95c3 4 6 7 12 7c7 0 12 -5 12 -11c0 -4 -2 -8 -4 -11c-40 -62 -110 -104 -192 -104c-134 0 -229 102 -229 229s95 229 229 229
c82 0 152 -42 192 -104c2 -3 4 -7 4 -11zM310 623l92 -87c3 -3 5 -5 5 -9c0 -6 -6 -11 -11 -11c-3 0 -5 1 -6 2l-93 88l-93 -88c-1 -1 -3 -2 -6 -2c-5 0 -11 5 -11 11c0 4 2 6 5 9l92 87c5 5 8 7 13 7s8 -2 13 -7z" />
    <glyph glyph-name="Cdotaccent" unicode="&#x10a;" horiz-adv-x="730" 
d="M658 511c-4 0 -8 1 -11 6c-55 83 -139 137 -252 137c-186 0 -303 -158 -303 -321s117 -321 303 -321c113 0 197 54 252 137c3 5 7 6 11 6c7 0 12 -6 12 -12c0 -4 -1 -6 -2 -8c-54 -86 -150 -147 -273 -147c-198 0 -329 166 -329 345s131 345 329 345
c123 0 219 -61 273 -147c1 -2 2 -4 2 -8c0 -6 -5 -12 -12 -12zM381 826c0 7 6 13 13 13s13 -6 13 -13v-69c0 -7 -6 -13 -13 -13s-13 6 -13 13v69z" />
    <glyph glyph-name="cdotaccent" unicode="&#x10b;" horiz-adv-x="543" 
d="M485 331c0 -6 -5 -11 -12 -11c-6 0 -9 3 -12 7c-39 60 -99 95 -172 95c-119 0 -203 -93 -203 -205s84 -205 203 -205c73 0 133 35 172 95c3 4 6 7 12 7c7 0 12 -5 12 -11c0 -4 -2 -8 -4 -11c-40 -62 -110 -104 -192 -104c-134 0 -229 102 -229 229s95 229 229 229
c82 0 152 -42 192 -104c2 -3 4 -7 4 -11zM276 607c0 7 6 13 13 13s13 -6 13 -13v-69c0 -7 -6 -13 -13 -13s-13 6 -13 13v69z" />
    <glyph glyph-name="Ccaron" unicode="&#x10c;" horiz-adv-x="730" 
d="M658 511c-4 0 -8 1 -11 6c-55 83 -139 137 -252 137c-186 0 -303 -158 -303 -321s117 -321 303 -321c113 0 197 54 252 137c3 5 7 6 11 6c7 0 12 -6 12 -12c0 -4 -1 -6 -2 -8c-54 -86 -150 -147 -273 -147c-198 0 -329 166 -329 345s131 345 329 345
c123 0 219 -61 273 -147c1 -2 2 -4 2 -8c0 -6 -5 -12 -12 -12zM501 821l-92 -80c-4 -3 -7 -7 -13 -7s-9 3 -13 7l-92 80c-3 3 -5 5 -5 9c0 6 6 11 11 11c3 0 5 -1 6 -2l93 -81l93 81c1 1 3 2 6 2c5 0 11 -5 11 -11c0 -4 -2 -6 -5 -9z" />
    <glyph glyph-name="ccaron" unicode="&#x10d;" horiz-adv-x="543" 
d="M485 331c0 -6 -5 -11 -12 -11c-6 0 -9 3 -12 7c-39 60 -99 95 -172 95c-119 0 -203 -93 -203 -205s84 -205 203 -205c73 0 133 35 172 95c3 4 6 7 12 7c7 0 12 -5 12 -11c0 -4 -2 -8 -4 -11c-40 -62 -110 -104 -192 -104c-134 0 -229 102 -229 229s95 229 229 229
c82 0 152 -42 192 -104c2 -3 4 -7 4 -11zM397 606l-92 -87c-5 -5 -8 -7 -13 -7s-8 2 -13 7l-92 87c-3 3 -5 5 -5 9c0 6 6 11 11 11c3 0 5 -1 6 -2l93 -88l93 88c1 1 3 2 6 2c5 0 11 -5 11 -11c0 -4 -2 -6 -5 -9z" />
    <glyph glyph-name="Dcaron" unicode="&#x10e;" horiz-adv-x="710" 
d="M105 653c0 7 6 13 13 13h203c198 0 329 -154 329 -333s-131 -333 -329 -333h-203c-7 0 -13 6 -13 13v640zM316 642h-185v-618h185c193 0 308 146 308 309s-115 309 -308 309zM435 821l-92 -80c-4 -3 -7 -7 -13 -7s-9 3 -13 7l-92 80c-3 3 -5 5 -5 9c0 6 6 11 11 11
c3 0 5 -1 6 -2l93 -81l93 81c1 1 3 2 6 2c5 0 11 -5 11 -11c0 -4 -2 -6 -5 -9z" />
    <glyph glyph-name="dcaron" unicode="&#x10f;" horiz-adv-x="740" 
d="M490 5v109c-40 -79 -112 -126 -203 -126c-128 0 -229 98 -229 229s101 229 229 229c91 0 163 -47 203 -126v341c0 7 6 13 13 13s13 -6 13 -13v-656c0 -7 -6 -13 -13 -13s-13 6 -13 13zM84 217c0 -119 89 -205 203 -205c112 0 203 87 203 205s-91 205 -203 205
c-114 0 -203 -86 -203 -205zM676 662c0 7 5 12 12 12s12 -5 12 -12v-43c0 -50 -9 -92 -20 -130c-2 -8 -8 -11 -13 -11c-7 0 -14 6 -11 16c11 39 20 75 20 121v47z" />
    <glyph glyph-name="Dcroat" unicode="&#x110;" horiz-adv-x="811" 
d="M157 653c0 7 6 13 13 13h212c198 0 317 -154 317 -333s-119 -333 -317 -333h-212c-7 0 -13 6 -13 13v308h-90c-7 0 -12 5 -12 12s5 12 12 12h90v308zM348 321h-165v-297h194c193 0 296 146 296 309s-103 309 -296 309h-194v-297h165c7 0 12 -5 12 -12s-5 -12 -12 -12z
" />
    <glyph glyph-name="dcroat" unicode="&#x111;" horiz-adv-x="651" 
d="M315 552c0 7 5 12 12 12h163v97c0 7 6 13 13 13s13 -6 13 -13v-97h90c7 0 12 -5 12 -12s-5 -11 -12 -11h-90v-536c0 -7 -6 -13 -13 -13s-13 6 -13 13v109c-40 -79 -112 -126 -203 -126c-128 0 -229 98 -229 229s101 229 229 229c91 0 163 -47 203 -126v221h-163
c-7 0 -12 4 -12 11zM84 217c0 -119 89 -205 203 -205c112 0 203 87 203 205s-91 205 -203 205c-114 0 -203 -86 -203 -205z" />
    <glyph glyph-name="Emacron" unicode="&#x112;" horiz-adv-x="588" 
d="M105 653c0 7 6 13 13 13h396c7 0 12 -5 12 -12s-5 -12 -12 -12h-383v-276h227c7 0 12 -5 12 -12s-5 -12 -12 -12h-227v-318h397c7 0 12 -5 12 -12s-5 -12 -12 -12h-410c-7 0 -13 6 -13 13v640zM447 784c0 -6 -5 -11 -11 -11h-227c-6 0 -11 5 -11 11s5 11 11 11h227
c6 0 11 -5 11 -11z" />
    <glyph glyph-name="emacron" unicode="&#x113;" horiz-adv-x="553" 
d="M498 225c0 -8 -5 -12 -13 -12h-398c0 -111 87 -202 202 -202c71 0 133 35 172 96c3 5 6 6 10 6c7 0 13 -5 13 -12c0 -3 -1 -6 -3 -9c-40 -62 -108 -104 -192 -104c-135 0 -229 104 -229 229c0 129 94 229 221 229c124 0 217 -101 217 -221zM473 236
c-4 100 -86 188 -192 188s-187 -83 -193 -188h385zM409 561c0 -6 -5 -11 -11 -11h-227c-6 0 -11 5 -11 11s5 11 11 11h227c6 0 11 -5 11 -11z" />
    <glyph glyph-name="Ebreve" unicode="&#x114;" horiz-adv-x="588" 
d="M105 653c0 7 6 13 13 13h396c7 0 12 -5 12 -12s-5 -12 -12 -12h-383v-276h227c7 0 12 -5 12 -12s-5 -12 -12 -12h-227v-318h397c7 0 12 -5 12 -12s-5 -12 -12 -12h-410c-7 0 -13 6 -13 13v640zM411 812c0 7 4 13 12 13s12 -6 12 -13c0 -59 -53 -84 -114 -84
s-114 25 -114 84c0 7 4 13 12 13s12 -6 12 -13c0 -49 41 -63 90 -63s90 14 90 63z" />
    <glyph glyph-name="ebreve" unicode="&#x115;" horiz-adv-x="553" 
d="M498 225c0 -8 -5 -12 -13 -12h-398c0 -111 87 -202 202 -202c71 0 133 35 172 96c3 5 6 6 10 6c7 0 13 -5 13 -12c0 -3 -1 -6 -3 -9c-40 -62 -108 -104 -192 -104c-135 0 -229 104 -229 229c0 129 94 229 221 229c124 0 217 -101 217 -221zM473 236
c-4 100 -86 188 -192 188s-187 -83 -193 -188h385zM374 603c0 7 4 13 12 13s12 -6 12 -13c0 -67 -46 -90 -114 -90s-114 23 -114 90c0 7 4 13 12 13s12 -6 12 -13c0 -49 29 -69 90 -69s90 20 90 69z" />
    <glyph glyph-name="Edotaccent" unicode="&#x116;" horiz-adv-x="588" 
d="M105 653c0 7 6 13 13 13h396c7 0 12 -5 12 -12s-5 -12 -12 -12h-383v-276h227c7 0 12 -5 12 -12s-5 -12 -12 -12h-227v-318h397c7 0 12 -5 12 -12s-5 -12 -12 -12h-410c-7 0 -13 6 -13 13v640zM299 826c0 7 6 13 13 13s13 -6 13 -13v-69c0 -7 -6 -13 -13 -13
s-13 6 -13 13v69z" />
    <glyph glyph-name="edotaccent" unicode="&#x117;" horiz-adv-x="553" 
d="M498 225c0 -8 -5 -12 -13 -12h-398c0 -111 87 -202 202 -202c71 0 133 35 172 96c3 5 6 6 10 6c7 0 13 -5 13 -12c0 -3 -1 -6 -3 -9c-40 -62 -108 -104 -192 -104c-135 0 -229 104 -229 229c0 129 94 229 221 229c124 0 217 -101 217 -221zM473 236
c-4 100 -86 188 -192 188s-187 -83 -193 -188h385zM272 607c0 7 6 13 13 13s13 -6 13 -13v-69c0 -7 -6 -13 -13 -13s-13 6 -13 13v69z" />
    <glyph glyph-name="Eogonek" unicode="&#x118;" horiz-adv-x="588" 
d="M399 -113c0 58 54 94 95 113h-376c-7 0 -13 6 -13 13v640c0 7 6 13 13 13h396c7 0 12 -5 12 -12s-5 -12 -12 -12h-383v-276h227c7 0 12 -5 12 -12s-5 -12 -12 -12h-227v-318h397c7 0 12 -5 12 -12s-4 -10 -8 -12c-45 -23 -107 -58 -107 -113c0 -29 18 -50 60 -50
c10 0 18 1 30 4c9 2 15 -2 15 -9c0 -5 -3 -8 -8 -10c-10 -4 -24 -7 -39 -7c-61 0 -84 35 -84 72z" />
    <glyph glyph-name="eogonek" unicode="&#x119;" horiz-adv-x="553" 
d="M265 -121c0 54 63 98 106 123c-25 -9 -53 -14 -82 -14c-135 0 -229 104 -229 229c0 129 94 229 221 229c124 0 217 -101 217 -221c0 -8 -5 -12 -13 -12h-398c0 -111 87 -202 202 -202c71 0 133 35 172 96c3 5 6 6 10 6c7 0 13 -5 13 -12c0 -3 -1 -6 -3 -9
c-13 -20 -30 -38 -48 -54c-48 -43 -142 -95 -142 -157c0 -29 18 -44 55 -44c10 0 23 1 35 4c9 2 15 -2 15 -9c0 -5 -3 -8 -8 -10c-10 -4 -29 -7 -44 -7c-56 0 -79 27 -79 64zM473 236c-4 100 -86 188 -192 188s-187 -83 -193 -188h385z" />
    <glyph glyph-name="Ecaron" unicode="&#x11a;" horiz-adv-x="588" 
d="M105 653c0 7 6 13 13 13h396c7 0 12 -5 12 -12s-5 -12 -12 -12h-383v-276h227c7 0 12 -5 12 -12s-5 -12 -12 -12h-227v-318h397c7 0 12 -5 12 -12s-5 -12 -12 -12h-410c-7 0 -13 6 -13 13v640zM426 821l-92 -80c-4 -3 -7 -7 -13 -7s-9 3 -13 7l-92 80c-3 3 -5 5 -5 9
c0 6 6 11 11 11c3 0 5 -1 6 -2l93 -81l93 81c1 1 3 2 6 2c5 0 11 -5 11 -11c0 -4 -2 -6 -5 -9z" />
    <glyph glyph-name="ecaron" unicode="&#x11b;" horiz-adv-x="553" 
d="M498 225c0 -8 -5 -12 -13 -12h-398c0 -111 87 -202 202 -202c71 0 133 35 172 96c3 5 6 6 10 6c7 0 13 -5 13 -12c0 -3 -1 -6 -3 -9c-40 -62 -108 -104 -192 -104c-135 0 -229 104 -229 229c0 129 94 229 221 229c124 0 217 -101 217 -221zM473 236
c-4 100 -86 188 -192 188s-187 -83 -193 -188h385zM391 606l-92 -87c-5 -5 -8 -7 -13 -7s-8 2 -13 7l-92 87c-3 3 -5 5 -5 9c0 6 6 11 11 11c3 0 5 -1 6 -2l93 -88l93 88c1 1 3 2 6 2c5 0 11 -5 11 -11c0 -4 -2 -6 -5 -9z" />
    <glyph glyph-name="Gcircumflex" unicode="&#x11c;" horiz-adv-x="749" 
d="M667 293v-178c0 -6 -2 -10 -4 -13c-66 -71 -157 -114 -268 -114c-200 0 -329 166 -329 345c0 183 134 345 329 345c98 0 179 -38 234 -98c2 -2 3 -5 3 -9c0 -7 -6 -11 -12 -11c-4 0 -7 1 -10 4c-57 60 -131 90 -215 90c-183 0 -303 -156 -303 -321
c0 -159 111 -322 303 -322c95 0 183 32 247 103v168h-218c-6 0 -11 5 -11 11s5 11 11 11h232c6 0 11 -5 11 -11zM414 838l92 -80c3 -3 5 -5 5 -9c0 -6 -6 -11 -11 -11c-3 0 -5 1 -6 2l-93 81l-93 -81c-1 -1 -3 -2 -6 -2c-5 0 -11 5 -11 11c0 4 2 6 5 9l92 80c4 4 7 7 13 7
s9 -4 13 -7z" />
    <glyph glyph-name="gcircumflex" unicode="&#x11d;" horiz-adv-x="606" 
d="M84 223c0 -119 91 -199 203 -199s203 81 203 199s-91 199 -203 199s-203 -80 -203 -199zM108 -155c-4 2 -11 6 -11 12s4 10 9 10c4 0 8 -1 12 -3c53 -26 105 -36 171 -36c145 0 201 92 201 206v88c-37 -74 -112 -122 -203 -122c-128 0 -229 92 -229 223s101 223 229 223
c91 0 168 -49 203 -122v105c0 7 6 13 13 13s13 -6 13 -13v-392c0 -131 -68 -232 -227 -232c-78 0 -136 16 -181 40zM318 623l92 -87c3 -3 5 -5 5 -9c0 -6 -6 -11 -11 -11c-3 0 -5 1 -6 2l-93 88l-93 -88c-1 -1 -3 -2 -6 -2c-5 0 -11 5 -11 11c0 4 2 6 5 9l92 87
c5 5 8 7 13 7s8 -2 13 -7z" />
    <glyph glyph-name="Gbreve" unicode="&#x11e;" horiz-adv-x="749" 
d="M667 293v-178c0 -6 -2 -10 -4 -13c-66 -71 -157 -114 -268 -114c-200 0 -329 166 -329 345c0 183 134 345 329 345c98 0 179 -38 234 -98c2 -2 3 -5 3 -9c0 -7 -6 -11 -12 -11c-4 0 -7 1 -10 4c-57 60 -131 90 -215 90c-183 0 -303 -156 -303 -321
c0 -159 111 -322 303 -322c95 0 183 32 247 103v168h-218c-6 0 -11 5 -11 11s5 11 11 11h232c6 0 11 -5 11 -11zM482 812c0 7 4 13 12 13s12 -6 12 -13c0 -59 -53 -84 -114 -84s-114 25 -114 84c0 7 4 13 12 13s12 -6 12 -13c0 -49 41 -63 90 -63s90 14 90 63z" />
    <glyph glyph-name="gbreve" unicode="&#x11f;" horiz-adv-x="606" 
d="M84 223c0 -119 91 -199 203 -199s203 81 203 199s-91 199 -203 199s-203 -80 -203 -199zM108 -155c-4 2 -11 6 -11 12s4 10 9 10c4 0 8 -1 12 -3c53 -26 105 -36 171 -36c145 0 201 92 201 206v88c-37 -74 -112 -122 -203 -122c-128 0 -229 92 -229 223s101 223 229 223
c91 0 168 -49 203 -122v105c0 7 6 13 13 13s13 -6 13 -13v-392c0 -131 -68 -232 -227 -232c-78 0 -136 16 -181 40zM394 603c0 7 4 13 12 13s12 -6 12 -13c0 -67 -46 -90 -114 -90s-114 23 -114 90c0 7 4 13 12 13s12 -6 12 -13c0 -49 29 -69 90 -69s90 20 90 69z" />
    <glyph glyph-name="Gdotaccent" unicode="&#x120;" horiz-adv-x="749" 
d="M667 293v-178c0 -6 -2 -10 -4 -13c-66 -71 -157 -114 -268 -114c-200 0 -329 166 -329 345c0 183 134 345 329 345c98 0 179 -38 234 -98c2 -2 3 -5 3 -9c0 -7 -6 -11 -12 -11c-4 0 -7 1 -10 4c-57 60 -131 90 -215 90c-183 0 -303 -156 -303 -321
c0 -159 111 -322 303 -322c95 0 183 32 247 103v168h-218c-6 0 -11 5 -11 11s5 11 11 11h232c6 0 11 -5 11 -11zM383 826c0 7 6 13 13 13s13 -6 13 -13v-69c0 -7 -6 -13 -13 -13s-13 6 -13 13v69z" />
    <glyph glyph-name="gdotaccent" unicode="&#x121;" horiz-adv-x="606" 
d="M84 223c0 -119 91 -199 203 -199s203 81 203 199s-91 199 -203 199s-203 -80 -203 -199zM108 -155c-4 2 -11 6 -11 12s4 10 9 10c4 0 8 -1 12 -3c53 -26 105 -36 171 -36c145 0 201 92 201 206v88c-37 -74 -112 -122 -203 -122c-128 0 -229 92 -229 223s101 223 229 223
c91 0 168 -49 203 -122v105c0 7 6 13 13 13s13 -6 13 -13v-392c0 -131 -68 -232 -227 -232c-78 0 -136 16 -181 40zM287 607c0 7 6 13 13 13s13 -6 13 -13v-69c0 -7 -6 -13 -13 -13s-13 6 -13 13v69z" />
    <glyph glyph-name="Gcommaaccent" unicode="&#x122;" horiz-adv-x="749" 
d="M667 293v-178c0 -6 -2 -10 -4 -13c-66 -71 -157 -114 -268 -114c-200 0 -329 166 -329 345c0 183 134 345 329 345c98 0 179 -38 234 -98c2 -2 3 -5 3 -9c0 -7 -6 -11 -12 -11c-4 0 -7 1 -10 4c-57 60 -131 90 -215 90c-183 0 -303 -156 -303 -321
c0 -159 111 -322 303 -322c95 0 183 32 247 103v168h-218c-6 0 -11 5 -11 11s5 11 11 11h232c6 0 11 -5 11 -11zM407 -92c0 7 5 12 12 12s12 -5 12 -12v-43c0 -50 -7 -84 -18 -123c-2 -8 -8 -11 -13 -11c-7 0 -14 6 -11 16c11 39 18 72 18 114v47z" />
    <glyph glyph-name="gcommaaccent" unicode="&#x123;" horiz-adv-x="606" 
d="M306 537c0 -7 -5 -12 -12 -12s-12 5 -12 12v43c0 50 7 84 18 123c2 8 8 11 13 11c7 0 14 -6 11 -16c-11 -39 -18 -72 -18 -114v-47zM84 223c0 -119 91 -199 203 -199s203 81 203 199s-91 199 -203 199s-203 -80 -203 -199zM108 -155c-4 2 -11 6 -11 12s4 10 9 10
c4 0 8 -1 12 -3c53 -26 105 -36 171 -36c145 0 201 92 201 206v88c-37 -74 -112 -122 -203 -122c-128 0 -229 92 -229 223s101 223 229 223c91 0 168 -49 203 -122v105c0 7 6 13 13 13s13 -6 13 -13v-392c0 -131 -68 -232 -227 -232c-78 0 -136 16 -181 40z" />
    <glyph glyph-name="Hcircumflex" unicode="&#x124;" horiz-adv-x="735" 
d="M604 661c0 7 6 13 13 13s13 -6 13 -13v-656c0 -7 -6 -13 -13 -13s-13 6 -13 13v321h-473v-321c0 -7 -6 -13 -13 -13s-13 6 -13 13v656c0 7 6 13 13 13s13 -6 13 -13v-311h473v311zM380 838l92 -80c3 -3 5 -5 5 -9c0 -6 -6 -11 -11 -11c-3 0 -5 1 -6 2l-93 81l-93 -81
c-1 -1 -3 -2 -6 -2c-5 0 -11 5 -11 11c0 4 2 6 5 9l92 80c4 4 7 7 13 7s9 -4 13 -7z" />
    <glyph glyph-name="hcircumflex" unicode="&#x125;" horiz-adv-x="577" 
d="M466 252c0 101 -62 169 -168 169c-96 0 -182 -74 -182 -174v-242c0 -7 -6 -13 -13 -13s-13 6 -13 13v656c0 7 6 13 13 13s13 -6 13 -13v-327c35 74 108 112 182 112c123 0 194 -82 194 -195v-246c0 -7 -6 -13 -13 -13s-13 6 -13 13v247zM116 838l92 -80c3 -3 5 -5 5 -9
c0 -6 -6 -11 -11 -11c-3 0 -5 1 -6 2l-93 81l-93 -81c-1 -1 -3 -2 -6 -2c-5 0 -11 5 -11 11c0 4 2 6 5 9l92 80c4 4 7 7 13 7s9 -4 13 -7z" />
    <glyph glyph-name="Hbar" unicode="&#x126;" horiz-adv-x="833" 
d="M751 506h-72v-501c0 -7 -6 -13 -13 -13s-13 6 -13 13v321h-473v-321c0 -7 -6 -13 -13 -13s-13 6 -13 13v501h-72c-7 0 -12 4 -12 11s5 11 12 11h72v133c0 7 6 13 13 13s13 -6 13 -13v-133h473v133c0 7 6 13 13 13s13 -6 13 -13v-133h72c7 0 12 -4 12 -11s-5 -11 -12 -11z
M180 350h473v156h-473v-156z" />
    <glyph glyph-name="hbar" unicode="&#x127;" horiz-adv-x="619" 
d="M132 541h-90c-7 0 -12 4 -12 11s5 12 12 12h90v97c0 7 6 13 13 13s13 -6 13 -13v-97h163c7 0 12 -5 12 -12s-5 -11 -12 -11h-163v-207c35 74 108 112 182 112c123 0 194 -82 194 -195v-246c0 -7 -6 -13 -13 -13s-13 6 -13 13v247c0 101 -62 169 -168 169
c-96 0 -182 -74 -182 -174v-242c0 -7 -6 -13 -13 -13s-13 6 -13 13v536z" />
    <glyph glyph-name="Itilde" unicode="&#x128;" horiz-adv-x="246" 
d="M110 661c0 7 6 13 13 13s13 -6 13 -13v-656c0 -7 -6 -13 -13 -13s-13 6 -13 13v656zM247 811c5 0 10 -4 10 -9c0 -4 -2 -7 -4 -10c-18 -22 -37 -45 -69 -45c-27 0 -41 10 -62 22s-30 22 -53 22c-24 0 -39 -17 -52 -35c-3 -4 -6 -6 -11 -6s-11 4 -11 9c0 4 1 6 3 9
c18 23 39 45 70 45c28 0 42 -12 64 -25c21 -13 32 -19 51 -19c23 0 35 13 53 36c3 4 7 6 11 6z" />
    <glyph glyph-name="itilde" unicode="&#x129;" 
d="M90 429c0 7 6 13 13 13s13 -6 13 -13v-424c0 -7 -6 -13 -13 -13s-13 6 -13 13v424zM225 591c5 0 10 -4 10 -9c0 -4 -2 -7 -4 -10c-18 -22 -37 -45 -69 -45c-27 0 -41 10 -62 22s-30 22 -53 22c-24 0 -39 -17 -52 -35c-3 -4 -6 -6 -11 -6s-11 4 -11 9c0 4 1 6 3 9
c18 23 39 45 70 45c28 0 42 -12 64 -25c21 -13 32 -19 51 -19c23 0 35 13 53 36c3 4 7 6 11 6z" />
    <glyph glyph-name="Imacron" unicode="&#x12a;" horiz-adv-x="246" 
d="M110 661c0 7 6 13 13 13s13 -6 13 -13v-656c0 -7 -6 -13 -13 -13s-13 6 -13 13v656zM248 784c0 -6 -5 -11 -11 -11h-227c-6 0 -11 5 -11 11s5 11 11 11h227c6 0 11 -5 11 -11z" />
    <glyph glyph-name="imacron" unicode="&#x12b;" 
d="M90 429c0 7 6 13 13 13s13 -6 13 -13v-424c0 -7 -6 -13 -13 -13s-13 6 -13 13v424zM228 561c0 -6 -5 -11 -11 -11h-227c-6 0 -11 5 -11 11s5 11 11 11h227c6 0 11 -5 11 -11z" />
    <glyph glyph-name="Ibreve" unicode="&#x12c;" horiz-adv-x="246" 
d="M110 661c0 7 6 13 13 13s13 -6 13 -13v-656c0 -7 -6 -13 -13 -13s-13 6 -13 13v656zM213 812c0 7 4 13 12 13s12 -6 12 -13c0 -59 -53 -84 -114 -84s-114 25 -114 84c0 7 4 13 12 13s12 -6 12 -13c0 -49 41 -63 90 -63s90 14 90 63z" />
    <glyph glyph-name="ibreve" unicode="&#x12d;" 
d="M90 429c0 7 6 13 13 13s13 -6 13 -13v-424c0 -7 -6 -13 -13 -13s-13 6 -13 13v424zM193 603c0 7 4 13 12 13s12 -6 12 -13c0 -67 -46 -90 -114 -90s-114 23 -114 90c0 7 4 13 12 13s12 -6 12 -13c0 -49 29 -69 90 -69s90 20 90 69z" />
    <glyph glyph-name="Iogonek" unicode="&#x12e;" horiz-adv-x="246" 
d="M110 661c0 7 6 13 13 13s13 -6 13 -13v-650c0 -7 -1 -13 -6 -17c-41 -31 -60 -63 -60 -103c0 -34 16 -54 56 -54c10 0 22 2 33 4c9 2 15 -2 15 -9c0 -5 -3 -8 -8 -10c-10 -4 -26 -7 -41 -7c-60 0 -81 36 -81 73c0 54 27 87 66 117v656z" />
    <glyph glyph-name="iogonek" unicode="&#x12f;" 
d="M116 11c0 -7 -1 -13 -6 -17c-41 -31 -60 -63 -60 -103c0 -34 16 -54 56 -54c10 0 22 2 33 4c9 2 15 -2 15 -9c0 -5 -3 -8 -8 -10c-10 -4 -26 -7 -41 -7c-60 0 -81 36 -81 73c0 54 27 87 66 117v424c0 7 6 13 13 13s13 -6 13 -13v-418zM90 607c0 7 6 13 13 13
s13 -6 13 -13v-69c0 -7 -6 -13 -13 -13s-13 6 -13 13v69z" />
    <glyph glyph-name="Idotaccent" unicode="&#x130;" horiz-adv-x="246" 
d="M110 661c0 7 6 13 13 13s13 -6 13 -13v-656c0 -7 -6 -13 -13 -13s-13 6 -13 13v656zM110 826c0 7 6 13 13 13s13 -6 13 -13v-69c0 -7 -6 -13 -13 -13s-13 6 -13 13v69z" />
    <glyph glyph-name="dotlessi" unicode="&#x131;" 
d="M90 429c0 7 6 13 13 13s13 -6 13 -13v-424c0 -7 -6 -13 -13 -13s-13 6 -13 13v424z" />
    <glyph glyph-name="IJ" unicode="&#x132;" horiz-adv-x="837" 
d="M110 661c0 7 6 13 13 13s13 -6 13 -13v-656c0 -7 -6 -13 -13 -13s-13 6 -13 13v656zM737 243c0 -143 -68 -255 -224 -255c-119 0 -197 73 -215 184v3c0 8 5 12 12 12c6 0 10 -3 11 -9c15 -100 82 -166 192 -166c129 0 198 85 198 232v417c0 7 6 13 13 13s13 -6 13 -13
v-418z" />
    <glyph glyph-name="ij" unicode="&#x133;" horiz-adv-x="412" 
d="M90 429c0 7 6 13 13 13s13 -6 13 -13v-424c0 -7 -6 -13 -13 -13s-13 6 -13 13v424zM90 607c0 7 6 13 13 13s13 -6 13 -13v-69c0 -7 -6 -13 -13 -13s-13 6 -13 13v69zM296 429c0 7 6 13 13 13s13 -6 13 -13v-471c0 -100 -30 -153 -125 -153h-23c-6 0 -11 5 -11 11
s5 11 11 11h22c82 0 100 42 100 130v472zM296 607c0 7 6 13 13 13s13 -6 13 -13v-69c0 -7 -6 -13 -13 -13s-13 6 -13 13v69z" />
    <glyph glyph-name="Jcircumflex" unicode="&#x134;" horiz-adv-x="591" 
d="M491 243c0 -143 -68 -255 -224 -255c-119 0 -197 73 -215 184v3c0 8 5 12 12 12c6 0 10 -3 11 -9c15 -100 82 -166 192 -166c129 0 198 85 198 232v417c0 7 6 13 13 13s13 -6 13 -13v-418zM492 838l92 -80c3 -3 5 -5 5 -9c0 -6 -6 -11 -11 -11c-3 0 -5 1 -6 2l-93 81
l-93 -81c-1 -1 -3 -2 -6 -2c-5 0 -11 5 -11 11c0 4 2 6 5 9l92 80c4 4 7 7 13 7s9 -4 13 -7z" />
    <glyph glyph-name="jcircumflex" unicode="&#x135;" 
d="M90 429c0 7 6 13 13 13s13 -6 13 -13v-471c0 -100 -30 -153 -125 -153h-23c-6 0 -11 5 -11 11s5 11 11 11h22c82 0 100 42 100 130v472zM116 623l92 -87c3 -3 5 -5 5 -9c0 -6 -6 -11 -11 -11c-3 0 -5 1 -6 2l-93 88l-93 -88c-1 -1 -3 -2 -6 -2c-5 0 -11 5 -11 11
c0 4 2 6 5 9l92 87c5 5 8 7 13 7s8 -2 13 -7z" />
    <glyph glyph-name="Kcommaaccent" unicode="&#x136;" horiz-adv-x="665" 
d="M582 652l-245 -240l257 -400c2 -3 3 -5 3 -8c0 -7 -6 -12 -13 -12c-5 0 -8 2 -10 5l-255 398l-188 -185v-205c0 -7 -6 -13 -13 -13s-13 6 -13 13v656c0 7 6 13 13 13s13 -6 13 -13v-417l434 426c3 3 6 4 9 4c7 0 13 -5 13 -12c0 -4 -2 -7 -5 -10zM325 -92c0 7 5 12 12 12
s12 -5 12 -12v-43c0 -50 -7 -84 -18 -123c-2 -8 -8 -11 -13 -11c-7 0 -14 6 -11 16c11 39 18 72 18 114v47z" />
    <glyph glyph-name="kcommaaccent" unicode="&#x137;" horiz-adv-x="477" 
d="M90 661c0 7 6 13 13 13s13 -6 13 -13v-448l280 225c4 3 7 4 10 4c7 0 12 -5 12 -12c0 -4 -2 -7 -7 -11l-200 -159l209 -246c4 -5 5 -8 5 -11c0 -5 -4 -11 -13 -11c-4 0 -7 2 -10 6l-210 247l-76 -62v-178c0 -7 -6 -13 -13 -13s-13 6 -13 13v656zM244 -92c0 7 5 12 12 12
s12 -5 12 -12v-43c0 -50 -7 -84 -18 -123c-2 -8 -8 -11 -13 -11c-7 0 -14 6 -11 16c11 39 18 72 18 114v47z" />
    <glyph glyph-name="kgreenlandic" unicode="&#x138;" horiz-adv-x="477" 
d="M90 429c0 7 6 13 13 13s13 -6 13 -13v-216l280 225c4 3 7 4 10 4c7 0 12 -5 12 -12c0 -4 -2 -7 -7 -11l-200 -159l209 -246c4 -5 5 -8 5 -11c0 -5 -4 -11 -13 -11c-4 0 -7 2 -10 6l-210 247l-76 -62v-178c0 -7 -6 -13 -13 -13s-13 6 -13 13v424z" />
    <glyph glyph-name="Lacute" unicode="&#x139;" horiz-adv-x="585" 
d="M131 24h392c7 0 12 -5 12 -12s-5 -12 -12 -12h-405c-7 0 -13 6 -13 13v648c0 7 6 13 13 13s13 -6 13 -13v-637zM198 826l-72 -83c-3 -3 -6 -5 -11 -5c-6 0 -10 5 -10 10c0 3 1 4 3 7l73 85c3 4 6 5 11 5s10 -5 10 -10c0 -4 -2 -7 -4 -9z" />
    <glyph glyph-name="lacute" unicode="&#x13a;" 
d="M90 661c0 7 6 13 13 13s13 -6 13 -13v-656c0 -7 -6 -13 -13 -13s-13 6 -13 13v656zM174 826l-72 -83c-3 -3 -6 -5 -11 -5c-6 0 -10 5 -10 10c0 3 1 4 3 7l73 85c3 4 6 5 11 5s10 -5 10 -10c0 -4 -2 -7 -4 -9z" />
    <glyph glyph-name="Lcommaaccent" unicode="&#x13b;" horiz-adv-x="585" 
d="M131 24h392c7 0 12 -5 12 -12s-5 -12 -12 -12h-405c-7 0 -13 6 -13 13v648c0 7 6 13 13 13s13 -6 13 -13v-637zM306 -92c0 7 5 12 12 12s12 -5 12 -12v-43c0 -50 -7 -84 -18 -123c-2 -8 -8 -11 -13 -11c-7 0 -14 6 -11 16c11 39 18 72 18 114v47z" />
    <glyph glyph-name="lcommaaccent" unicode="&#x13c;" 
d="M90 661c0 7 6 13 13 13s13 -6 13 -13v-656c0 -7 -6 -13 -13 -13s-13 6 -13 13v656zM92 -92c0 7 5 12 12 12s12 -5 12 -12v-43c0 -50 -7 -84 -18 -123c-2 -8 -8 -11 -13 -11c-7 0 -14 6 -11 16c11 39 18 72 18 114v47z" />
    <glyph glyph-name="Lcaron" unicode="&#x13d;" horiz-adv-x="585" 
d="M131 24h392c7 0 12 -5 12 -12s-5 -12 -12 -12h-405c-7 0 -13 6 -13 13v648c0 7 6 13 13 13s13 -6 13 -13v-637zM364 662c0 7 5 12 12 12s12 -5 12 -12v-43c0 -50 -9 -92 -20 -130c-2 -8 -8 -11 -13 -11c-7 0 -14 6 -11 16c11 39 20 75 20 121v47z" />
    <glyph glyph-name="lcaron" unicode="&#x13e;" horiz-adv-x="340" 
d="M90 661c0 7 6 13 13 13s13 -6 13 -13v-656c0 -7 -6 -13 -13 -13s-13 6 -13 13v656zM276 662c0 7 5 12 12 12s12 -5 12 -12v-43c0 -50 -9 -92 -20 -130c-2 -8 -8 -11 -13 -11c-7 0 -14 6 -11 16c11 39 20 75 20 121v47z" />
    <glyph glyph-name="Ldot" unicode="&#x13f;" horiz-adv-x="585" 
d="M131 24h392c7 0 12 -5 12 -12s-5 -12 -12 -12h-405c-7 0 -13 6 -13 13v648c0 7 6 13 13 13s13 -6 13 -13v-637zM326 361c0 7 6 13 13 13s13 -6 13 -13v-55c0 -7 -6 -13 -13 -13s-13 6 -13 13v55z" />
    <glyph glyph-name="ldot" unicode="&#x140;" horiz-adv-x="352" 
d="M90 661c0 7 6 13 13 13s13 -6 13 -13v-656c0 -7 -6 -13 -13 -13s-13 6 -13 13v656zM266 311c0 7 6 13 13 13s13 -6 13 -13v-55c0 -7 -6 -13 -13 -13s-13 6 -13 13v55z" />
    <glyph glyph-name="Lslash" unicode="&#x141;" horiz-adv-x="620" 
d="M166 24h392c7 0 12 -5 12 -12s-5 -12 -12 -12h-405c-7 0 -13 6 -13 13v331l-69 -19s-3 -1 -4 -1c-6 0 -11 4 -11 11s5 10 10 11l74 20v295c0 7 6 13 13 13s13 -6 13 -13v-288l214 60s4 1 5 1c6 0 11 -3 11 -10c0 -6 -4 -9 -11 -11l-219 -61v-328z" />
    <glyph glyph-name="lslash" unicode="&#x142;" horiz-adv-x="292" 
d="M236 413l-73 -21v-387c0 -7 -6 -13 -13 -13s-13 6 -13 13v380l-57 -16s-3 -1 -4 -1c-6 0 -11 4 -11 11s5 10 10 11l62 17v254c0 7 6 13 13 13s13 -6 13 -13v-247l68 19s4 1 5 1c6 0 11 -3 11 -10c0 -6 -4 -9 -11 -11z" />
    <glyph glyph-name="Nacute" unicode="&#x143;" horiz-adv-x="728" 
d="M597 661c0 7 6 13 13 13s13 -6 13 -13v-656c0 -7 -5 -13 -14 -13c-5 0 -9 4 -12 8l-466 625v-620c0 -7 -6 -13 -13 -13s-13 6 -13 13v656c0 8 6 13 13 13c6 0 10 -4 13 -8l466 -626v621zM429 826l-72 -83c-3 -3 -6 -5 -11 -5c-6 0 -10 5 -10 10c0 3 1 4 3 7l73 85
c3 4 6 5 11 5s10 -5 10 -10c0 -4 -2 -7 -4 -9z" />
    <glyph glyph-name="nacute" unicode="&#x144;" horiz-adv-x="572" 
d="M474 -8c-7 0 -13 6 -13 13v243c0 97 -73 173 -175 173s-175 -76 -175 -173v-243c0 -7 -6 -13 -13 -13s-13 6 -13 13v242c0 111 86 199 201 199s201 -88 201 -199v-242c0 -7 -6 -13 -13 -13zM341 631l-75 -109c-3 -4 -5 -5 -9 -5c-7 0 -11 5 -11 10c0 2 1 5 3 8l74 109
c2 3 5 6 10 6c6 0 11 -5 11 -10s-2 -7 -3 -9z" />
    <glyph glyph-name="Ncommaaccent" unicode="&#x145;" horiz-adv-x="728" 
d="M597 661c0 7 6 13 13 13s13 -6 13 -13v-656c0 -7 -5 -13 -14 -13c-5 0 -9 4 -12 8l-466 625v-620c0 -7 -6 -13 -13 -13s-13 6 -13 13v656c0 8 6 13 13 13c6 0 10 -4 13 -8l466 -626v621zM338 -92c0 7 5 12 12 12s12 -5 12 -12v-43c0 -50 -7 -84 -18 -123
c-2 -8 -8 -11 -13 -11c-7 0 -14 6 -11 16c11 39 18 72 18 114v47z" />
    <glyph glyph-name="ncommaaccent" unicode="&#x146;" horiz-adv-x="572" 
d="M474 -8c-7 0 -13 6 -13 13v243c0 97 -73 173 -175 173s-175 -76 -175 -173v-243c0 -7 -6 -13 -13 -13s-13 6 -13 13v242c0 111 86 199 201 199s201 -88 201 -199v-242c0 -7 -6 -13 -13 -13zM281 -92c0 7 5 12 12 12s12 -5 12 -12v-43c0 -50 -7 -84 -18 -123
c-2 -8 -8 -11 -13 -11c-7 0 -14 6 -11 16c11 39 18 72 18 114v47z" />
    <glyph glyph-name="Ncaron" unicode="&#x147;" horiz-adv-x="728" 
d="M597 661c0 7 6 13 13 13s13 -6 13 -13v-656c0 -7 -5 -13 -14 -13c-5 0 -9 4 -12 8l-466 625v-620c0 -7 -6 -13 -13 -13s-13 6 -13 13v656c0 8 6 13 13 13c6 0 10 -4 13 -8l466 -626v621zM469 821l-92 -80c-4 -3 -7 -7 -13 -7s-9 3 -13 7l-92 80c-3 3 -5 5 -5 9
c0 6 6 11 11 11c3 0 5 -1 6 -2l93 -81l93 81c1 1 3 2 6 2c5 0 11 -5 11 -11c0 -4 -2 -6 -5 -9z" />
    <glyph glyph-name="ncaron" unicode="&#x148;" horiz-adv-x="572" 
d="M474 -8c-7 0 -13 6 -13 13v243c0 97 -73 173 -175 173s-175 -76 -175 -173v-243c0 -7 -6 -13 -13 -13s-13 6 -13 13v242c0 111 86 199 201 199s201 -88 201 -199v-242c0 -7 -6 -13 -13 -13zM391 606l-92 -87c-5 -5 -8 -7 -13 -7s-8 2 -13 7l-92 87c-3 3 -5 5 -5 9
c0 6 6 11 11 11c3 0 5 -1 6 -2l93 -88l93 88c1 1 3 2 6 2c5 0 11 -5 11 -11c0 -4 -2 -6 -5 -9z" />
    <glyph glyph-name="napostrophe" unicode="&#x149;" horiz-adv-x="658" 
d="M54 624v38c0 7 5 12 12 12s12 -5 12 -12v-32c0 -52 -8 -103 -29 -148c-2 -5 -6 -9 -13 -9c-6 0 -11 5 -11 11c0 3 1 7 3 10c18 36 26 82 26 130zM560 -8c-7 0 -13 6 -13 13v243c0 97 -73 173 -175 173s-175 -76 -175 -173v-243c0 -7 -6 -13 -13 -13s-13 6 -13 13v242
c0 111 86 199 201 199s201 -88 201 -199v-242c0 -7 -6 -13 -13 -13z" />
    <glyph glyph-name="Eng" unicode="&#x14a;" horiz-adv-x="728" 
d="M623 661v-619c0 -105 -83 -181 -166 -233c-3 -2 -7 -4 -12 -4c-7 0 -11 5 -11 10c0 6 2 9 7 12c67 41 134 99 153 176l-463 622v-620c0 -7 -6 -13 -13 -13s-13 6 -13 13v656c0 8 6 13 13 13c6 0 10 -4 13 -8l466 -626v621c0 7 6 13 13 13s13 -6 13 -13z" />
    <glyph glyph-name="eng" unicode="&#x14b;" horiz-adv-x="572" 
d="M487 247v-167c0 -125 -55 -205 -127 -270c-2 -2 -5 -5 -11 -5s-11 6 -11 11c0 7 3 9 6 12c69 66 117 132 117 246v174c0 97 -73 173 -175 173s-175 -76 -175 -173v-243c0 -7 -6 -13 -13 -13s-13 6 -13 13v242c0 111 86 199 201 199s201 -88 201 -199z" />
    <glyph glyph-name="Omacron" unicode="&#x14c;" horiz-adv-x="792" 
d="M726 333c0 -177 -127 -345 -330 -345s-330 168 -330 345s127 345 330 345s330 -168 330 -345zM700 333c0 164 -116 321 -304 321s-304 -157 -304 -321s116 -321 304 -321s304 157 304 321zM521 784c0 -6 -5 -11 -11 -11h-227c-6 0 -11 5 -11 11s5 11 11 11h227
c6 0 11 -5 11 -11z" />
    <glyph glyph-name="omacron" unicode="&#x14d;" horiz-adv-x="578" 
d="M518 217c0 -127 -97 -229 -229 -229s-229 102 -229 229s97 229 229 229s229 -102 229 -229zM492 217c0 116 -87 205 -203 205s-203 -89 -203 -205s87 -205 203 -205s203 89 203 205zM414 561c0 -6 -5 -11 -11 -11h-227c-6 0 -11 5 -11 11s5 11 11 11h227
c6 0 11 -5 11 -11z" />
    <glyph glyph-name="Obreve" unicode="&#x14e;" horiz-adv-x="792" 
d="M726 333c0 -177 -127 -345 -330 -345s-330 168 -330 345s127 345 330 345s330 -168 330 -345zM700 333c0 164 -116 321 -304 321s-304 -157 -304 -321s116 -321 304 -321s304 157 304 321zM486 812c0 7 4 13 12 13s12 -6 12 -13c0 -59 -53 -84 -114 -84s-114 25 -114 84
c0 7 4 13 12 13s12 -6 12 -13c0 -49 41 -63 90 -63s90 14 90 63z" />
    <glyph glyph-name="obreve" unicode="&#x14f;" horiz-adv-x="578" 
d="M518 217c0 -127 -97 -229 -229 -229s-229 102 -229 229s97 229 229 229s229 -102 229 -229zM492 217c0 116 -87 205 -203 205s-203 -89 -203 -205s87 -205 203 -205s203 89 203 205zM379 603c0 7 4 13 12 13s12 -6 12 -13c0 -67 -46 -90 -114 -90s-114 23 -114 90
c0 7 4 13 12 13s12 -6 12 -13c0 -49 29 -69 90 -69s90 20 90 69z" />
    <glyph glyph-name="Ohungarumlaut" unicode="&#x150;" horiz-adv-x="792" 
d="M726 333c0 -177 -127 -345 -330 -345s-330 168 -330 345s127 345 330 345s330 -168 330 -345zM700 333c0 164 -116 321 -304 321s-304 -157 -304 -321s116 -321 304 -321s304 157 304 321zM401 826l-57 -83c-3 -4 -5 -5 -9 -5c-7 0 -11 5 -11 10c0 2 1 5 3 8l56 83
c2 3 5 6 10 6c6 0 11 -5 11 -10s-2 -7 -3 -9zM551 826l-57 -83c-3 -4 -5 -5 -9 -5c-7 0 -11 5 -11 10c0 2 1 5 3 8l56 83c2 3 5 6 10 6c6 0 11 -5 11 -10s-2 -7 -3 -9z" />
    <glyph glyph-name="ohungarumlaut" unicode="&#x151;" horiz-adv-x="578" 
d="M518 217c0 -127 -97 -229 -229 -229s-229 102 -229 229s97 229 229 229s229 -102 229 -229zM492 217c0 116 -87 205 -203 205s-203 -89 -203 -205s87 -205 203 -205s203 89 203 205zM305 631l-75 -109c-3 -4 -5 -5 -9 -5c-7 0 -11 5 -11 10c0 2 1 5 3 8l74 109
c2 3 5 6 10 6c6 0 11 -5 11 -10s-2 -7 -3 -9zM455 631l-75 -109c-3 -4 -5 -5 -9 -5c-7 0 -11 5 -11 10c0 2 1 5 3 8l74 109c2 3 5 6 10 6c6 0 11 -5 11 -10s-2 -7 -3 -9z" />
    <glyph glyph-name="OE" unicode="&#x152;" horiz-adv-x="1183" 
d="M700 653c0 7 6 13 13 13h396c7 0 12 -5 12 -12s-5 -12 -12 -12h-383v-276h217c7 0 12 -5 12 -12s-5 -12 -12 -12h-217v-318h397c7 0 12 -5 12 -12s-5 -12 -12 -12h-410c-7 0 -13 6 -13 13v191c-44 -118 -155 -216 -304 -216c-203 0 -330 168 -330 345s127 345 330 345
c149 0 264 -97 304 -217v192zM700 333c0 164 -116 321 -304 321s-304 -157 -304 -321s116 -321 304 -321s304 157 304 321z" />
    <glyph glyph-name="oe" unicode="&#x153;" horiz-adv-x="985" 
d="M930 225c0 -8 -5 -12 -13 -12h-398c0 -111 84 -202 202 -202c71 0 133 35 172 96c3 5 6 6 10 6c7 0 13 -5 13 -12c0 -3 -1 -6 -3 -9c-40 -62 -108 -104 -192 -104c-106 0 -190 69 -216 154c-28 -90 -113 -154 -216 -154c-132 0 -229 102 -229 229s97 229 229 229
c103 0 184 -62 215 -154c28 90 109 154 209 154c124 0 217 -101 217 -221zM492 217c0 116 -87 205 -203 205s-203 -89 -203 -205s87 -205 203 -205s203 89 203 205zM905 236c-4 100 -86 188 -192 188s-187 -83 -193 -188h385z" />
    <glyph glyph-name="Racute" unicode="&#x154;" horiz-adv-x="688" 
d="M105 653c0 7 6 13 13 13h307c114 0 183 -77 183 -176c0 -93 -61 -166 -162 -175l148 -304c1 -2 2 -5 2 -7c0 -6 -5 -12 -11 -12c-7 0 -11 3 -14 9l-152 313h-288v-307c0 -7 -6 -13 -13 -13s-13 6 -13 13v646zM429 643h-298v-306h298c92 0 153 65 153 153
s-61 153 -153 153zM398 826l-72 -83c-3 -3 -6 -5 -11 -5c-6 0 -10 5 -10 10c0 3 1 4 3 7l73 85c3 4 6 5 11 5s10 -5 10 -10c0 -4 -2 -7 -4 -9z" />
    <glyph glyph-name="racute" unicode="&#x155;" horiz-adv-x="323" 
d="M90 429c0 7 6 13 13 13s13 -6 13 -13v-99c26 65 103 112 181 112c6 0 10 -5 10 -11s-3 -11 -10 -11c-95 0 -181 -76 -181 -174v-241c0 -7 -6 -13 -13 -13s-13 6 -13 13v424zM251 631l-75 -109c-3 -4 -5 -5 -9 -5c-7 0 -11 5 -11 10c0 2 1 5 3 8l74 109c2 3 5 6 10 6
c6 0 11 -5 11 -10s-2 -7 -3 -9z" />
    <glyph glyph-name="Rcommaaccent" unicode="&#x156;" horiz-adv-x="688" 
d="M105 653c0 7 6 13 13 13h307c114 0 183 -77 183 -176c0 -93 -61 -166 -162 -175l148 -304c1 -2 2 -5 2 -7c0 -6 -5 -12 -11 -12c-7 0 -11 3 -14 9l-152 313h-288v-307c0 -7 -6 -13 -13 -13s-13 6 -13 13v646zM429 643h-298v-306h298c92 0 153 65 153 153
s-61 153 -153 153zM333 -92c0 7 5 12 12 12s12 -5 12 -12v-43c0 -50 -7 -84 -18 -123c-2 -8 -8 -11 -13 -11c-7 0 -14 6 -11 16c11 39 18 72 18 114v47z" />
    <glyph glyph-name="rcommaaccent" unicode="&#x157;" horiz-adv-x="323" 
d="M90 429c0 7 6 13 13 13s13 -6 13 -13v-99c26 65 103 112 181 112c6 0 10 -5 10 -11s-3 -11 -10 -11c-95 0 -181 -76 -181 -174v-241c0 -7 -6 -13 -13 -13s-13 6 -13 13v424zM91 -92c0 7 5 12 12 12s12 -5 12 -12v-43c0 -50 -7 -84 -18 -123c-2 -8 -8 -11 -13 -11
c-7 0 -14 6 -11 16c11 39 18 72 18 114v47z" />
    <glyph glyph-name="Rcaron" unicode="&#x158;" horiz-adv-x="688" 
d="M105 653c0 7 6 13 13 13h307c114 0 183 -77 183 -176c0 -93 -61 -166 -162 -175l148 -304c1 -2 2 -5 2 -7c0 -6 -5 -12 -11 -12c-7 0 -11 3 -14 9l-152 313h-288v-307c0 -7 -6 -13 -13 -13s-13 6 -13 13v646zM429 643h-298v-306h298c92 0 153 65 153 153
s-61 153 -153 153zM435 821l-92 -80c-4 -3 -7 -7 -13 -7s-9 3 -13 7l-92 80c-3 3 -5 5 -5 9c0 6 6 11 11 11c3 0 5 -1 6 -2l93 -81l93 81c1 1 3 2 6 2c5 0 11 -5 11 -11c0 -4 -2 -6 -5 -9z" />
    <glyph glyph-name="rcaron" unicode="&#x159;" horiz-adv-x="323" 
d="M90 429c0 7 6 13 13 13s13 -6 13 -13v-99c26 65 103 112 181 112c6 0 10 -5 10 -11s-3 -11 -10 -11c-95 0 -181 -76 -181 -174v-241c0 -7 -6 -13 -13 -13s-13 6 -13 13v424zM290 606l-92 -87c-5 -5 -8 -7 -13 -7s-8 2 -13 7l-92 87c-3 3 -5 5 -5 9c0 6 6 11 11 11
c3 0 5 -1 6 -2l93 -88l93 88c1 1 3 2 6 2c5 0 11 -5 11 -11c0 -4 -2 -6 -5 -9z" />
    <glyph glyph-name="Sacute" unicode="&#x15a;" horiz-adv-x="630" 
d="M541 603c6 -6 2 -18 -8 -18c-3 0 -6 1 -10 4c-59 44 -136 67 -210 67c-121 0 -210 -50 -210 -139c0 -94 83 -131 209 -169c185 -55 258 -98 258 -195c0 -101 -98 -165 -249 -165c-101 0 -197 44 -254 90c-6 4 -7 11 -3 16s12 6 18 1c63 -50 159 -85 239 -85
c130 0 223 55 223 144c0 88 -77 124 -230 169c-175 51 -237 103 -237 195c0 104 108 160 236 160c93 0 172 -27 228 -75zM389 826l-72 -83c-3 -3 -6 -5 -11 -5c-6 0 -10 5 -10 10c0 3 1 4 3 7l73 85c3 4 6 5 11 5s10 -5 10 -10c0 -4 -2 -7 -4 -9z" />
    <glyph glyph-name="sacute" unicode="&#x15b;" horiz-adv-x="457" 
d="M407 101c0 -66 -61 -113 -166 -113c-60 0 -133 26 -177 68c-2 2 -4 5 -4 8c0 7 5 12 12 12c4 0 7 -2 9 -4c43 -40 111 -62 160 -62c89 0 140 38 140 90c0 56 -44 84 -138 108c-113 29 -173 63 -173 129c0 73 70 109 168 109c48 0 100 -12 146 -40c5 -3 7 -6 7 -10
c0 -6 -4 -12 -12 -12c-2 0 -5 1 -8 3c-34 21 -89 37 -133 37c-81 0 -142 -24 -142 -86c0 -58 53 -80 145 -106c121 -34 166 -65 166 -131zM297 631l-75 -109c-3 -4 -5 -5 -9 -5c-7 0 -11 5 -11 10c0 2 1 5 3 8l74 109c2 3 5 6 10 6c6 0 11 -5 11 -10s-2 -7 -3 -9z" />
    <glyph glyph-name="Scircumflex" unicode="&#x15c;" horiz-adv-x="630" 
d="M541 603c6 -6 2 -18 -8 -18c-3 0 -6 1 -10 4c-59 44 -136 67 -210 67c-121 0 -210 -50 -210 -139c0 -94 83 -131 209 -169c185 -55 258 -98 258 -195c0 -101 -98 -165 -249 -165c-101 0 -197 44 -254 90c-6 4 -7 11 -3 16s12 6 18 1c63 -50 159 -85 239 -85
c130 0 223 55 223 144c0 88 -77 124 -230 169c-175 51 -237 103 -237 195c0 104 108 160 236 160c93 0 172 -27 228 -75zM340 838l92 -80c3 -3 5 -5 5 -9c0 -6 -6 -11 -11 -11c-3 0 -5 1 -6 2l-93 81l-93 -81c-1 -1 -3 -2 -6 -2c-5 0 -11 5 -11 11c0 4 2 6 5 9l92 80
c4 4 7 7 13 7s9 -4 13 -7z" />
    <glyph glyph-name="scircumflex" unicode="&#x15d;" horiz-adv-x="457" 
d="M407 101c0 -66 -61 -113 -166 -113c-60 0 -133 26 -177 68c-2 2 -4 5 -4 8c0 7 5 12 12 12c4 0 7 -2 9 -4c43 -40 111 -62 160 -62c89 0 140 38 140 90c0 56 -44 84 -138 108c-113 29 -173 63 -173 129c0 73 70 109 168 109c48 0 100 -12 146 -40c5 -3 7 -6 7 -10
c0 -6 -4 -12 -12 -12c-2 0 -5 1 -8 3c-34 21 -89 37 -133 37c-81 0 -142 -24 -142 -86c0 -58 53 -80 145 -106c121 -34 166 -65 166 -131zM255 623l92 -87c3 -3 5 -5 5 -9c0 -6 -6 -11 -11 -11c-3 0 -5 1 -6 2l-93 88l-93 -88c-1 -1 -3 -2 -6 -2c-5 0 -11 5 -11 11
c0 4 2 6 5 9l92 87c5 5 8 7 13 7s8 -2 13 -7z" />
    <glyph glyph-name="Scedilla" unicode="&#x15e;" horiz-adv-x="630" 
d="M265 -159c20 -8 44 -14 67 -14c43 0 64 17 64 44c0 32 -28 45 -64 45c-16 0 -32 -2 -42 -4c0 0 -5 -1 -8 -1c-7 0 -11 4 -11 9c0 3 1 5 2 7l31 62c-95 4 -183 45 -237 89c-6 4 -7 11 -3 16s12 6 18 1c63 -50 159 -85 239 -85c130 0 223 55 223 144c0 88 -77 124 -230 169
c-175 51 -237 103 -237 195c0 104 108 160 236 160c93 0 172 -27 228 -75c6 -6 2 -18 -8 -18c-3 0 -6 1 -10 4c-59 44 -136 67 -210 67c-121 0 -210 -50 -210 -139c0 -94 83 -131 209 -169c185 -55 258 -98 258 -195c0 -100 -95 -163 -242 -165l-28 -55c12 3 26 4 38 4
c44 0 83 -19 83 -65c0 -39 -31 -67 -89 -67c-28 0 -54 6 -76 15c-5 2 -8 6 -8 11c0 7 7 14 17 10z" />
    <glyph glyph-name="Scedilla" unicode="&#xf6c1;" horiz-adv-x="630" 
d="M265 -159c20 -8 44 -14 67 -14c43 0 64 17 64 44c0 32 -28 45 -64 45c-16 0 -32 -2 -42 -4c0 0 -5 -1 -8 -1c-7 0 -11 4 -11 9c0 3 1 5 2 7l31 62c-95 4 -183 45 -237 89c-6 4 -7 11 -3 16s12 6 18 1c63 -50 159 -85 239 -85c130 0 223 55 223 144c0 88 -77 124 -230 169
c-175 51 -237 103 -237 195c0 104 108 160 236 160c93 0 172 -27 228 -75c6 -6 2 -18 -8 -18c-3 0 -6 1 -10 4c-59 44 -136 67 -210 67c-121 0 -210 -50 -210 -139c0 -94 83 -131 209 -169c185 -55 258 -98 258 -195c0 -100 -95 -163 -242 -165l-28 -55c12 3 26 4 38 4
c44 0 83 -19 83 -65c0 -39 -31 -67 -89 -67c-28 0 -54 6 -76 15c-5 2 -8 6 -8 11c0 7 7 14 17 10z" />
    <glyph glyph-name="scedilla" unicode="&#x15f;" horiz-adv-x="457" 
d="M181 -159c20 -8 44 -14 67 -14c43 0 64 17 64 44c0 32 -28 45 -64 45c-16 0 -32 -2 -42 -4c0 0 -5 -1 -8 -1c-7 0 -11 4 -11 9c0 3 1 5 2 7l31 62c-55 5 -117 29 -156 67c-2 2 -4 5 -4 8c0 7 5 12 12 12c4 0 7 -2 9 -4c43 -40 111 -62 160 -62c89 0 140 38 140 90
c0 56 -44 84 -138 108c-113 29 -173 65 -173 129c0 73 70 109 168 109c48 0 100 -12 146 -40c5 -3 7 -6 7 -10c0 -6 -4 -12 -12 -12c-2 0 -5 1 -8 3c-34 21 -89 37 -133 37c-81 0 -142 -24 -142 -86c0 -58 53 -81 145 -106c121 -33 166 -68 166 -131
c0 -66 -60 -112 -163 -113l-28 -55c12 3 26 4 38 4c44 0 83 -19 83 -65c0 -39 -31 -67 -89 -67c-28 0 -54 6 -76 15c-5 2 -8 6 -8 11c0 7 7 14 17 10z" />
    <glyph glyph-name="scedilla" unicode="&#xf6c2;" horiz-adv-x="457" 
d="M181 -159c20 -8 44 -14 67 -14c43 0 64 17 64 44c0 32 -28 45 -64 45c-16 0 -32 -2 -42 -4c0 0 -5 -1 -8 -1c-7 0 -11 4 -11 9c0 3 1 5 2 7l31 62c-55 5 -117 29 -156 67c-2 2 -4 5 -4 8c0 7 5 12 12 12c4 0 7 -2 9 -4c43 -40 111 -62 160 -62c89 0 140 38 140 90
c0 56 -44 84 -138 108c-113 29 -173 65 -173 129c0 73 70 109 168 109c48 0 100 -12 146 -40c5 -3 7 -6 7 -10c0 -6 -4 -12 -12 -12c-2 0 -5 1 -8 3c-34 21 -89 37 -133 37c-81 0 -142 -24 -142 -86c0 -58 53 -81 145 -106c121 -33 166 -68 166 -131
c0 -66 -60 -112 -163 -113l-28 -55c12 3 26 4 38 4c44 0 83 -19 83 -65c0 -39 -31 -67 -89 -67c-28 0 -54 6 -76 15c-5 2 -8 6 -8 11c0 7 7 14 17 10z" />
    <glyph glyph-name="Scaron" unicode="&#x160;" horiz-adv-x="630" 
d="M541 603c6 -6 2 -18 -8 -18c-3 0 -6 1 -10 4c-59 44 -136 67 -210 67c-121 0 -210 -50 -210 -139c0 -94 83 -131 209 -169c185 -55 258 -98 258 -195c0 -101 -98 -165 -249 -165c-101 0 -197 44 -254 90c-6 4 -7 11 -3 16s12 6 18 1c63 -50 159 -85 239 -85
c130 0 223 55 223 144c0 88 -77 124 -230 169c-175 51 -237 103 -237 195c0 104 108 160 236 160c93 0 172 -27 228 -75zM432 821l-92 -80c-4 -3 -7 -7 -13 -7s-9 3 -13 7l-92 80c-3 3 -5 5 -5 9c0 6 6 11 11 11c3 0 5 -1 6 -2l93 -81l93 81c1 1 3 2 6 2c5 0 11 -5 11 -11
c0 -4 -2 -6 -5 -9z" />
    <glyph glyph-name="scaron" unicode="&#x161;" horiz-adv-x="457" 
d="M407 101c0 -66 -61 -113 -166 -113c-60 0 -133 26 -177 68c-2 2 -4 5 -4 8c0 7 5 12 12 12c4 0 7 -2 9 -4c43 -40 111 -62 160 -62c89 0 140 38 140 90c0 56 -44 84 -138 108c-113 29 -173 63 -173 129c0 73 70 109 168 109c48 0 100 -12 146 -40c5 -3 7 -6 7 -10
c0 -6 -4 -12 -12 -12c-2 0 -5 1 -8 3c-34 21 -89 37 -133 37c-81 0 -142 -24 -142 -86c0 -58 53 -80 145 -106c121 -34 166 -65 166 -131zM349 606l-92 -87c-5 -5 -8 -7 -13 -7s-8 2 -13 7l-92 87c-3 3 -5 5 -5 9c0 6 6 11 11 11c3 0 5 -1 6 -2l93 -88l93 88c1 1 3 2 6 2
c5 0 11 -5 11 -11c0 -4 -2 -6 -5 -9z" />
    <glyph glyph-name="Tcommaaccent" unicode="&#x162;" horiz-adv-x="584" 
d="M540 642h-235v-637c0 -7 -6 -13 -13 -13s-13 6 -13 13v637h-235c-7 0 -12 5 -12 12s5 12 12 12h496c7 0 12 -5 12 -12s-5 -12 -12 -12zM279 -92c0 7 5 12 12 12s12 -5 12 -12v-43c0 -50 -7 -84 -18 -123c-2 -8 -8 -11 -13 -11c-7 0 -14 6 -11 16c11 39 18 72 18 114v47z
" />
    <glyph glyph-name="Tcommaaccent" unicode="&#x21a;" horiz-adv-x="584" 
d="M540 642h-235v-637c0 -7 -6 -13 -13 -13s-13 6 -13 13v637h-235c-7 0 -12 5 -12 12s5 12 12 12h496c7 0 12 -5 12 -12s-5 -12 -12 -12zM279 -92c0 7 5 12 12 12s12 -5 12 -12v-43c0 -50 -7 -84 -18 -123c-2 -8 -8 -11 -13 -11c-7 0 -14 6 -11 16c11 39 18 72 18 114v47z
" />
    <glyph glyph-name="tcommaaccent" unicode="&#x163;" horiz-adv-x="308" 
d="M302 423c0 -6 -5 -11 -11 -11h-124v-407c0 -7 -6 -13 -13 -13s-13 6 -13 13v407h-104c-6 0 -11 5 -11 11s5 11 11 11h104v149c0 7 6 13 13 13s13 -6 13 -13v-149h124c6 0 11 -5 11 -11zM143 -92c0 7 5 12 12 12s12 -5 12 -12v-43c0 -50 -7 -84 -18 -123
c-2 -8 -8 -11 -13 -11c-7 0 -14 6 -11 16c11 39 18 72 18 114v47z" />
    <glyph glyph-name="tcommaaccent" unicode="&#x21b;" horiz-adv-x="308" 
d="M302 423c0 -6 -5 -11 -11 -11h-124v-407c0 -7 -6 -13 -13 -13s-13 6 -13 13v407h-104c-6 0 -11 5 -11 11s5 11 11 11h104v149c0 7 6 13 13 13s13 -6 13 -13v-149h124c6 0 11 -5 11 -11zM143 -92c0 7 5 12 12 12s12 -5 12 -12v-43c0 -50 -7 -84 -18 -123
c-2 -8 -8 -11 -13 -11c-7 0 -14 6 -11 16c11 39 18 72 18 114v47z" />
    <glyph glyph-name="Tcaron" unicode="&#x164;" horiz-adv-x="584" 
d="M540 642h-235v-637c0 -7 -6 -13 -13 -13s-13 6 -13 13v637h-235c-7 0 -12 5 -12 12s5 12 12 12h496c7 0 12 -5 12 -12s-5 -12 -12 -12zM397 821l-92 -80c-4 -3 -7 -7 -13 -7s-9 3 -13 7l-92 80c-3 3 -5 5 -5 9c0 6 6 11 11 11c3 0 5 -1 6 -2l93 -81l93 81c1 1 3 2 6 2
c5 0 11 -5 11 -11c0 -4 -2 -6 -5 -9z" />
    <glyph glyph-name="tcaron" unicode="&#x165;" horiz-adv-x="335" 
d="M302 423c0 -6 -5 -11 -11 -11h-124v-407c0 -7 -6 -13 -13 -13s-13 6 -13 13v407h-104c-6 0 -11 5 -11 11s5 11 11 11h104v149c0 7 6 13 13 13s13 -6 13 -13v-149h124c6 0 11 -5 11 -11zM311 702c0 7 5 12 12 12s12 -5 12 -12v-38c0 -41 -4 -68 -14 -104
c-2 -8 -6 -14 -14 -14c-7 0 -14 6 -11 16c9 32 15 64 15 98v42z" />
    <glyph glyph-name="Tbar" unicode="&#x166;" horiz-adv-x="610" 
d="M553 642h-235v-276h204c7 0 12 -4 12 -11s-5 -11 -12 -11h-204v-339c0 -7 -6 -13 -13 -13s-13 6 -13 13v339h-204c-7 0 -12 4 -12 11s5 11 12 11h204v276h-235c-7 0 -12 5 -12 12s5 12 12 12h496c7 0 12 -5 12 -12s-5 -12 -12 -12z" />
    <glyph glyph-name="tbar" unicode="&#x167;" horiz-adv-x="331" 
d="M306 423c0 -6 -5 -11 -11 -11h-124v-178h123c7 0 12 -4 12 -11s-5 -11 -12 -11h-123v-207c0 -7 -6 -13 -13 -13s-13 6 -13 13v207h-103c-7 0 -12 4 -12 11s5 11 12 11h103v178h-104c-6 0 -11 5 -11 11s5 11 11 11h104v149c0 7 6 13 13 13s13 -6 13 -13v-149h124
c6 0 11 -5 11 -11z" />
    <glyph glyph-name="Utilde" unicode="&#x168;" horiz-adv-x="744" 
d="M126 255c0 -144 97 -244 246 -244s246 100 246 244v406c0 7 6 13 13 13s13 -6 13 -13v-400c0 -167 -111 -273 -272 -273s-272 106 -272 273v400c0 7 6 13 13 13s13 -6 13 -13v-406zM501 811c5 0 10 -4 10 -9c0 -4 -2 -7 -4 -10c-18 -22 -37 -45 -69 -45
c-27 0 -41 10 -62 22s-30 22 -53 22c-24 0 -39 -17 -52 -35c-3 -4 -6 -6 -11 -6s-11 4 -11 9c0 4 1 6 3 9c18 23 39 45 70 45c28 0 42 -12 64 -25c21 -13 32 -19 51 -19c23 0 35 13 53 36c3 4 7 6 11 6z" />
    <glyph glyph-name="utilde" unicode="&#x169;" horiz-adv-x="572" 
d="M474 442c7 0 13 -6 13 -13v-242c0 -111 -86 -199 -201 -199s-201 88 -201 199v242c0 7 6 13 13 13s13 -6 13 -13v-243c0 -97 73 -173 175 -173s175 76 175 173v243c0 7 6 13 13 13zM416 591c5 0 10 -4 10 -9c0 -4 -2 -7 -4 -10c-18 -22 -37 -45 -69 -45
c-27 0 -41 10 -62 22s-30 22 -53 22c-24 0 -39 -17 -52 -35c-3 -4 -6 -6 -11 -6s-11 4 -11 9c0 4 1 6 3 9c18 23 39 45 70 45c28 0 42 -12 64 -25c21 -13 32 -19 51 -19c23 0 35 13 53 36c3 4 7 6 11 6z" />
    <glyph glyph-name="Umacron" unicode="&#x16a;" horiz-adv-x="744" 
d="M126 255c0 -144 97 -244 246 -244s246 100 246 244v406c0 7 6 13 13 13s13 -6 13 -13v-400c0 -167 -111 -273 -272 -273s-272 106 -272 273v400c0 7 6 13 13 13s13 -6 13 -13v-406zM498 784c0 -6 -5 -11 -11 -11h-227c-6 0 -11 5 -11 11s5 11 11 11h227c6 0 11 -5 11 -11
z" />
    <glyph glyph-name="umacron" unicode="&#x16b;" horiz-adv-x="572" 
d="M474 442c7 0 13 -6 13 -13v-242c0 -111 -86 -199 -201 -199s-201 88 -201 199v242c0 7 6 13 13 13s13 -6 13 -13v-243c0 -97 73 -173 175 -173s175 76 175 173v243c0 7 6 13 13 13zM411 561c0 -6 -5 -11 -11 -11h-227c-6 0 -11 5 -11 11s5 11 11 11h227c6 0 11 -5 11 -11
z" />
    <glyph glyph-name="Ubreve" unicode="&#x16c;" horiz-adv-x="744" 
d="M126 255c0 -144 97 -244 246 -244s246 100 246 244v406c0 7 6 13 13 13s13 -6 13 -13v-400c0 -167 -111 -273 -272 -273s-272 106 -272 273v400c0 7 6 13 13 13s13 -6 13 -13v-406zM462 812c0 7 4 13 12 13s12 -6 12 -13c0 -59 -53 -84 -114 -84s-114 25 -114 84
c0 7 4 13 12 13s12 -6 12 -13c0 -49 41 -63 90 -63s90 14 90 63z" />
    <glyph glyph-name="ubreve" unicode="&#x16d;" horiz-adv-x="572" 
d="M474 442c7 0 13 -6 13 -13v-242c0 -111 -86 -199 -201 -199s-201 88 -201 199v242c0 7 6 13 13 13s13 -6 13 -13v-243c0 -97 73 -173 175 -173s175 76 175 173v243c0 7 6 13 13 13zM376 603c0 7 4 13 12 13s12 -6 12 -13c0 -67 -46 -90 -114 -90s-114 23 -114 90
c0 7 4 13 12 13s12 -6 12 -13c0 -49 29 -69 90 -69s90 20 90 69z" />
    <glyph glyph-name="Uring" unicode="&#x16e;" horiz-adv-x="744" 
d="M126 255c0 -144 97 -244 246 -244s246 100 246 244v406c0 7 6 13 13 13s13 -6 13 -13v-400c0 -167 -111 -273 -272 -273s-272 106 -272 273v400c0 7 6 13 13 13s13 -6 13 -13v-406zM437 790c0 -36 -27 -65 -65 -65s-65 29 -65 65s27 65 65 65s65 -29 65 -65zM416 790
c0 27 -18 46 -44 46s-44 -19 -44 -46s18 -46 44 -46s44 19 44 46z" />
    <glyph glyph-name="uring" unicode="&#x16f;" horiz-adv-x="572" 
d="M474 442c7 0 13 -6 13 -13v-242c0 -111 -86 -199 -201 -199s-201 88 -201 199v242c0 7 6 13 13 13s13 -6 13 -13v-243c0 -97 73 -173 175 -173s175 76 175 173v243c0 7 6 13 13 13zM351 569c0 -36 -27 -65 -65 -65s-65 29 -65 65s27 65 65 65s65 -29 65 -65zM330 569
c0 27 -18 46 -44 46s-44 -19 -44 -46s18 -46 44 -46s44 19 44 46z" />
    <glyph glyph-name="Uhungarumlaut" unicode="&#x170;" horiz-adv-x="744" 
d="M126 255c0 -144 97 -244 246 -244s246 100 246 244v406c0 7 6 13 13 13s13 -6 13 -13v-400c0 -167 -111 -273 -272 -273s-272 106 -272 273v400c0 7 6 13 13 13s13 -6 13 -13v-406zM355 826l-57 -83c-3 -4 -5 -5 -9 -5c-7 0 -11 5 -11 10c0 2 1 5 3 8l56 83c2 3 5 6 10 6
c6 0 11 -5 11 -10s-2 -7 -3 -9zM505 826l-57 -83c-3 -4 -5 -5 -9 -5c-7 0 -11 5 -11 10c0 2 1 5 3 8l56 83c2 3 5 6 10 6c6 0 11 -5 11 -10s-2 -7 -3 -9z" />
    <glyph glyph-name="uhungarumlaut" unicode="&#x171;" horiz-adv-x="572" 
d="M474 442c7 0 13 -6 13 -13v-242c0 -111 -86 -199 -201 -199s-201 88 -201 199v242c0 7 6 13 13 13s13 -6 13 -13v-243c0 -97 73 -173 175 -173s175 76 175 173v243c0 7 6 13 13 13zM288 631l-75 -109c-3 -4 -5 -5 -9 -5c-7 0 -11 5 -11 10c0 2 1 5 3 8l74 109
c2 3 5 6 10 6c6 0 11 -5 11 -10s-2 -7 -3 -9zM438 631l-75 -109c-3 -4 -5 -5 -9 -5c-7 0 -11 5 -11 10c0 2 1 5 3 8l74 109c2 3 5 6 10 6c6 0 11 -5 11 -10s-2 -7 -3 -9z" />
    <glyph glyph-name="Uogonek" unicode="&#x172;" horiz-adv-x="744" 
d="M126 255c0 -144 97 -244 246 -244s246 100 246 244v406c0 7 6 13 13 13s13 -6 13 -13v-400c0 -114 -44 -178 -115 -231c-46 -34 -138 -93 -138 -149c0 -29 18 -44 55 -44c10 0 23 1 35 4c9 2 15 -2 15 -9c0 -5 -3 -8 -8 -10c-10 -4 -29 -7 -44 -7c-56 0 -79 27 -79 64
c0 55 72 106 104 123c-29 -9 -62 -14 -97 -14c-161 0 -272 106 -272 273v400c0 7 6 13 13 13s13 -6 13 -13v-406z" />
    <glyph glyph-name="uogonek" unicode="&#x173;" horiz-adv-x="572" 
d="M258 -119c0 50 50 91 93 117c-20 -6 -42 -10 -65 -10c-115 0 -201 88 -201 199v242c0 7 6 13 13 13s13 -6 13 -13v-243c0 -97 73 -173 175 -173s175 76 175 173v243c0 7 6 13 13 13s13 -6 13 -13v-242c0 -60 -24 -106 -60 -143c-30 -31 -143 -97 -143 -161
c0 -28 16 -46 60 -46c10 0 18 1 30 4c9 2 15 -2 15 -9c0 -5 -3 -8 -8 -10c-10 -4 -24 -7 -39 -7c-59 0 -84 29 -84 66z" />
    <glyph glyph-name="Wcircumflex" unicode="&#x174;" horiz-adv-x="980" 
d="M503 663l211 -621l200 623c2 6 6 9 12 9c7 0 12 -5 12 -12c0 -1 -1 -4 -1 -4l-211 -657c-2 -5 -5 -9 -11 -9c-7 0 -10 4 -12 9l-213 626l-213 -626c-2 -5 -5 -9 -12 -9c-6 0 -9 4 -11 9l-211 657s-1 3 -1 4c0 7 5 12 12 12c6 0 10 -3 12 -9l200 -623l211 621
c2 7 7 11 13 11s11 -4 13 -11zM503 838l92 -80c3 -3 5 -5 5 -9c0 -6 -6 -11 -11 -11c-3 0 -5 1 -6 2l-93 81l-93 -81c-1 -1 -3 -2 -6 -2c-5 0 -11 5 -11 11c0 4 2 6 5 9l92 80c4 4 7 7 13 7s9 -4 13 -7z" />
    <glyph glyph-name="wcircumflex" unicode="&#x175;" horiz-adv-x="672" 
d="M348 433l136 -391l132 392c2 5 5 8 11 8c7 0 13 -4 13 -11c0 -3 -1 -6 -2 -9l-143 -421c-2 -6 -6 -9 -11 -9c-6 0 -10 3 -12 9l-136 388l-136 -388c-2 -6 -6 -9 -12 -9c-5 0 -9 3 -11 9l-143 421c-1 3 -2 6 -2 9c0 7 6 11 13 11c6 0 9 -3 11 -8l132 -392l136 391
c2 5 5 9 12 9s10 -4 12 -9zM349 623l92 -87c3 -3 5 -5 5 -9c0 -6 -6 -11 -11 -11c-3 0 -5 1 -6 2l-93 88l-93 -88c-1 -1 -3 -2 -6 -2c-5 0 -11 5 -11 11c0 4 2 6 5 9l92 87c5 5 8 7 13 7s8 -2 13 -7z" />
    <glyph glyph-name="Ycircumflex" unicode="&#x176;" horiz-adv-x="590" 
d="M56 667l239 -352l239 352c4 5 7 7 13 7s11 -5 11 -12c0 -2 -1 -5 -3 -8l-247 -362v-287c0 -7 -6 -13 -13 -13s-13 6 -13 13v287l-247 362c-2 3 -3 6 -3 8c0 7 5 12 11 12s9 -2 13 -7zM309 838l92 -80c3 -3 5 -5 5 -9c0 -6 -6 -11 -11 -11c-3 0 -5 1 -6 2l-93 81l-93 -81
c-1 -1 -3 -2 -6 -2c-5 0 -11 5 -11 11c0 4 2 6 5 9l92 80c4 4 7 7 13 7s9 -4 13 -7z" />
    <glyph glyph-name="ycircumflex" unicode="&#x177;" horiz-adv-x="456" 
d="M232 32l176 401c2 5 5 9 12 9c8 0 12 -5 12 -11c0 -3 -1 -5 -2 -8l-186 -423c-41 -93 -97 -164 -189 -193c-3 -1 -6 -2 -10 -2c-8 0 -12 6 -12 12c0 8 5 11 12 13c83 24 131 84 173 173l-184 420c-1 3 -2 5 -2 8c0 6 4 11 12 11c7 0 10 -4 12 -9zM248 623l92 -87
c3 -3 5 -5 5 -9c0 -6 -6 -11 -11 -11c-3 0 -5 1 -6 2l-93 88l-93 -88c-1 -1 -3 -2 -6 -2c-5 0 -11 5 -11 11c0 4 2 6 5 9l92 87c5 5 8 7 13 7s8 -2 13 -7z" />
    <glyph glyph-name="Ydieresis" unicode="&#x178;" horiz-adv-x="590" 
d="M56 667l239 -352l239 352c4 5 7 7 13 7s11 -5 11 -12c0 -2 -1 -5 -3 -8l-247 -362v-287c0 -7 -6 -13 -13 -13s-13 6 -13 13v287l-247 362c-2 3 -3 6 -3 8c0 7 5 12 11 12s9 -2 13 -7zM186 788c0 14 11 25 25 25s25 -11 25 -25s-11 -25 -25 -25s-25 11 -25 25zM355 788
c0 14 11 25 25 25s25 -11 25 -25s-11 -25 -25 -25s-25 11 -25 25z" />
    <glyph glyph-name="Zacute" unicode="&#x179;" horiz-adv-x="624" 
d="M99 0c-8 0 -14 4 -14 11c0 4 2 7 4 10l432 623h-409c-6 0 -11 5 -11 11s5 11 11 11h428c7 0 12 -5 12 -12c0 -4 -2 -8 -5 -12l-429 -620h433c6 0 11 -5 11 -11s-5 -11 -11 -11h-452zM390 826l-72 -83c-3 -3 -6 -5 -11 -5c-6 0 -10 5 -10 10c0 3 1 4 3 7l73 85
c3 4 6 5 11 5s10 -5 10 -10c0 -4 -2 -7 -4 -9z" />
    <glyph glyph-name="zacute" unicode="&#x17a;" horiz-adv-x="470" 
d="M415 11c0 -6 -5 -11 -11 -11h-325c-6 0 -11 5 -11 11c0 4 2 6 4 9l305 392h-296c-6 0 -11 5 -11 11s5 11 11 11h321c7 0 11 -5 11 -10c0 -3 -1 -6 -3 -9l-307 -393h301c6 0 11 -5 11 -11zM304 631l-75 -109c-3 -4 -5 -5 -9 -5c-7 0 -11 5 -11 10c0 2 1 5 3 8l74 109
c2 3 5 6 10 6c6 0 11 -5 11 -10s-2 -7 -3 -9z" />
    <glyph glyph-name="Zdotaccent" unicode="&#x17b;" horiz-adv-x="624" 
d="M99 0c-8 0 -14 4 -14 11c0 4 2 7 4 10l432 623h-409c-6 0 -11 5 -11 11s5 11 11 11h428c7 0 12 -5 12 -12c0 -4 -2 -8 -5 -12l-429 -620h433c6 0 11 -5 11 -11s-5 -11 -11 -11h-452zM309 826c0 7 6 13 13 13s13 -6 13 -13v-69c0 -7 -6 -13 -13 -13s-13 6 -13 13v69z" />
    <glyph glyph-name="zdotaccent" unicode="&#x17c;" horiz-adv-x="470" 
d="M415 11c0 -6 -5 -11 -11 -11h-325c-6 0 -11 5 -11 11c0 4 2 6 4 9l305 392h-296c-6 0 -11 5 -11 11s5 11 11 11h321c7 0 11 -5 11 -10c0 -3 -1 -6 -3 -9l-307 -393h301c6 0 11 -5 11 -11zM228 607c0 7 6 13 13 13s13 -6 13 -13v-69c0 -7 -6 -13 -13 -13s-13 6 -13 13v69z
" />
    <glyph glyph-name="Zcaron" unicode="&#x17d;" horiz-adv-x="624" 
d="M99 0c-8 0 -14 4 -14 11c0 4 2 7 4 10l432 623h-409c-6 0 -11 5 -11 11s5 11 11 11h428c7 0 12 -5 12 -12c0 -4 -2 -8 -5 -12l-429 -620h433c6 0 11 -5 11 -11s-5 -11 -11 -11h-452zM433 821l-92 -80c-4 -3 -7 -7 -13 -7s-9 3 -13 7l-92 80c-3 3 -5 5 -5 9
c0 6 6 11 11 11c3 0 5 -1 6 -2l93 -81l93 81c1 1 3 2 6 2c5 0 11 -5 11 -11c0 -4 -2 -6 -5 -9z" />
    <glyph glyph-name="zcaron" unicode="&#x17e;" horiz-adv-x="470" 
d="M415 11c0 -6 -5 -11 -11 -11h-325c-6 0 -11 5 -11 11c0 4 2 6 4 9l305 392h-296c-6 0 -11 5 -11 11s5 11 11 11h321c7 0 11 -5 11 -10c0 -3 -1 -6 -3 -9l-307 -393h301c6 0 11 -5 11 -11zM351 606l-92 -87c-5 -5 -8 -7 -13 -7s-8 2 -13 7l-92 87c-3 3 -5 5 -5 9
c0 6 6 11 11 11c3 0 5 -1 6 -2l93 -88l93 88c1 1 3 2 6 2c5 0 11 -5 11 -11c0 -4 -2 -6 -5 -9z" />
    <glyph glyph-name="florin" unicode="&#x192;" horiz-adv-x="543" 
d="M493 664c0 -7 -7 -11 -13 -11h-29c-96 0 -120 -34 -137 -134l-24 -140h96c5 0 12 -3 12 -11c0 -6 -5 -11 -12 -11h-100l-70 -392c-20 -112 -51 -160 -169 -160h-20c-7 0 -12 5 -12 11c0 7 6 11 13 11h25c91 0 119 36 136 134l71 396h-70c-7 0 -12 5 -12 11
c0 7 5 11 13 11h73l25 141c20 115 56 155 168 155h24c6 0 12 -4 12 -11z" />
    <glyph glyph-name="Aringacute" unicode="&#x1fa;" horiz-adv-x="714" 
d="M422 720c0 -31 -20 -56 -49 -63l289 -645c1 -2 2 -4 2 -6c0 -8 -6 -14 -13 -14c-6 0 -10 3 -12 7l-98 220h-369l-97 -220c-2 -4 -6 -7 -12 -7c-7 0 -13 6 -13 14c0 2 1 4 2 6l289 645c-30 7 -49 32 -49 63c0 36 27 65 65 65s65 -29 65 -65zM357 637l-174 -394h348z
M401 720c0 27 -18 46 -44 46s-44 -19 -44 -46s18 -46 44 -46s44 19 44 46zM416 890l-46 -53c-3 -3 -6 -5 -11 -5c-6 0 -10 5 -10 10c0 3 1 4 3 7l47 55c3 4 6 5 11 5s10 -5 10 -10c0 -4 -2 -7 -4 -9z" />
    <glyph glyph-name="aringacute" unicode="&#x1fb;" horiz-adv-x="601" 
d="M353 569c0 -36 -27 -65 -65 -65s-65 29 -65 65s27 65 65 65s65 -29 65 -65zM332 569c0 27 -18 46 -44 46s-44 -19 -44 -46s18 -46 44 -46s44 19 44 46zM341 750l-45 -65c-3 -4 -5 -5 -9 -5c-7 0 -11 5 -11 10c0 2 1 5 3 8l44 65c2 3 5 6 10 6c6 0 11 -5 11 -10
s-2 -7 -3 -9zM58 217c0 127 97 229 229 229s229 -102 229 -229v-212c0 -7 -6 -13 -13 -13s-13 6 -13 13v106c-37 -74 -112 -123 -203 -123c-132 0 -229 102 -229 229zM84 217c0 -116 87 -205 203 -205s203 89 203 205s-87 205 -203 205s-203 -89 -203 -205z" />
    <glyph glyph-name="AEacute" unicode="&#x1fc;" horiz-adv-x="932" 
d="M357 666h501c7 0 12 -5 12 -12s-5 -12 -12 -12h-482l125 -276h231c7 0 12 -5 12 -12s-5 -12 -12 -12h-220l144 -318h216c7 0 12 -5 12 -12s-5 -12 -12 -12h-225c-6 0 -10 3 -12 7l-94 212h-369l-97 -220c-2 -4 -6 -7 -12 -7c-7 0 -13 6 -13 14c0 2 1 4 2 6l293 646
c3 6 7 8 12 8zM357 629l-174 -386h348zM451 826l-72 -83c-3 -3 -6 -5 -11 -5c-6 0 -10 5 -10 10c0 3 1 4 3 7l73 85c3 4 6 5 11 5s10 -5 10 -10c0 -4 -2 -7 -4 -9z" />
    <glyph glyph-name="aeacute" unicode="&#x1fd;" horiz-adv-x="930" 
d="M875 225c0 -8 -5 -12 -13 -12h-398c0 -111 87 -202 202 -202c71 0 133 35 172 96c3 5 6 6 10 6c7 0 13 -5 13 -12c0 -3 -1 -6 -3 -9c-40 -62 -108 -104 -192 -104c-95 0 -171 55 -207 128c-2 -76 -79 -128 -193 -128c-101 0 -191 48 -191 130s81 129 191 129
c72 0 141 -27 171 -69v81c0 110 -59 164 -168 164c-57 0 -101 -10 -145 -32c-4 -2 -8 -4 -12 -4c-8 0 -12 6 -12 12c0 4 3 7 8 10c42 24 102 37 162 37c101 0 169 -48 186 -137c32 81 110 137 202 137c124 0 217 -101 217 -221zM437 117c0 66 -79 109 -170 109
c-102 0 -166 -40 -166 -108c0 -72 81 -109 164 -109c95 0 172 41 172 108zM850 236c-4 100 -86 188 -192 188s-187 -83 -193 -188h385zM345 631l-75 -109c-3 -4 -5 -5 -9 -5c-7 0 -11 5 -11 10c0 2 1 5 3 8l74 109c2 3 5 6 10 6c6 0 11 -5 11 -10s-2 -7 -3 -9z" />
    <glyph glyph-name="Oslashacute" unicode="&#x1fe;" horiz-adv-x="792" 
d="M716 728c6 0 10 -5 10 -10c0 -3 -1 -5 -3 -8l-102 -122c67 -66 105 -159 105 -255c0 -177 -127 -345 -330 -345c-85 0 -156 29 -210 75l-100 -120c-3 -4 -6 -5 -10 -5c-5 0 -10 5 -10 10c0 3 1 5 3 8l101 122c-67 65 -104 159 -104 255c0 177 127 345 330 345
c84 0 155 -30 210 -76l101 122c3 3 6 4 9 4zM92 333c0 -89 34 -175 94 -236l404 486c-50 43 -116 71 -194 71c-188 0 -304 -157 -304 -321zM700 333c0 88 -34 175 -95 236l-403 -487c50 -43 116 -70 194 -70c188 0 304 157 304 321zM465 826l-72 -83c-3 -3 -6 -5 -11 -5
c-6 0 -10 5 -10 10c0 3 1 4 3 7l73 85c3 4 6 5 11 5s10 -5 10 -10c0 -4 -2 -7 -4 -9z" />
    <glyph glyph-name="oslashacute" unicode="&#x1ff;" horiz-adv-x="578" 
d="M508 496c6 0 10 -5 10 -10c0 -3 -1 -5 -3 -8l-73 -89c47 -42 76 -103 76 -172c0 -127 -97 -229 -229 -229c-53 0 -100 16 -137 43l-72 -88c-3 -4 -6 -5 -10 -5c-5 0 -10 5 -10 10c0 3 1 5 3 8l72 89c-47 42 -75 103 -75 172c0 127 97 229 229 229c52 0 99 -16 137 -44
l73 90c3 3 6 4 9 4zM86 217c0 -62 24 -116 65 -153l259 319c-33 24 -75 39 -121 39c-116 0 -203 -89 -203 -205zM492 217c0 61 -25 116 -65 153l-260 -319c34 -25 75 -39 122 -39c116 0 203 89 203 205zM361 631l-75 -109c-3 -4 -5 -5 -9 -5c-7 0 -11 5 -11 10c0 2 1 5 3 8
l74 109c2 3 5 6 10 6c6 0 11 -5 11 -10s-2 -7 -3 -9z" />
    <glyph glyph-name="Scommaaccent" unicode="&#x218;" horiz-adv-x="630" 
d="M541 603c6 -6 2 -18 -8 -18c-3 0 -6 1 -10 4c-59 44 -136 67 -210 67c-121 0 -210 -50 -210 -139c0 -94 83 -131 209 -169c185 -55 258 -98 258 -195c0 -101 -98 -165 -249 -165c-101 0 -197 44 -254 90c-6 4 -7 11 -3 16s12 6 18 1c63 -50 159 -85 239 -85
c130 0 223 55 223 144c0 88 -77 124 -230 169c-175 51 -237 103 -237 195c0 104 108 160 236 160c93 0 172 -27 228 -75zM323 -92c0 7 5 12 12 12s12 -5 12 -12v-43c0 -50 -7 -84 -18 -123c-2 -8 -8 -11 -13 -11c-7 0 -14 6 -11 16c11 39 18 72 18 114v47z" />
    <glyph glyph-name="scommaaccent" unicode="&#x219;" horiz-adv-x="457" 
d="M407 101c0 -66 -61 -113 -166 -113c-60 0 -133 26 -177 68c-2 2 -4 5 -4 8c0 7 5 12 12 12c4 0 7 -2 9 -4c43 -40 111 -62 160 -62c89 0 140 38 140 90c0 56 -44 84 -138 108c-113 29 -173 63 -173 129c0 73 70 109 168 109c48 0 100 -12 146 -40c5 -3 7 -6 7 -10
c0 -6 -4 -12 -12 -12c-2 0 -5 1 -8 3c-34 21 -89 37 -133 37c-81 0 -142 -24 -142 -86c0 -58 53 -80 145 -106c121 -34 166 -65 166 -131zM237 -92c0 7 5 12 12 12s12 -5 12 -12v-43c0 -50 -7 -84 -18 -123c-2 -8 -8 -11 -13 -11c-7 0 -14 6 -11 16c11 39 18 72 18 114v47z
" />
    <glyph glyph-name="circumflex" unicode="&#x2c6;" horiz-adv-x="360" 
d="M193 623l92 -87c3 -3 5 -5 5 -9c0 -6 -6 -11 -11 -11c-3 0 -5 1 -6 2l-93 88l-93 -88c-1 -1 -3 -2 -6 -2c-5 0 -11 5 -11 11c0 4 2 6 5 9l92 87c5 5 8 7 13 7s8 -2 13 -7z" />
    <glyph glyph-name="caron" unicode="&#x2c7;" horiz-adv-x="360" 
d="M285 606l-92 -87c-5 -5 -8 -7 -13 -7s-8 2 -13 7l-92 87c-3 3 -5 5 -5 9c0 6 6 11 11 11c3 0 5 -1 6 -2l93 -88l93 88c1 1 3 2 6 2c5 0 11 -5 11 -11c0 -4 -2 -6 -5 -9z" />
    <glyph glyph-name="breve" unicode="&#x2d8;" horiz-adv-x="368" 
d="M274 603c0 7 4 13 12 13s12 -6 12 -13c0 -67 -46 -90 -114 -90s-114 23 -114 90c0 7 4 13 12 13s12 -6 12 -13c0 -49 29 -69 90 -69s90 20 90 69z" />
    <glyph glyph-name="dotaccent" unicode="&#x2d9;" 
d="M90 607c0 7 6 13 13 13s13 -6 13 -13v-69c0 -7 -6 -13 -13 -13s-13 6 -13 13v69z" />
    <glyph glyph-name="ring" unicode="&#x2da;" horiz-adv-x="290" 
d="M210 569c0 -36 -27 -65 -65 -65s-65 29 -65 65s27 65 65 65s65 -29 65 -65zM189 569c0 27 -18 46 -44 46s-44 -19 -44 -46s18 -46 44 -46s44 19 44 46z" />
    <glyph glyph-name="ogonek" unicode="&#x2db;" horiz-adv-x="316" 
d="M85 -113c0 58 54 94 95 113h36c-45 -25 -105 -57 -105 -113c0 -29 18 -50 60 -50c10 0 18 1 30 4c9 2 15 -2 15 -9c0 -5 -3 -8 -8 -10c-10 -4 -24 -7 -39 -7c-61 0 -84 35 -84 72z" />
    <glyph glyph-name="tilde" unicode="&#x2dc;" horiz-adv-x="402" 
d="M322 591c5 0 10 -4 10 -9c0 -4 -2 -7 -4 -10c-18 -22 -37 -45 -69 -45c-27 0 -41 10 -62 22s-30 22 -53 22c-24 0 -39 -17 -52 -35c-3 -4 -6 -6 -11 -6s-11 4 -11 9c0 4 1 6 3 9c18 23 39 45 70 45c28 0 42 -12 64 -25c21 -13 32 -19 51 -19c23 0 35 13 53 36
c3 4 7 6 11 6z" />
    <glyph glyph-name="hungarumlaut" unicode="&#x2dd;" horiz-adv-x="458" 
d="M210 631l-75 -109c-3 -4 -5 -5 -9 -5c-7 0 -11 5 -11 10c0 2 1 5 3 8l74 109c2 3 5 6 10 6c6 0 11 -5 11 -10s-2 -7 -3 -9zM360 631l-75 -109c-3 -4 -5 -5 -9 -5c-7 0 -11 5 -11 10c0 2 1 5 3 8l74 109c2 3 5 6 10 6c6 0 11 -5 11 -10s-2 -7 -3 -9z" />
    <glyph glyph-name="Omega" unicode="&#x3a9;" horiz-adv-x="840" 
d="M710 0h-191c-7 0 -13 4 -13 11c0 6 5 9 13 13c110 51 205 183 205 317c0 164 -116 313 -304 313s-304 -149 -304 -313c0 -134 95 -266 205 -317c8 -4 13 -7 13 -13c0 -7 -6 -11 -13 -11h-191c-7 0 -12 5 -12 12s5 12 12 12h142c-109 72 -182 192 -182 317
c0 177 127 337 330 337s330 -160 330 -337c0 -125 -73 -245 -182 -317h142c7 0 12 -5 12 -12s-5 -12 -12 -12z" />
    <glyph glyph-name="pi" unicode="&#x3c0;" horiz-adv-x="656" 
d="M538 0c-72 0 -106 22 -106 114v296h-224v-405c0 -7 -6 -13 -13 -13s-13 6 -13 13v405h-115c-7 0 -12 5 -12 12s5 12 12 12h512c7 0 12 -5 12 -12s-5 -12 -12 -12h-121v-296c0 -71 18 -92 81 -92h27c6 0 11 -5 11 -11s-5 -11 -11 -11h-28z" />
    <glyph glyph-name="Wgrave" unicode="&#x1e80;" horiz-adv-x="980" 
d="M503 663l211 -621l200 623c2 6 6 9 12 9c7 0 12 -5 12 -12c0 -1 -1 -4 -1 -4l-211 -657c-2 -5 -5 -9 -11 -9c-7 0 -10 4 -12 9l-213 626l-213 -626c-2 -5 -5 -9 -12 -9c-6 0 -9 4 -11 9l-211 657s-1 3 -1 4c0 7 5 12 12 12c6 0 10 -3 12 -9l200 -623l211 621
c2 7 7 11 13 11s11 -4 13 -11zM486 743l-72 83c-2 2 -4 5 -4 9c0 5 5 10 10 10s8 -1 11 -5l73 -85c2 -3 3 -4 3 -7c0 -5 -4 -10 -10 -10c-5 0 -8 2 -11 5z" />
    <glyph glyph-name="wgrave" unicode="&#x1e81;" horiz-adv-x="672" 
d="M348 433l136 -391l132 392c2 5 5 8 11 8c7 0 13 -4 13 -11c0 -3 -1 -6 -2 -9l-143 -421c-2 -6 -6 -9 -11 -9c-6 0 -10 3 -12 9l-136 388l-136 -388c-2 -6 -6 -9 -12 -9c-5 0 -9 3 -11 9l-143 421c-1 3 -2 6 -2 9c0 7 6 11 13 11c6 0 9 -3 11 -8l132 -392l136 391
c2 5 5 9 12 9s10 -4 12 -9zM323 522l-75 109c-1 2 -3 4 -3 9s5 10 11 10c5 0 8 -3 10 -6l74 -109c2 -3 3 -6 3 -8c0 -5 -4 -10 -11 -10c-4 0 -6 1 -9 5z" />
    <glyph glyph-name="Wacute" unicode="&#x1e82;" horiz-adv-x="980" 
d="M503 663l211 -621l200 623c2 6 6 9 12 9c7 0 12 -5 12 -12c0 -1 -1 -4 -1 -4l-211 -657c-2 -5 -5 -9 -11 -9c-7 0 -10 4 -12 9l-213 626l-213 -626c-2 -5 -5 -9 -12 -9c-6 0 -9 4 -11 9l-211 657s-1 3 -1 4c0 7 5 12 12 12c6 0 10 -3 12 -9l200 -623l211 621
c2 7 7 11 13 11s11 -4 13 -11zM570 826l-72 -83c-3 -3 -6 -5 -11 -5c-6 0 -10 5 -10 10c0 3 1 4 3 7l73 85c3 4 6 5 11 5s10 -5 10 -10c0 -4 -2 -7 -4 -9z" />
    <glyph glyph-name="wacute" unicode="&#x1e83;" horiz-adv-x="672" 
d="M348 433l136 -391l132 392c2 5 5 8 11 8c7 0 13 -4 13 -11c0 -3 -1 -6 -2 -9l-143 -421c-2 -6 -6 -9 -11 -9c-6 0 -10 3 -12 9l-136 388l-136 -388c-2 -6 -6 -9 -12 -9c-5 0 -9 3 -11 9l-143 421c-1 3 -2 6 -2 9c0 7 6 11 13 11c6 0 9 -3 11 -8l132 -392l136 391
c2 5 5 9 12 9s10 -4 12 -9zM414 631l-75 -109c-3 -4 -5 -5 -9 -5c-7 0 -11 5 -11 10c0 2 1 5 3 8l74 109c2 3 5 6 10 6c6 0 11 -5 11 -10s-2 -7 -3 -9z" />
    <glyph glyph-name="Wdieresis" unicode="&#x1e84;" horiz-adv-x="980" 
d="M503 663l211 -621l200 623c2 6 6 9 12 9c7 0 12 -5 12 -12c0 -1 -1 -4 -1 -4l-211 -657c-2 -5 -5 -9 -11 -9c-7 0 -10 4 -12 9l-213 626l-213 -626c-2 -5 -5 -9 -12 -9c-6 0 -9 4 -11 9l-211 657s-1 3 -1 4c0 7 5 12 12 12c6 0 10 -3 12 -9l200 -623l211 621
c2 7 7 11 13 11s11 -4 13 -11zM381 788c0 14 11 25 25 25s25 -11 25 -25s-11 -25 -25 -25s-25 11 -25 25zM550 788c0 14 11 25 25 25s25 -11 25 -25s-11 -25 -25 -25s-25 11 -25 25z" />
    <glyph glyph-name="wdieresis" unicode="&#x1e85;" horiz-adv-x="672" 
d="M348 433l136 -391l132 392c2 5 5 8 11 8c7 0 13 -4 13 -11c0 -3 -1 -6 -2 -9l-143 -421c-2 -6 -6 -9 -11 -9c-6 0 -10 3 -12 9l-136 388l-136 -388c-2 -6 -6 -9 -12 -9c-5 0 -9 3 -11 9l-143 421c-1 3 -2 6 -2 9c0 7 6 11 13 11c6 0 9 -3 11 -8l132 -392l136 391
c2 5 5 9 12 9s10 -4 12 -9zM237 562c0 14 11 25 25 25s25 -11 25 -25s-11 -25 -25 -25s-25 11 -25 25zM386 562c0 14 11 25 25 25s25 -11 25 -25s-11 -25 -25 -25s-25 11 -25 25z" />
    <glyph glyph-name="Ygrave" unicode="&#x1ef2;" horiz-adv-x="590" 
d="M56 667l239 -352l239 352c4 5 7 7 13 7s11 -5 11 -12c0 -2 -1 -5 -3 -8l-247 -362v-287c0 -7 -6 -13 -13 -13s-13 6 -13 13v287l-247 362c-2 3 -3 6 -3 8c0 7 5 12 11 12s9 -2 13 -7zM293 743l-72 83c-2 2 -4 5 -4 9c0 5 5 10 10 10s8 -1 11 -5l73 -85c2 -3 3 -4 3 -7
c0 -5 -4 -10 -10 -10c-5 0 -8 2 -11 5z" />
    <glyph glyph-name="ygrave" unicode="&#x1ef3;" horiz-adv-x="456" 
d="M232 32l176 401c2 5 5 9 12 9c8 0 12 -5 12 -11c0 -3 -1 -5 -2 -8l-186 -423c-41 -93 -97 -164 -189 -193c-3 -1 -6 -2 -10 -2c-8 0 -12 6 -12 12c0 8 5 11 12 13c83 24 131 84 173 173l-184 420c-1 3 -2 5 -2 8c0 6 4 11 12 11c7 0 10 -4 12 -9zM236 522l-75 109
c-1 2 -3 4 -3 9s5 10 11 10c5 0 8 -3 10 -6l74 -109c2 -3 3 -6 3 -8c0 -5 -4 -10 -11 -10c-4 0 -6 1 -9 5z" />
    <glyph glyph-name="endash" unicode="&#x2013;" horiz-adv-x="529" 
d="M449 248c0 -6 -5 -11 -11 -11h-347c-6 0 -11 5 -11 11s5 11 11 11h347c6 0 11 -5 11 -11z" />
    <glyph glyph-name="emdash" unicode="&#x2014;" horiz-adv-x="719" 
d="M639 248c0 -6 -5 -11 -11 -11h-537c-6 0 -11 5 -11 11s5 11 11 11h537c6 0 11 -5 11 -11z" />
    <glyph glyph-name="quoteleft" unicode="&#x2018;" horiz-adv-x="201" 
d="M107 451c0 -7 -4 -12 -11 -12s-11 5 -11 12v46c0 62 7 113 33 169c2 4 5 8 11 8c8 0 12 -5 12 -10s-2 -8 -3 -10c-25 -51 -31 -104 -31 -156v-47z" />
    <glyph glyph-name="quoteright" unicode="&#x2019;" horiz-adv-x="201" 
d="M104 662c0 7 4 12 11 12s11 -5 11 -12v-46c0 -62 -7 -113 -33 -169c-2 -4 -5 -8 -11 -8c-8 0 -12 5 -12 10s2 8 3 10c25 51 31 104 31 156v47z" />
    <glyph glyph-name="quotesinglbase" unicode="&#x201a;" 
d="M94 65c0 7 4 12 11 12s11 -5 11 -12v-46c0 -62 -7 -113 -33 -169c-2 -4 -5 -8 -11 -8c-8 0 -12 5 -12 10s2 8 3 10c25 51 31 104 31 156v47z" />
    <glyph glyph-name="quotedblleft" unicode="&#x201c;" horiz-adv-x="358" 
d="M264 451c0 -7 -4 -12 -11 -12s-11 5 -11 12v46c0 62 7 113 33 169c2 4 5 8 11 8c8 0 12 -5 12 -10s-2 -8 -3 -10c-25 -51 -31 -104 -31 -156v-47zM107 451c0 -7 -4 -12 -11 -12s-11 5 -11 12v46c0 62 7 113 33 169c2 4 5 8 11 8c8 0 12 -5 12 -10s-2 -8 -3 -10
c-25 -51 -31 -104 -31 -156v-47z" />
    <glyph glyph-name="quotedblright" unicode="&#x201d;" horiz-adv-x="358" 
d="M104 662c0 7 4 12 11 12s11 -5 11 -12v-46c0 -62 -7 -113 -33 -169c-2 -4 -5 -8 -11 -8c-8 0 -12 5 -12 10s2 8 3 10c25 51 31 104 31 156v47zM261 662c0 7 4 12 11 12s11 -5 11 -12v-46c0 -62 -7 -113 -33 -169c-2 -4 -5 -8 -11 -8c-8 0 -12 5 -12 10s2 8 3 10
c25 51 31 104 31 156v47z" />
    <glyph glyph-name="quotedblbase" unicode="&#x201e;" horiz-adv-x="363" 
d="M94 65c0 7 4 12 11 12s11 -5 11 -12v-46c0 -62 -7 -113 -33 -169c-2 -4 -5 -8 -11 -8c-8 0 -12 5 -12 10s2 8 3 10c25 51 31 104 31 156v47zM251 65c0 7 4 12 11 12s11 -5 11 -12v-46c0 -62 -7 -113 -33 -169c-2 -4 -5 -8 -11 -8c-8 0 -12 5 -12 10s2 8 3 10
c25 51 31 104 31 156v47z" />
    <glyph glyph-name="dagger" unicode="&#x2020;" horiz-adv-x="456" 
d="M386 481c0 -6 -5 -11 -11 -11h-134v-537c0 -7 -6 -13 -13 -13s-13 6 -13 13v537h-134c-6 0 -11 5 -11 11s5 11 11 11h134v169c0 7 6 13 13 13s13 -6 13 -13v-169h134c6 0 11 -5 11 -11z" />
    <glyph glyph-name="daggerdbl" unicode="&#x2021;" horiz-adv-x="496" 
d="M235 470h-134c-6 0 -11 5 -11 11s5 11 11 11h134v169c0 7 6 13 13 13s13 -6 13 -13v-169h134c6 0 11 -5 11 -11s-5 -11 -11 -11h-134v-346h134c6 0 11 -5 11 -11s-5 -11 -11 -11h-134v-169c0 -7 -6 -13 -13 -13s-13 6 -13 13v169h-134c-6 0 -11 5 -11 11s5 11 11 11h134
v346z" />
    <glyph glyph-name="bullet" unicode="&#x2022;" horiz-adv-x="378" 
d="M293 323c0 -58 -46 -104 -104 -104s-104 46 -104 104s46 104 104 104s104 -46 104 -104z" />
    <glyph glyph-name="ellipsis" unicode="&#x2026;" horiz-adv-x="678" 
d="M100 64c0 7 6 13 13 13s13 -6 13 -13v-55c0 -7 -6 -13 -13 -13s-13 6 -13 13v55zM326 64c0 7 6 13 13 13s13 -6 13 -13v-55c0 -7 -6 -13 -13 -13s-13 6 -13 13v55zM552 64c0 7 6 13 13 13s13 -6 13 -13v-55c0 -7 -6 -13 -13 -13s-13 6 -13 13v55z" />
    <glyph glyph-name="perthousand" unicode="&#x2030;" horiz-adv-x="1243" 
d="M380 523c0 -86 -63 -155 -155 -155s-155 69 -155 155s63 155 155 155s155 -69 155 -155zM358 523c0 78 -54 135 -133 135s-133 -57 -133 -135s54 -135 133 -135s133 57 133 135zM773 143c0 -86 -63 -155 -155 -155s-155 69 -155 155s63 155 155 155s155 -69 155 -155z
M751 143c0 78 -54 135 -133 135s-133 -57 -133 -135s54 -135 133 -135s133 57 133 135zM607 675c8 0 13 -7 9 -16l-367 -662c-2 -3 -5 -5 -10 -5c-9 0 -12 10 -9 16l367 662c2 3 5 5 10 5zM1178 143c0 -86 -63 -155 -155 -155s-155 69 -155 155s63 155 155 155
s155 -69 155 -155zM1156 143c0 78 -54 135 -133 135s-133 -57 -133 -135s54 -135 133 -135s133 57 133 135z" />
    <glyph glyph-name="guilsinglleft" unicode="&#x2039;" horiz-adv-x="348" 
d="M263 380c0 -4 -2 -7 -4 -9l-161 -158l161 -158c2 -2 4 -5 4 -9c0 -7 -5 -11 -12 -11c-3 0 -7 2 -9 4l-169 166c-2 2 -3 5 -3 8s1 6 3 8l169 166c2 2 6 4 9 4c7 0 12 -4 12 -11z" />
    <glyph glyph-name="guilsinglright" unicode="&#x203a;" horiz-adv-x="348" 
d="M85 380c0 7 5 11 12 11c3 0 7 -2 9 -4l169 -166c2 -2 3 -5 3 -8s-1 -6 -3 -8l-169 -166c-2 -2 -6 -4 -9 -4c-7 0 -12 4 -12 11c0 4 2 7 4 9l161 158l-161 158c-2 2 -4 5 -4 9z" />
    <glyph glyph-name="fraction" unicode="&#x2044;" horiz-adv-x="484" 
d="M471 658l-438 -663c-2 -3 -5 -7 -9 -7c-7 0 -14 6 -14 11c0 4 2 7 4 10l437 662c2 3 5 7 10 7c6 0 13 -4 13 -12c0 -3 -1 -5 -3 -8z" />
    <glyph glyph-name="Euro" unicode="&#x20ac;" horiz-adv-x="723" 
d="M399 256c0 -6 -5 -11 -11 -11h-207c26 -128 108 -233 239 -233c98 0 163 59 205 136c3 5 7 6 11 6c7 0 12 -6 12 -12c0 -4 -1 -6 -2 -8c-43 -81 -116 -146 -226 -146c-148 0 -240 115 -266 257h-88c-6 0 -11 5 -11 11s5 11 11 11h84c-3 21 -4 43 -4 66c0 22 1 44 4 66
h-84c-6 0 -11 5 -11 11s5 11 11 11h88c26 142 118 257 266 257c110 0 183 -65 226 -146c1 -2 2 -4 2 -8c0 -6 -5 -12 -12 -12c-4 0 -8 1 -11 6c-42 77 -107 136 -205 136c-131 0 -213 -106 -239 -233h207c6 0 11 -5 11 -11s-5 -11 -11 -11h-211c-3 -22 -5 -44 -5 -66
s2 -45 5 -66h211c6 0 11 -5 11 -11z" />
    <glyph glyph-name="uni2113" unicode="&#x2113;" horiz-adv-x="519" 
d="M50 209c26 10 59 24 89 38v242c0 139 70 189 163 189c89 0 141 -54 141 -146c0 -91 -54 -159 -139 -220c-39 -28 -89 -55 -139 -79v-107c0 -70 38 -115 118 -115c55 0 96 19 143 43c2 1 5 2 7 2c7 0 11 -5 11 -11c0 -5 -3 -9 -9 -12c-43 -24 -98 -45 -155 -45
c-92 0 -141 57 -141 137v96c-28 -12 -53 -23 -79 -33c-2 -1 -6 -2 -9 -2c-7 0 -11 5 -11 10c0 7 3 10 10 13zM165 490v-231c41 20 90 46 126 73c77 56 126 116 126 199c0 78 -41 125 -115 125c-86 0 -137 -50 -137 -166z" />
    <glyph glyph-name="uni2116" unicode="&#x2116;" horiz-adv-x="1087" 
d="M597 661c0 7 6 13 13 13s13 -6 13 -13v-656c0 -7 -5 -13 -14 -13c-5 0 -9 4 -12 8l-466 625v-620c0 -7 -6 -13 -13 -13s-13 6 -13 13v656c0 8 6 13 13 13c6 0 10 -4 13 -8l466 -626v621zM1052 525c0 -86 -63 -153 -153 -153c-92 0 -154 67 -154 153c0 85 62 153 154 153
c90 0 153 -68 153 -153zM1027 525c0 70 -49 130 -128 130s-129 -60 -129 -130s50 -130 129 -130s128 60 128 130zM1032 277h-267c-7 0 -12 5 -12 12s5 12 12 12h267c7 0 12 -5 12 -12s-5 -12 -12 -12z" />
    <glyph glyph-name="trademark" unicode="&#x2122;" horiz-adv-x="751" 
d="M519 397l126 264c2 4 5 9 11 9s10 -4 10 -10v-282c0 -6 -4 -10 -10 -10s-10 4 -10 10v238l-116 -240c-2 -4 -5 -8 -11 -8s-9 4 -11 8l-116 240v-238c0 -6 -4 -10 -10 -10s-10 4 -10 10v282c0 6 4 10 10 10s9 -5 11 -9zM310 657c0 -6 -5 -10 -10 -10h-102v-269
c0 -6 -4 -10 -10 -10s-11 4 -11 10v269h-102c-5 0 -10 4 -10 10s5 9 10 9h225c5 0 10 -3 10 -9z" />
    <glyph glyph-name="estimated" unicode="&#x212e;" horiz-adv-x="844" 
d="M779 333v-6c0 -9 -7 -16 -16 -16h-556v-213c54 -45 127 -77 215 -77c114 0 195 39 279 119c5 5 9 7 15 7c10 0 17 -8 17 -16c0 -6 -3 -10 -7 -14c-78 -74 -166 -129 -304 -129c-202 0 -357 162 -357 345c0 187 163 345 357 345s357 -162 357 -345zM422 645
c-88 0 -159 -32 -215 -81v-221h430v221c-56 49 -128 81 -215 81z" />
    <glyph glyph-name="partialdiff" unicode="&#x2202;" horiz-adv-x="556" 
d="M96 154c0 -90 53 -148 141 -148c115 0 203 101 203 219c0 88 -69 143 -148 143c-122 0 -196 -88 -196 -214zM233 658c-6 2 -9 4 -9 9c0 6 4 11 13 11c4 0 8 -1 11 -2c160 -45 233 -177 233 -337c0 -41 -4 -84 -12 -128c-22 -125 -102 -227 -234 -227
c-111 0 -165 81 -165 168c0 139 84 238 223 238c81 0 146 -48 164 -123c20 197 -51 346 -224 391z" />
    <glyph glyph-name="Delta" unicode="&#x2206;" horiz-adv-x="688" 
d="M344 674c6 0 9 -4 11 -10l261 -646c1 -3 2 -6 2 -8c0 -6 -4 -10 -11 -10h-526c-7 0 -11 4 -11 10c0 2 1 5 2 8l261 646c2 6 5 10 11 10zM590 21l-246 612l-246 -612h492z" />
    <glyph glyph-name="product" unicode="&#x220f;" horiz-adv-x="780" 
d="M532 642h-284v-637c0 -7 -6 -13 -13 -13s-13 6 -13 13v637h-145c-7 0 -12 5 -12 12s5 12 12 12h626c7 0 12 -5 12 -12s-5 -12 -12 -12h-145v-637c0 -7 -6 -13 -13 -13s-13 6 -13 13v637z" />
    <glyph glyph-name="summation" unicode="&#x2211;" horiz-adv-x="590" 
d="M123 -44h370c7 0 12 -5 12 -12s-5 -12 -12 -12h-391c-7 0 -12 5 -12 12c0 4 3 8 6 12l233 385l-233 385c-3 4 -6 8 -6 12c0 7 5 12 12 12h391c7 0 12 -5 12 -12s-5 -12 -12 -12h-370l228 -374c2 -3 5 -8 5 -11s-1 -6 -4 -11z" />
    <glyph glyph-name="minus" unicode="&#x2212;" horiz-adv-x="549" 
d="M454 323c0 -6 -5 -11 -11 -11h-337c-6 0 -11 5 -11 11s5 11 11 11h337c6 0 11 -5 11 -11z" />
    <glyph glyph-name="radical" unicode="&#x221a;" horiz-adv-x="581" 
d="M272 1l-184 268c-2 3 -3 6 -3 8c0 7 5 11 12 11c4 0 7 -2 10 -6l173 -253l203 640c2 6 5 9 11 9c8 0 12 -6 12 -11c0 -2 -1 -5 -2 -8l-208 -658c-2 -6 -6 -9 -12 -9c-4 0 -8 3 -12 9z" />
    <glyph glyph-name="infinity" unicode="&#x221e;" horiz-adv-x="804" 
d="M579 108c-82 0 -137 51 -177 110c-40 -59 -95 -110 -177 -110c-80 0 -145 48 -145 127s65 127 145 127c82 0 137 -51 177 -110c40 59 95 110 177 110c80 0 145 -48 145 -127s-65 -127 -145 -127zM698 235c0 67 -56 104 -120 104c-71 0 -118 -43 -162 -104
c44 -61 91 -104 162 -104c64 0 120 37 120 104zM106 235c0 -67 56 -104 120 -104c71 0 118 43 162 104c-44 61 -91 104 -162 104c-64 0 -120 -37 -120 -104z" />
    <glyph glyph-name="integral" unicode="&#x222b;" horiz-adv-x="456" 
d="M205 509c0 112 41 161 150 161h15c6 0 11 -5 11 -11s-5 -11 -11 -11h-17c-91 0 -122 -42 -122 -139v-540c0 -112 -32 -164 -144 -164h-21c-6 0 -11 5 -11 11s5 11 11 11h23c92 0 116 35 116 142v540z" />
    <glyph glyph-name="approxequal" unicode="&#x2248;" horiz-adv-x="544" 
d="M99 371c29 33 57 49 102 49c25 0 45 -6 73 -20c30 -15 48 -26 74 -26c37 0 63 15 86 41c2 2 5 4 8 4c7 0 12 -5 12 -11c0 -3 -2 -6 -4 -8c-26 -27 -59 -49 -103 -49c-32 0 -45 9 -78 25c-23 11 -45 21 -68 21c-42 0 -60 -13 -85 -39c-3 -3 -5 -5 -10 -5
c-6 0 -11 4 -11 10c0 3 2 6 4 8zM99 215c29 33 57 49 102 49c25 0 45 -6 73 -20c30 -15 48 -26 74 -26c37 0 63 15 86 41c2 2 5 4 8 4c7 0 12 -5 12 -11c0 -3 -2 -6 -4 -8c-26 -27 -59 -49 -103 -49c-32 0 -45 9 -78 25c-23 11 -45 21 -68 21c-42 0 -60 -13 -85 -39
c-3 -3 -5 -5 -10 -5c-6 0 -11 4 -11 10c0 3 2 6 4 8z" />
    <glyph glyph-name="notequal" unicode="&#x2260;" horiz-adv-x="545" 
d="M179 150c-5 0 -11 3 -11 10c0 4 1 6 2 8l36 62h-104c-7 0 -12 5 -12 12s5 12 12 12h118l80 138h-198c-7 0 -12 5 -12 12s5 12 12 12h212l43 75c2 3 5 5 10 5c6 0 10 -5 10 -11c0 -3 -1 -5 -2 -7l-36 -62h104c7 0 12 -5 12 -12s-5 -12 -12 -12h-118l-80 -138h198
c7 0 12 -5 12 -12s-5 -12 -12 -12h-212l-42 -73c-2 -4 -5 -7 -10 -7z" />
    <glyph glyph-name="lessequal" unicode="&#x2264;" horiz-adv-x="585" 
d="M107 283c0 5 3 8 8 11l336 183c2 1 5 2 7 2c7 0 13 -4 13 -12c0 -4 -2 -8 -8 -11l-322 -173l322 -173c6 -3 8 -8 8 -11c0 -8 -6 -12 -13 -12c-2 0 -5 1 -7 2l-336 183c-5 3 -8 6 -8 11zM478 0h-376c-7 0 -12 5 -12 12s5 12 12 12h376c7 0 12 -5 12 -12s-5 -12 -12 -12z
" />
    <glyph glyph-name="greaterequal" unicode="&#x2265;" horiz-adv-x="585" 
d="M478 283c0 -5 -3 -8 -8 -11l-336 -183c-2 -1 -5 -2 -7 -2c-7 0 -13 4 -13 12c0 3 2 8 8 11l322 173l-322 173c-6 3 -8 7 -8 11c0 8 6 12 13 12c2 0 5 -1 7 -2l336 -183c5 -3 8 -6 8 -11zM483 0h-376c-7 0 -12 5 -12 12s5 12 12 12h376c7 0 12 -5 12 -12s-5 -12 -12 -12z
" />
    <glyph glyph-name="lozenge" unicode="&#x25ca;" horiz-adv-x="644" 
d="M322 674c5 0 8 -3 11 -7l245 -320c4 -5 6 -9 6 -14s-2 -9 -6 -14l-245 -320c-3 -4 -6 -7 -11 -7s-8 3 -11 7l-245 320c-4 5 -6 9 -6 14s2 9 6 14l245 320c3 4 6 7 11 7zM322 22l237 311l-237 311l-237 -311z" />
    <glyph glyph-name="apple" unicode="&#xf8ff;" horiz-adv-x="856" 
d="M781 333h-333v-333h-333v666h666v-333z" />
    <glyph glyph-name="Acute" horiz-adv-x="327" 
d="M213 826l-72 -83c-3 -3 -6 -5 -11 -5c-6 0 -10 5 -10 10c0 3 1 4 3 7l73 85c3 4 6 5 11 5s10 -5 10 -10c0 -4 -2 -7 -4 -9z" />
    <glyph glyph-name="Breve" horiz-adv-x="428" 
d="M304 812c0 7 4 13 12 13s12 -6 12 -13c0 -59 -53 -84 -114 -84s-114 25 -114 84c0 7 4 13 12 13s12 -6 12 -13c0 -49 41 -63 90 -63s90 14 90 63z" />
    <glyph glyph-name="Caron" horiz-adv-x="420" 
d="M315 821l-92 -80c-4 -3 -7 -7 -13 -7s-9 3 -13 7l-92 80c-3 3 -5 5 -5 9c0 6 6 11 11 11c3 0 5 -1 6 -2l93 -81l93 81c1 1 3 2 6 2c5 0 11 -5 11 -11c0 -4 -2 -6 -5 -9z" />
    <glyph glyph-name="Circumflex" horiz-adv-x="420" 
d="M223 838l92 -80c3 -3 5 -5 5 -9c0 -6 -6 -11 -11 -11c-3 0 -5 1 -6 2l-93 81l-93 -81c-1 -1 -3 -2 -6 -2c-5 0 -11 5 -11 11c0 4 2 6 5 9l92 80c4 4 7 7 13 7s9 -4 13 -7z" />
    <glyph glyph-name="commaaccent" horiz-adv-x="356" 
d="M167 -92c0 7 5 12 12 12s12 -5 12 -12v-43c0 -50 -7 -84 -18 -123c-2 -8 -8 -11 -13 -11c-7 0 -14 6 -11 16c11 39 18 72 18 114v47z" />
    <glyph glyph-name="Dieresis" horiz-adv-x="419" 
d="M100 788c0 14 11 25 25 25s25 -11 25 -25s-11 -25 -25 -25s-25 11 -25 25zM269 788c0 14 11 25 25 25s25 -11 25 -25s-11 -25 -25 -25s-25 11 -25 25z" />
    <glyph glyph-name="Dotaccent" horiz-adv-x="226" 
d="M100 826c0 7 6 13 13 13s13 -6 13 -13v-69c0 -7 -6 -13 -13 -13s-13 6 -13 13v69z" />
    <glyph glyph-name="Grave" horiz-adv-x="327" 
d="M186 743l-72 83c-2 2 -4 5 -4 9c0 5 5 10 10 10s8 -1 11 -5l73 -85c2 -3 3 -4 3 -7c0 -5 -4 -10 -10 -10c-5 0 -8 2 -11 5z" />
    <glyph glyph-name="Hungarumlaut" horiz-adv-x="460" 
d="M197 826l-57 -83c-3 -4 -5 -5 -9 -5c-7 0 -11 5 -11 10c0 2 1 5 3 8l56 83c2 3 5 6 10 6c6 0 11 -5 11 -10s-2 -7 -3 -9zM347 826l-57 -83c-3 -4 -5 -5 -9 -5c-7 0 -11 5 -11 10c0 2 1 5 3 8l56 83c2 3 5 6 10 6c6 0 11 -5 11 -10s-2 -7 -3 -9z" />
    <glyph glyph-name="Macron" horiz-adv-x="469" 
d="M369 784c0 -6 -5 -11 -11 -11h-227c-6 0 -11 5 -11 11s5 11 11 11h227c6 0 11 -5 11 -11z" />
    <glyph glyph-name="Ring" horiz-adv-x="330" 
d="M230 790c0 -36 -27 -65 -65 -65s-65 29 -65 65s27 65 65 65s65 -29 65 -65zM209 790c0 27 -18 46 -44 46s-44 -19 -44 -46s18 -46 44 -46s44 19 44 46z" />
    <glyph glyph-name="Tilde" horiz-adv-x="437" 
d="M342 811c5 0 10 -4 10 -9c0 -4 -2 -7 -4 -10c-18 -22 -37 -45 -69 -45c-27 0 -41 10 -62 22s-30 22 -53 22c-24 0 -39 -17 -52 -35c-3 -4 -6 -6 -11 -6s-11 4 -11 9c0 4 1 6 3 9c18 23 39 45 70 45c28 0 42 -12 64 -25c21 -13 32 -19 51 -19c23 0 35 13 53 36
c3 4 7 6 11 6z" />
    <glyph glyph-name="m.salt" horiz-adv-x="948" 
d="M487 5c0 -7 -6 -13 -13 -13s-13 6 -13 13v243c0 100 -76 173 -175 173c-102 0 -175 -76 -175 -173v-243c0 -7 -6 -13 -13 -13s-13 6 -13 13v242c0 111 86 199 201 199c88 0 158 -51 188 -129c28 76 99 129 188 129c115 0 201 -88 201 -199v-242c0 -7 -6 -13 -13 -13
s-13 6 -13 13v243c0 97 -73 173 -175 173s-175 -76 -175 -173v-243z" />
    <glyph glyph-name="w.salt" horiz-adv-x="948" 
d="M487 429v-243c0 -97 73 -173 175 -173s175 76 175 173v243c0 7 6 13 13 13s13 -6 13 -13v-242c0 -111 -86 -199 -201 -199c-89 0 -160 53 -188 129c-30 -78 -100 -129 -188 -129c-115 0 -201 88 -201 199v242c0 7 6 13 13 13s13 -6 13 -13v-243c0 -97 73 -173 175 -173
c99 0 175 73 175 173v243c0 8 6 13 13 13s13 -5 13 -13z" />
    <glyph glyph-name="y.salt" horiz-adv-x="577" 
d="M275 -172c152 0 186 87 186 203v79c-35 -74 -108 -112 -182 -112c-123 0 -194 82 -194 195v236c0 7 6 13 13 13s13 -6 13 -13v-237c0 -101 62 -169 168 -169c96 0 182 74 182 174v232c0 7 6 13 13 13s13 -6 13 -13v-398c0 -131 -48 -226 -212 -226c-62 0 -120 17 -163 41
c-4 2 -10 5 -10 12c0 6 5 10 10 10c4 0 7 -1 12 -3c46 -23 94 -37 151 -37z" />
    <glyph glyph-name="wacute.salt" horiz-adv-x="948" 
d="M487 429v-243c0 -97 73 -173 175 -173s175 76 175 173v243c0 7 6 13 13 13s13 -6 13 -13v-242c0 -111 -86 -199 -201 -199c-89 0 -160 53 -188 129c-30 -78 -100 -129 -188 -129c-115 0 -201 88 -201 199v242c0 7 6 13 13 13s13 -6 13 -13v-243c0 -97 73 -173 175 -173
c99 0 175 73 175 173v243c0 8 6 13 13 13s13 -5 13 -13zM554 631l-75 -109c-3 -4 -5 -5 -9 -5c-7 0 -11 5 -11 10c0 2 1 5 3 8l74 109c2 3 5 6 10 6c6 0 11 -5 11 -10s-2 -7 -3 -9z" />
    <glyph glyph-name="wcircumflex.salt" horiz-adv-x="948" 
d="M487 429v-243c0 -97 73 -173 175 -173s175 76 175 173v243c0 7 6 13 13 13s13 -6 13 -13v-242c0 -111 -86 -199 -201 -199c-89 0 -160 53 -188 129c-30 -78 -100 -129 -188 -129c-115 0 -201 88 -201 199v242c0 7 6 13 13 13s13 -6 13 -13v-243c0 -97 73 -173 175 -173
c99 0 175 73 175 173v243c0 8 6 13 13 13s13 -5 13 -13zM487 623l92 -87c3 -3 5 -5 5 -9c0 -6 -6 -11 -11 -11c-3 0 -5 1 -6 2l-93 88l-93 -88c-1 -1 -3 -2 -6 -2c-5 0 -11 5 -11 11c0 4 2 6 5 9l92 87c5 5 8 7 13 7s8 -2 13 -7z" />
    <glyph glyph-name="wdieresis.salt" horiz-adv-x="948" 
d="M487 429v-243c0 -97 73 -173 175 -173s175 76 175 173v243c0 7 6 13 13 13s13 -6 13 -13v-242c0 -111 -86 -199 -201 -199c-89 0 -160 53 -188 129c-30 -78 -100 -129 -188 -129c-115 0 -201 88 -201 199v242c0 7 6 13 13 13s13 -6 13 -13v-243c0 -97 73 -173 175 -173
c99 0 175 73 175 173v243c0 8 6 13 13 13s13 -5 13 -13zM375 562c0 14 11 25 25 25s25 -11 25 -25s-11 -25 -25 -25s-25 11 -25 25zM524 562c0 14 11 25 25 25s25 -11 25 -25s-11 -25 -25 -25s-25 11 -25 25z" />
    <glyph glyph-name="wgrave.salt" horiz-adv-x="948" 
d="M487 429v-243c0 -97 73 -173 175 -173s175 76 175 173v243c0 7 6 13 13 13s13 -6 13 -13v-242c0 -111 -86 -199 -201 -199c-89 0 -160 53 -188 129c-30 -78 -100 -129 -188 -129c-115 0 -201 88 -201 199v242c0 7 6 13 13 13s13 -6 13 -13v-243c0 -97 73 -173 175 -173
c99 0 175 73 175 173v243c0 8 6 13 13 13s13 -5 13 -13zM469 522l-75 109c-1 2 -3 4 -3 9s5 10 11 10c5 0 8 -3 10 -6l74 -109c2 -3 3 -6 3 -8c0 -5 -4 -10 -11 -10c-4 0 -6 1 -9 5z" />
    <glyph glyph-name="yacute.salt" horiz-adv-x="577" 
d="M356 631l-75 -109c-3 -4 -5 -5 -9 -5c-7 0 -11 5 -11 10c0 2 1 5 3 8l74 109c2 3 5 6 10 6c6 0 11 -5 11 -10s-2 -7 -3 -9zM275 -172c152 0 186 87 186 203v79c-35 -74 -108 -112 -182 -112c-123 0 -194 82 -194 195v236c0 7 6 13 13 13s13 -6 13 -13v-237
c0 -101 62 -169 168 -169c96 0 182 74 182 174v232c0 7 6 13 13 13s13 -6 13 -13v-398c0 -131 -48 -226 -212 -226c-62 0 -120 17 -163 41c-4 2 -10 5 -10 12c0 6 5 10 10 10c4 0 7 -1 12 -3c46 -23 94 -37 151 -37z" />
    <glyph glyph-name="ycircumflex.salt" horiz-adv-x="577" 
d="M275 -172c152 0 186 87 186 203v79c-35 -74 -108 -112 -182 -112c-123 0 -194 82 -194 195v236c0 7 6 13 13 13s13 -6 13 -13v-237c0 -101 62 -169 168 -169c96 0 182 74 182 174v232c0 7 6 13 13 13s13 -6 13 -13v-398c0 -131 -48 -226 -212 -226c-62 0 -120 17 -163 41
c-4 2 -10 5 -10 12c0 6 5 10 10 10c4 0 7 -1 12 -3c46 -23 94 -37 151 -37zM306 623l92 -87c3 -3 5 -5 5 -9c0 -6 -6 -11 -11 -11c-3 0 -5 1 -6 2l-93 88l-93 -88c-1 -1 -3 -2 -6 -2c-5 0 -11 5 -11 11c0 4 2 6 5 9l92 87c5 5 8 7 13 7s8 -2 13 -7z" />
    <glyph glyph-name="ydieresis.salt" horiz-adv-x="577" 
d="M186 562c0 14 11 25 25 25s25 -11 25 -25s-11 -25 -25 -25s-25 11 -25 25zM335 562c0 14 11 25 25 25s25 -11 25 -25s-11 -25 -25 -25s-25 11 -25 25zM275 -172c152 0 186 87 186 203v79c-35 -74 -108 -112 -182 -112c-123 0 -194 82 -194 195v236c0 7 6 13 13 13
s13 -6 13 -13v-237c0 -101 62 -169 168 -169c96 0 182 74 182 174v232c0 7 6 13 13 13s13 -6 13 -13v-398c0 -131 -48 -226 -212 -226c-62 0 -120 17 -163 41c-4 2 -10 5 -10 12c0 6 5 10 10 10c4 0 7 -1 12 -3c46 -23 94 -37 151 -37z" />
    <glyph glyph-name="ygrave.salt" horiz-adv-x="577" 
d="M275 -172c152 0 186 87 186 203v79c-35 -74 -108 -112 -182 -112c-123 0 -194 82 -194 195v236c0 7 6 13 13 13s13 -6 13 -13v-237c0 -101 62 -169 168 -169c96 0 182 74 182 174v232c0 7 6 13 13 13s13 -6 13 -13v-398c0 -131 -48 -226 -212 -226c-62 0 -120 17 -163 41
c-4 2 -10 5 -10 12c0 6 5 10 10 10c4 0 7 -1 12 -3c46 -23 94 -37 151 -37zM305 522l-75 109c-1 2 -3 4 -3 9s5 10 11 10c5 0 8 -3 10 -6l74 -109c2 -3 3 -6 3 -8c0 -5 -4 -10 -11 -10c-4 0 -6 1 -9 5z" />
    <glyph glyph-name="ornm01.ornm" horiz-adv-x="1001" 
d="M906 333c0 -6 -5 -11 -11 -11h-766l314 -313c3 -3 5 -6 5 -10c0 -6 -5 -11 -12 -11c-5 0 -8 2 -11 5l-331 331c-2 2 -4 5 -4 9s2 7 4 9l331 331c3 3 6 5 11 5c7 0 12 -5 12 -11c0 -4 -2 -7 -5 -10l-314 -313h766c6 0 11 -5 11 -11z" />
    <glyph glyph-name="ornm02.ornm" horiz-adv-x="1001" 
d="M95 333c0 6 5 11 11 11h766l-314 313c-3 3 -5 6 -5 10c0 6 5 11 12 11c5 0 8 -2 11 -5l331 -331c2 -2 4 -5 4 -9s-2 -7 -4 -9l-331 -331c-3 -3 -6 -5 -11 -5c-7 0 -12 5 -12 11c0 4 2 7 5 10l314 313h-766c-6 0 -11 5 -11 11z" />
    <glyph glyph-name="ornm03.ornm" horiz-adv-x="906" 
d="M610 642h-443l629 -631c2 -2 5 -5 5 -9c0 -6 -6 -10 -11 -10c-4 0 -7 2 -10 5l-631 629v-444c0 -7 -5 -12 -12 -12s-12 5 -12 12v472c0 7 5 12 12 12h473c7 0 12 -5 12 -12s-5 -12 -12 -12z" />
    <glyph glyph-name="ornm04.ornm" horiz-adv-x="906" 
d="M739 642h-443c-7 0 -12 5 -12 12s5 12 12 12h473c7 0 12 -5 12 -12v-472c0 -7 -5 -12 -12 -12s-12 5 -12 12v444l-631 -629c-3 -3 -6 -5 -10 -5c-5 0 -11 4 -11 10c0 4 3 7 5 9z" />
    <glyph glyph-name="ornm05.ornm" horiz-adv-x="896" 
d="M167 24h443c7 0 12 -5 12 -12s-5 -12 -12 -12h-473c-7 0 -12 5 -12 12v472c0 7 5 12 12 12s12 -5 12 -12v-444l631 629c3 3 6 5 10 5c5 0 11 -4 11 -10c0 -4 -3 -7 -5 -9z" />
    <glyph glyph-name="ornm06.ornm" horiz-adv-x="896" 
d="M286 24h443l-629 631c-2 2 -5 5 -5 9c0 6 6 10 11 10c4 0 7 -2 10 -5l631 -629v444c0 7 5 12 12 12s12 -5 12 -12v-472c0 -7 -5 -12 -12 -12h-473c-7 0 -12 5 -12 12s5 12 12 12z" />
    <glyph glyph-name="ornm07.ornm" horiz-adv-x="860" 
d="M418 4v630l-312 -313c-3 -3 -6 -5 -10 -5c-6 0 -11 5 -11 12c0 5 2 8 5 11l331 331c2 2 5 4 9 4s7 -2 9 -4l331 -331c3 -3 5 -6 5 -11c0 -7 -5 -12 -11 -12c-4 0 -7 2 -10 5l-312 313v-630c0 -7 -5 -12 -12 -12s-12 5 -12 12z" />
    <glyph glyph-name="ornm08.ornm" horiz-adv-x="860" 
d="M418 32v630c0 7 5 12 12 12s12 -5 12 -12v-630l312 313c3 3 6 5 10 5c6 0 11 -5 11 -12c0 -5 -2 -8 -5 -11l-331 -331c-2 -2 -5 -4 -9 -4s-7 2 -9 4l-331 331c-3 3 -5 6 -5 11c0 7 5 12 11 12c4 0 7 -2 10 -5z" />
    <glyph glyph-name="ornm09.ornm" horiz-adv-x="721" 
d="M641 217c0 -6 -5 -11 -11 -11h-516l198 -197c3 -3 5 -6 5 -10c0 -6 -5 -11 -12 -11c-5 0 -8 2 -11 5l-215 215c-2 2 -4 5 -4 9s2 7 4 9l215 215c3 3 6 5 11 5c7 0 12 -5 12 -11c0 -4 -2 -7 -5 -10l-198 -197h516c6 0 11 -5 11 -11z" />
    <glyph glyph-name="ornm10.ornm" horiz-adv-x="721" 
d="M80 217c0 6 5 11 11 11h516l-198 197c-3 3 -5 6 -5 10c0 6 5 11 12 11c5 0 8 -2 11 -5l215 -215c2 -2 4 -5 4 -9s-2 -7 -4 -9l-215 -215c-3 -3 -6 -5 -11 -5c-7 0 -12 5 -12 11c0 4 2 7 5 10l198 197h-516c-6 0 -11 5 -11 11z" />
    <glyph glyph-name="ornm11.ornm" horiz-adv-x="663" 
d="M435 410h-278l401 -403c2 -2 5 -5 5 -9c0 -6 -6 -10 -11 -10c-4 0 -7 2 -10 5l-403 401v-280c0 -7 -5 -12 -12 -12s-12 5 -12 12v308c0 7 5 12 12 12h308c7 0 12 -5 12 -12s-5 -12 -12 -12z" />
    <glyph glyph-name="ornm12.ornm" horiz-adv-x="663" 
d="M506 410h-278c-7 0 -12 5 -12 12s5 12 12 12h308c7 0 12 -5 12 -12v-308c0 -7 -5 -12 -12 -12s-12 5 -12 12v280l-403 -401c-3 -3 -6 -5 -10 -5c-5 0 -11 4 -11 10c0 4 3 7 5 9z" />
    <glyph glyph-name="ornm13.ornm" horiz-adv-x="653" 
d="M157 24h278c7 0 12 -5 12 -12s-5 -12 -12 -12h-308c-7 0 -12 5 -12 12v308c0 7 5 12 12 12s12 -5 12 -12v-280l403 401c3 3 6 5 10 5c5 0 11 -4 11 -10c0 -4 -3 -7 -5 -9z" />
    <glyph glyph-name="ornm14.ornm" horiz-adv-x="653" 
d="M218 24h278l-401 403c-2 2 -5 5 -5 9c0 6 6 10 11 10c4 0 7 -2 10 -5l403 -401v280c0 7 5 12 12 12s12 -5 12 -12v-308c0 -7 -5 -12 -12 -12h-308c-7 0 -12 5 -12 12s5 12 12 12z" />
    <glyph glyph-name="ornm15.ornm" horiz-adv-x="618" 
d="M309 -195c-7 0 -12 5 -12 12v589l-196 -197c-3 -3 -6 -5 -10 -5c-6 0 -11 5 -11 12c0 5 2 8 5 11l215 215c2 2 5 4 9 4s7 -2 9 -4l215 -215c3 -3 5 -6 5 -11c0 -7 -5 -12 -11 -12c-4 0 -7 2 -10 5l-196 197v-589c0 -7 -5 -12 -12 -12z" />
    <glyph glyph-name="ornm16.ornm" horiz-adv-x="618" 
d="M309 446c7 0 12 -5 12 -12v-589l196 197c3 3 6 5 10 5c6 0 11 -5 11 -12c0 -5 -2 -8 -5 -11l-215 -215c-2 -2 -5 -4 -9 -4s-7 2 -9 4l-215 215c-3 3 -5 6 -5 11c0 7 5 12 11 12c4 0 7 -2 10 -5l196 -197v589c0 7 5 12 12 12z" />
    <glyph glyph-name="ornm17.ornm" horiz-adv-x="916" 
d="M125 0v666h666v-666h-666z" />
    <glyph glyph-name="ornm18.ornm" horiz-adv-x="674" 
d="M120 0v434h434v-434h-434z" />
    <glyph glyph-name="ornm19.ornm" horiz-adv-x="876" 
d="M120 676l686 -343l-686 -343v686z" />
    <glyph glyph-name="ornm20.ornm" horiz-adv-x="619" 
d="M115 -12v458l434 -229z" />
    <glyph glyph-name="ornm21.ornm" horiz-adv-x="826" 
d="M413 678l338 -678h-676z" />
    <glyph glyph-name="ornm22.ornm" horiz-adv-x="816" 
d="M746 666l-338 -678l-338 678h676z" />
    <glyph glyph-name="ornm23.ornm" horiz-adv-x="628" 
d="M543 0h-458l229 446z" />
    <glyph glyph-name="ornm24.ornm" horiz-adv-x="618" 
d="M80 434h458l-229 -446z" />
    </font>
</defs>
</svg>
